<?xml version="1.0" encoding="utf-8"?>
<svg xmlns="http://www.w3.org/2000/svg" xmlns:xlink="http://www.w3.org/1999/xlink" width="600" height="400" viewBox="0 0 2400 1600">
<defs>
  <clipPath id="clip090">
    <rect x="0" y="0" width="2400" height="1600"/>
  </clipPath>
</defs>
<path clip-path="url(#clip090)" d="M0 1600 L2400 1600 L2400 0 L0 0  Z" fill="#ffffff" fill-rule="evenodd" fill-opacity="1"/>
<defs>
  <clipPath id="clip091">
    <rect x="480" y="0" width="1681" height="1600"/>
  </clipPath>
</defs>
<path clip-path="url(#clip090)" d="M170.857 1486.45 L2352.76 1486.45 L2352.76 47.2441 L170.857 47.2441  Z" fill="#ffffff" fill-rule="evenodd" fill-opacity="1"/>
<defs>
  <clipPath id="clip092">
    <rect x="170" y="47" width="2183" height="1440"/>
  </clipPath>
</defs>
<polyline clip-path="url(#clip092)" style="stroke:#000000; stroke-linecap:round; stroke-linejoin:round; stroke-width:2; stroke-opacity:0.1; fill:none" points="219.663,1486.45 219.663,47.2441 "/>
<polyline clip-path="url(#clip092)" style="stroke:#000000; stroke-linecap:round; stroke-linejoin:round; stroke-width:2; stroke-opacity:0.1; fill:none" points="866.957,1486.45 866.957,47.2441 "/>
<polyline clip-path="url(#clip092)" style="stroke:#000000; stroke-linecap:round; stroke-linejoin:round; stroke-width:2; stroke-opacity:0.1; fill:none" points="1514.25,1486.45 1514.25,47.2441 "/>
<polyline clip-path="url(#clip092)" style="stroke:#000000; stroke-linecap:round; stroke-linejoin:round; stroke-width:2; stroke-opacity:0.1; fill:none" points="2161.55,1486.45 2161.55,47.2441 "/>
<polyline clip-path="url(#clip090)" style="stroke:#000000; stroke-linecap:round; stroke-linejoin:round; stroke-width:4; stroke-opacity:1; fill:none" points="170.857,1486.45 2352.76,1486.45 "/>
<polyline clip-path="url(#clip090)" style="stroke:#000000; stroke-linecap:round; stroke-linejoin:round; stroke-width:4; stroke-opacity:1; fill:none" points="219.663,1486.45 219.663,1467.55 "/>
<polyline clip-path="url(#clip090)" style="stroke:#000000; stroke-linecap:round; stroke-linejoin:round; stroke-width:4; stroke-opacity:1; fill:none" points="866.957,1486.45 866.957,1467.55 "/>
<polyline clip-path="url(#clip090)" style="stroke:#000000; stroke-linecap:round; stroke-linejoin:round; stroke-width:4; stroke-opacity:1; fill:none" points="1514.25,1486.45 1514.25,1467.55 "/>
<polyline clip-path="url(#clip090)" style="stroke:#000000; stroke-linecap:round; stroke-linejoin:round; stroke-width:4; stroke-opacity:1; fill:none" points="2161.55,1486.45 2161.55,1467.55 "/>
<path clip-path="url(#clip090)" d="M219.663 1517.37 Q216.052 1517.37 214.224 1520.93 Q212.418 1524.47 212.418 1531.6 Q212.418 1538.71 214.224 1542.27 Q216.052 1545.82 219.663 1545.82 Q223.298 1545.82 225.103 1542.27 Q226.932 1538.71 226.932 1531.6 Q226.932 1524.47 225.103 1520.93 Q223.298 1517.37 219.663 1517.37 M219.663 1513.66 Q225.474 1513.66 228.529 1518.27 Q231.608 1522.85 231.608 1531.6 Q231.608 1540.33 228.529 1544.94 Q225.474 1549.52 219.663 1549.52 Q213.853 1549.52 210.775 1544.94 Q207.719 1540.33 207.719 1531.6 Q207.719 1522.85 210.775 1518.27 Q213.853 1513.66 219.663 1513.66 Z" fill="#000000" fill-rule="nonzero" fill-opacity="1" /><path clip-path="url(#clip090)" d="M841.657 1514.29 L860.013 1514.29 L860.013 1518.22 L845.939 1518.22 L845.939 1526.7 Q846.957 1526.35 847.976 1526.19 Q848.994 1526 850.013 1526 Q855.8 1526 859.18 1529.17 Q862.559 1532.34 862.559 1537.76 Q862.559 1543.34 859.087 1546.44 Q855.615 1549.52 849.295 1549.52 Q847.119 1549.52 844.851 1549.15 Q842.606 1548.78 840.198 1548.04 L840.198 1543.34 Q842.282 1544.47 844.504 1545.03 Q846.726 1545.58 849.203 1545.58 Q853.207 1545.58 855.545 1543.48 Q857.883 1541.37 857.883 1537.76 Q857.883 1534.15 855.545 1532.04 Q853.207 1529.94 849.203 1529.94 Q847.328 1529.94 845.453 1530.35 Q843.601 1530.77 841.657 1531.65 L841.657 1514.29 Z" fill="#000000" fill-rule="nonzero" fill-opacity="1" /><path clip-path="url(#clip090)" d="M881.772 1517.37 Q878.161 1517.37 876.332 1520.93 Q874.527 1524.47 874.527 1531.6 Q874.527 1538.71 876.332 1542.27 Q878.161 1545.82 881.772 1545.82 Q885.406 1545.82 887.212 1542.27 Q889.041 1538.71 889.041 1531.6 Q889.041 1524.47 887.212 1520.93 Q885.406 1517.37 881.772 1517.37 M881.772 1513.66 Q887.582 1513.66 890.638 1518.27 Q893.716 1522.85 893.716 1531.6 Q893.716 1540.33 890.638 1544.94 Q887.582 1549.52 881.772 1549.52 Q875.962 1549.52 872.883 1544.94 Q869.828 1540.33 869.828 1531.6 Q869.828 1522.85 872.883 1518.27 Q875.962 1513.66 881.772 1513.66 Z" fill="#000000" fill-rule="nonzero" fill-opacity="1" /><path clip-path="url(#clip090)" d="M1473.86 1544.91 L1481.5 1544.91 L1481.5 1518.55 L1473.19 1520.21 L1473.19 1515.95 L1481.45 1514.29 L1486.13 1514.29 L1486.13 1544.91 L1493.77 1544.91 L1493.77 1548.85 L1473.86 1548.85 L1473.86 1544.91 Z" fill="#000000" fill-rule="nonzero" fill-opacity="1" /><path clip-path="url(#clip090)" d="M1513.21 1517.37 Q1509.6 1517.37 1507.77 1520.93 Q1505.96 1524.47 1505.96 1531.6 Q1505.96 1538.71 1507.77 1542.27 Q1509.6 1545.82 1513.21 1545.82 Q1516.84 1545.82 1518.65 1542.27 Q1520.48 1538.71 1520.48 1531.6 Q1520.48 1524.47 1518.65 1520.93 Q1516.84 1517.37 1513.21 1517.37 M1513.21 1513.66 Q1519.02 1513.66 1522.08 1518.27 Q1525.15 1522.85 1525.15 1531.6 Q1525.15 1540.33 1522.08 1544.94 Q1519.02 1549.52 1513.21 1549.52 Q1507.4 1549.52 1504.32 1544.94 Q1501.27 1540.33 1501.27 1531.6 Q1501.27 1522.85 1504.32 1518.27 Q1507.4 1513.66 1513.21 1513.66 Z" fill="#000000" fill-rule="nonzero" fill-opacity="1" /><path clip-path="url(#clip090)" d="M1543.37 1517.37 Q1539.76 1517.37 1537.93 1520.93 Q1536.13 1524.47 1536.13 1531.6 Q1536.13 1538.71 1537.93 1542.27 Q1539.76 1545.82 1543.37 1545.82 Q1547.01 1545.82 1548.81 1542.27 Q1550.64 1538.71 1550.64 1531.6 Q1550.64 1524.47 1548.81 1520.93 Q1547.01 1517.37 1543.37 1517.37 M1543.37 1513.66 Q1549.18 1513.66 1552.24 1518.27 Q1555.32 1522.85 1555.32 1531.6 Q1555.32 1540.33 1552.24 1544.94 Q1549.18 1549.52 1543.37 1549.52 Q1537.56 1549.52 1534.48 1544.94 Q1531.43 1540.33 1531.43 1531.6 Q1531.43 1522.85 1534.48 1518.27 Q1537.56 1513.66 1543.37 1513.66 Z" fill="#000000" fill-rule="nonzero" fill-opacity="1" /><path clip-path="url(#clip090)" d="M2121.15 1544.91 L2128.79 1544.91 L2128.79 1518.55 L2120.48 1520.21 L2120.48 1515.95 L2128.74 1514.29 L2133.42 1514.29 L2133.42 1544.91 L2141.06 1544.91 L2141.06 1548.85 L2121.15 1548.85 L2121.15 1544.91 Z" fill="#000000" fill-rule="nonzero" fill-opacity="1" /><path clip-path="url(#clip090)" d="M2150.55 1514.29 L2168.91 1514.29 L2168.91 1518.22 L2154.83 1518.22 L2154.83 1526.7 Q2155.85 1526.35 2156.87 1526.19 Q2157.89 1526 2158.91 1526 Q2164.69 1526 2168.07 1529.17 Q2171.45 1532.34 2171.45 1537.76 Q2171.45 1543.34 2167.98 1546.44 Q2164.51 1549.52 2158.19 1549.52 Q2156.01 1549.52 2153.74 1549.15 Q2151.5 1548.78 2149.09 1548.04 L2149.09 1543.34 Q2151.17 1544.47 2153.4 1545.03 Q2155.62 1545.58 2158.1 1545.58 Q2162.1 1545.58 2164.44 1543.48 Q2166.78 1541.37 2166.78 1537.76 Q2166.78 1534.15 2164.44 1532.04 Q2162.1 1529.94 2158.1 1529.94 Q2156.22 1529.94 2154.35 1530.35 Q2152.49 1530.77 2150.55 1531.65 L2150.55 1514.29 Z" fill="#000000" fill-rule="nonzero" fill-opacity="1" /><path clip-path="url(#clip090)" d="M2190.67 1517.37 Q2187.05 1517.37 2185.23 1520.93 Q2183.42 1524.47 2183.42 1531.6 Q2183.42 1538.71 2185.23 1542.27 Q2187.05 1545.82 2190.67 1545.82 Q2194.3 1545.82 2196.11 1542.27 Q2197.93 1538.71 2197.93 1531.6 Q2197.93 1524.47 2196.11 1520.93 Q2194.3 1517.37 2190.67 1517.37 M2190.67 1513.66 Q2196.48 1513.66 2199.53 1518.27 Q2202.61 1522.85 2202.61 1531.6 Q2202.61 1540.33 2199.53 1544.94 Q2196.48 1549.52 2190.67 1549.52 Q2184.86 1549.52 2181.78 1544.94 Q2178.72 1540.33 2178.72 1531.6 Q2178.72 1522.85 2181.78 1518.27 Q2184.86 1513.66 2190.67 1513.66 Z" fill="#000000" fill-rule="nonzero" fill-opacity="1" /><polyline clip-path="url(#clip092)" style="stroke:#000000; stroke-linecap:round; stroke-linejoin:round; stroke-width:2; stroke-opacity:0.1; fill:none" points="170.857,1447.05 2352.76,1447.05 "/>
<polyline clip-path="url(#clip092)" style="stroke:#000000; stroke-linecap:round; stroke-linejoin:round; stroke-width:2; stroke-opacity:0.1; fill:none" points="170.857,1240.17 2352.76,1240.17 "/>
<polyline clip-path="url(#clip092)" style="stroke:#000000; stroke-linecap:round; stroke-linejoin:round; stroke-width:2; stroke-opacity:0.1; fill:none" points="170.857,1033.29 2352.76,1033.29 "/>
<polyline clip-path="url(#clip092)" style="stroke:#000000; stroke-linecap:round; stroke-linejoin:round; stroke-width:2; stroke-opacity:0.1; fill:none" points="170.857,826.411 2352.76,826.411 "/>
<polyline clip-path="url(#clip092)" style="stroke:#000000; stroke-linecap:round; stroke-linejoin:round; stroke-width:2; stroke-opacity:0.1; fill:none" points="170.857,619.532 2352.76,619.532 "/>
<polyline clip-path="url(#clip092)" style="stroke:#000000; stroke-linecap:round; stroke-linejoin:round; stroke-width:2; stroke-opacity:0.1; fill:none" points="170.857,412.654 2352.76,412.654 "/>
<polyline clip-path="url(#clip092)" style="stroke:#000000; stroke-linecap:round; stroke-linejoin:round; stroke-width:2; stroke-opacity:0.1; fill:none" points="170.857,205.775 2352.76,205.775 "/>
<polyline clip-path="url(#clip090)" style="stroke:#000000; stroke-linecap:round; stroke-linejoin:round; stroke-width:4; stroke-opacity:1; fill:none" points="170.857,1486.45 170.857,47.2441 "/>
<polyline clip-path="url(#clip090)" style="stroke:#000000; stroke-linecap:round; stroke-linejoin:round; stroke-width:4; stroke-opacity:1; fill:none" points="170.857,1447.05 189.755,1447.05 "/>
<polyline clip-path="url(#clip090)" style="stroke:#000000; stroke-linecap:round; stroke-linejoin:round; stroke-width:4; stroke-opacity:1; fill:none" points="170.857,1240.17 189.755,1240.17 "/>
<polyline clip-path="url(#clip090)" style="stroke:#000000; stroke-linecap:round; stroke-linejoin:round; stroke-width:4; stroke-opacity:1; fill:none" points="170.857,1033.29 189.755,1033.29 "/>
<polyline clip-path="url(#clip090)" style="stroke:#000000; stroke-linecap:round; stroke-linejoin:round; stroke-width:4; stroke-opacity:1; fill:none" points="170.857,826.411 189.755,826.411 "/>
<polyline clip-path="url(#clip090)" style="stroke:#000000; stroke-linecap:round; stroke-linejoin:round; stroke-width:4; stroke-opacity:1; fill:none" points="170.857,619.532 189.755,619.532 "/>
<polyline clip-path="url(#clip090)" style="stroke:#000000; stroke-linecap:round; stroke-linejoin:round; stroke-width:4; stroke-opacity:1; fill:none" points="170.857,412.654 189.755,412.654 "/>
<polyline clip-path="url(#clip090)" style="stroke:#000000; stroke-linecap:round; stroke-linejoin:round; stroke-width:4; stroke-opacity:1; fill:none" points="170.857,205.775 189.755,205.775 "/>
<path clip-path="url(#clip090)" d="M82.566 1429.77 L104.788 1429.77 L104.788 1431.76 L92.2419 1464.33 L87.3577 1464.33 L99.1632 1433.7 L82.566 1433.7 L82.566 1429.77 Z" fill="#000000" fill-rule="nonzero" fill-opacity="1" /><path clip-path="url(#clip090)" d="M113.955 1429.77 L132.311 1429.77 L132.311 1433.7 L118.237 1433.7 L118.237 1442.17 Q119.256 1441.83 120.274 1441.66 Q121.293 1441.48 122.311 1441.48 Q128.098 1441.48 131.478 1444.65 Q134.857 1447.82 134.857 1453.24 Q134.857 1458.82 131.385 1461.92 Q127.913 1465 121.594 1465 Q119.418 1465 117.149 1464.63 Q114.904 1464.26 112.496 1463.52 L112.496 1458.82 Q114.58 1459.95 116.802 1460.51 Q119.024 1461.06 121.501 1461.06 Q125.506 1461.06 127.844 1458.96 Q130.182 1456.85 130.182 1453.24 Q130.182 1449.63 127.844 1447.52 Q125.506 1445.41 121.501 1445.41 Q119.626 1445.41 117.751 1445.83 Q115.899 1446.25 113.955 1447.13 L113.955 1429.77 Z" fill="#000000" fill-rule="nonzero" fill-opacity="1" /><path clip-path="url(#clip090)" d="M53.3995 1253.51 L61.0384 1253.51 L61.0384 1227.15 L52.7282 1228.81 L52.7282 1224.55 L60.9921 1222.89 L65.668 1222.89 L65.668 1253.51 L73.3068 1253.51 L73.3068 1257.45 L53.3995 1257.45 L53.3995 1253.51 Z" fill="#000000" fill-rule="nonzero" fill-opacity="1" /><path clip-path="url(#clip090)" d="M92.7512 1225.97 Q89.1401 1225.97 87.3114 1229.53 Q85.5058 1233.07 85.5058 1240.2 Q85.5058 1247.31 87.3114 1250.87 Q89.1401 1254.42 92.7512 1254.42 Q96.3854 1254.42 98.1909 1250.87 Q100.02 1247.31 100.02 1240.2 Q100.02 1233.07 98.1909 1229.53 Q96.3854 1225.97 92.7512 1225.97 M92.7512 1222.26 Q98.5613 1222.26 101.617 1226.87 Q104.696 1231.45 104.696 1240.2 Q104.696 1248.93 101.617 1253.54 Q98.5613 1258.12 92.7512 1258.12 Q86.941 1258.12 83.8623 1253.54 Q80.8068 1248.93 80.8068 1240.2 Q80.8068 1231.45 83.8623 1226.87 Q86.941 1222.26 92.7512 1222.26 Z" fill="#000000" fill-rule="nonzero" fill-opacity="1" /><path clip-path="url(#clip090)" d="M122.913 1225.97 Q119.302 1225.97 117.473 1229.53 Q115.668 1233.07 115.668 1240.2 Q115.668 1247.31 117.473 1250.87 Q119.302 1254.42 122.913 1254.42 Q126.547 1254.42 128.353 1250.87 Q130.182 1247.31 130.182 1240.2 Q130.182 1233.07 128.353 1229.53 Q126.547 1225.97 122.913 1225.97 M122.913 1222.26 Q128.723 1222.26 131.779 1226.87 Q134.857 1231.45 134.857 1240.2 Q134.857 1248.93 131.779 1253.54 Q128.723 1258.12 122.913 1258.12 Q117.103 1258.12 114.024 1253.54 Q110.969 1248.93 110.969 1240.2 Q110.969 1231.45 114.024 1226.87 Q117.103 1222.26 122.913 1222.26 Z" fill="#000000" fill-rule="nonzero" fill-opacity="1" /><path clip-path="url(#clip090)" d="M54.3949 1046.63 L62.0337 1046.63 L62.0337 1020.27 L53.7236 1021.94 L53.7236 1017.68 L61.9874 1016.01 L66.6633 1016.01 L66.6633 1046.63 L74.3022 1046.63 L74.3022 1050.57 L54.3949 1050.57 L54.3949 1046.63 Z" fill="#000000" fill-rule="nonzero" fill-opacity="1" /><path clip-path="url(#clip090)" d="M87.7743 1046.63 L104.094 1046.63 L104.094 1050.57 L82.1494 1050.57 L82.1494 1046.63 Q84.8114 1043.88 89.3947 1039.25 Q94.0012 1034.6 95.1817 1033.25 Q97.4271 1030.73 98.3067 1029 Q99.2095 1027.24 99.2095 1025.55 Q99.2095 1022.79 97.265 1021.06 Q95.3437 1019.32 92.2419 1019.32 Q90.0428 1019.32 87.5892 1020.08 Q85.1586 1020.85 82.3808 1022.4 L82.3808 1017.68 Q85.2049 1016.54 87.6586 1015.96 Q90.1123 1015.38 92.1493 1015.38 Q97.5197 1015.38 100.714 1018.07 Q103.909 1020.75 103.909 1025.25 Q103.909 1027.37 103.098 1029.3 Q102.311 1031.19 100.205 1033.79 Q99.6261 1034.46 96.5243 1037.68 Q93.4225 1040.87 87.7743 1046.63 Z" fill="#000000" fill-rule="nonzero" fill-opacity="1" /><path clip-path="url(#clip090)" d="M113.955 1016.01 L132.311 1016.01 L132.311 1019.94 L118.237 1019.94 L118.237 1028.42 Q119.256 1028.07 120.274 1027.91 Q121.293 1027.72 122.311 1027.72 Q128.098 1027.72 131.478 1030.89 Q134.857 1034.06 134.857 1039.48 Q134.857 1045.06 131.385 1048.16 Q127.913 1051.24 121.594 1051.24 Q119.418 1051.24 117.149 1050.87 Q114.904 1050.5 112.496 1049.76 L112.496 1045.06 Q114.58 1046.19 116.802 1046.75 Q119.024 1047.31 121.501 1047.31 Q125.506 1047.31 127.844 1045.2 Q130.182 1043.09 130.182 1039.48 Q130.182 1035.87 127.844 1033.76 Q125.506 1031.66 121.501 1031.66 Q119.626 1031.66 117.751 1032.07 Q115.899 1032.49 113.955 1033.37 L113.955 1016.01 Z" fill="#000000" fill-rule="nonzero" fill-opacity="1" /><path clip-path="url(#clip090)" d="M53.3995 839.756 L61.0384 839.756 L61.0384 813.39 L52.7282 815.057 L52.7282 810.797 L60.9921 809.131 L65.668 809.131 L65.668 839.756 L73.3068 839.756 L73.3068 843.691 L53.3995 843.691 L53.3995 839.756 Z" fill="#000000" fill-rule="nonzero" fill-opacity="1" /><path clip-path="url(#clip090)" d="M82.7975 809.131 L101.154 809.131 L101.154 813.066 L87.0799 813.066 L87.0799 821.538 Q88.0984 821.191 89.1169 821.029 Q90.1354 820.844 91.1539 820.844 Q96.941 820.844 100.321 824.015 Q103.7 827.186 103.7 832.603 Q103.7 838.182 100.228 841.283 Q96.7558 844.362 90.4364 844.362 Q88.2604 844.362 85.9919 843.992 Q83.7466 843.621 81.3392 842.881 L81.3392 838.182 Q83.4225 839.316 85.6447 839.871 Q87.8669 840.427 90.3438 840.427 Q94.3484 840.427 96.6863 838.32 Q99.0243 836.214 99.0243 832.603 Q99.0243 828.992 96.6863 826.885 Q94.3484 824.779 90.3438 824.779 Q88.4688 824.779 86.5938 825.195 Q84.7419 825.612 82.7975 826.492 L82.7975 809.131 Z" fill="#000000" fill-rule="nonzero" fill-opacity="1" /><path clip-path="url(#clip090)" d="M122.913 812.209 Q119.302 812.209 117.473 815.774 Q115.668 819.316 115.668 826.445 Q115.668 833.552 117.473 837.117 Q119.302 840.658 122.913 840.658 Q126.547 840.658 128.353 837.117 Q130.182 833.552 130.182 826.445 Q130.182 819.316 128.353 815.774 Q126.547 812.209 122.913 812.209 M122.913 808.506 Q128.723 808.506 131.779 813.112 Q134.857 817.696 134.857 826.445 Q134.857 835.172 131.779 839.779 Q128.723 844.362 122.913 844.362 Q117.103 844.362 114.024 839.779 Q110.969 835.172 110.969 826.445 Q110.969 817.696 114.024 813.112 Q117.103 808.506 122.913 808.506 Z" fill="#000000" fill-rule="nonzero" fill-opacity="1" /><path clip-path="url(#clip090)" d="M54.3949 632.877 L62.0337 632.877 L62.0337 606.512 L53.7236 608.178 L53.7236 603.919 L61.9874 602.252 L66.6633 602.252 L66.6633 632.877 L74.3022 632.877 L74.3022 636.812 L54.3949 636.812 L54.3949 632.877 Z" fill="#000000" fill-rule="nonzero" fill-opacity="1" /><path clip-path="url(#clip090)" d="M82.566 602.252 L104.788 602.252 L104.788 604.243 L92.2419 636.812 L87.3577 636.812 L99.1632 606.187 L82.566 606.187 L82.566 602.252 Z" fill="#000000" fill-rule="nonzero" fill-opacity="1" /><path clip-path="url(#clip090)" d="M113.955 602.252 L132.311 602.252 L132.311 606.187 L118.237 606.187 L118.237 614.66 Q119.256 614.312 120.274 614.15 Q121.293 613.965 122.311 613.965 Q128.098 613.965 131.478 617.136 Q134.857 620.308 134.857 625.724 Q134.857 631.303 131.385 634.405 Q127.913 637.484 121.594 637.484 Q119.418 637.484 117.149 637.113 Q114.904 636.743 112.496 636.002 L112.496 631.303 Q114.58 632.437 116.802 632.993 Q119.024 633.548 121.501 633.548 Q125.506 633.548 127.844 631.442 Q130.182 629.335 130.182 625.724 Q130.182 622.113 127.844 620.007 Q125.506 617.9 121.501 617.9 Q119.626 617.9 117.751 618.317 Q115.899 618.734 113.955 619.613 L113.955 602.252 Z" fill="#000000" fill-rule="nonzero" fill-opacity="1" /><path clip-path="url(#clip090)" d="M56.6171 425.999 L72.9365 425.999 L72.9365 429.934 L50.9921 429.934 L50.9921 425.999 Q53.6541 423.244 58.2375 418.614 Q62.8439 413.962 64.0245 412.619 Q66.2698 410.096 67.1494 408.36 Q68.0522 406.601 68.0522 404.911 Q68.0522 402.156 66.1078 400.42 Q64.1865 398.684 61.0847 398.684 Q58.8856 398.684 56.4319 399.448 Q54.0014 400.212 51.2236 401.763 L51.2236 397.04 Q54.0477 395.906 56.5014 395.328 Q58.955 394.749 60.9921 394.749 Q66.3624 394.749 69.5568 397.434 Q72.7513 400.119 72.7513 404.61 Q72.7513 406.739 71.9411 408.661 Q71.1541 410.559 69.0476 413.151 Q68.4689 413.823 65.367 417.04 Q62.2652 420.235 56.6171 425.999 Z" fill="#000000" fill-rule="nonzero" fill-opacity="1" /><path clip-path="url(#clip090)" d="M92.7512 398.452 Q89.1401 398.452 87.3114 402.017 Q85.5058 405.559 85.5058 412.689 Q85.5058 419.795 87.3114 423.36 Q89.1401 426.901 92.7512 426.901 Q96.3854 426.901 98.1909 423.36 Q100.02 419.795 100.02 412.689 Q100.02 405.559 98.1909 402.017 Q96.3854 398.452 92.7512 398.452 M92.7512 394.749 Q98.5613 394.749 101.617 399.355 Q104.696 403.939 104.696 412.689 Q104.696 421.415 101.617 426.022 Q98.5613 430.605 92.7512 430.605 Q86.941 430.605 83.8623 426.022 Q80.8068 421.415 80.8068 412.689 Q80.8068 403.939 83.8623 399.355 Q86.941 394.749 92.7512 394.749 Z" fill="#000000" fill-rule="nonzero" fill-opacity="1" /><path clip-path="url(#clip090)" d="M122.913 398.452 Q119.302 398.452 117.473 402.017 Q115.668 405.559 115.668 412.689 Q115.668 419.795 117.473 423.36 Q119.302 426.901 122.913 426.901 Q126.547 426.901 128.353 423.36 Q130.182 419.795 130.182 412.689 Q130.182 405.559 128.353 402.017 Q126.547 398.452 122.913 398.452 M122.913 394.749 Q128.723 394.749 131.779 399.355 Q134.857 403.939 134.857 412.689 Q134.857 421.415 131.779 426.022 Q128.723 430.605 122.913 430.605 Q117.103 430.605 114.024 426.022 Q110.969 421.415 110.969 412.689 Q110.969 403.939 114.024 399.355 Q117.103 394.749 122.913 394.749 Z" fill="#000000" fill-rule="nonzero" fill-opacity="1" /><path clip-path="url(#clip090)" d="M57.6125 219.12 L73.9318 219.12 L73.9318 223.055 L51.9875 223.055 L51.9875 219.12 Q54.6495 216.366 59.2328 211.736 Q63.8393 207.083 65.0198 205.741 Q67.2652 203.217 68.1448 201.481 Q69.0476 199.722 69.0476 198.032 Q69.0476 195.278 67.1032 193.542 Q65.1819 191.805 62.08 191.805 Q59.881 191.805 57.4273 192.569 Q54.9967 193.333 52.219 194.884 L52.219 190.162 Q55.043 189.028 57.4967 188.449 Q59.9504 187.87 61.9874 187.87 Q67.3578 187.87 70.5522 190.555 Q73.7466 193.241 73.7466 197.731 Q73.7466 199.861 72.9365 201.782 Q72.1494 203.68 70.0429 206.273 Q69.4642 206.944 66.3624 210.162 Q63.2606 213.356 57.6125 219.12 Z" fill="#000000" fill-rule="nonzero" fill-opacity="1" /><path clip-path="url(#clip090)" d="M87.7743 219.12 L104.094 219.12 L104.094 223.055 L82.1494 223.055 L82.1494 219.12 Q84.8114 216.366 89.3947 211.736 Q94.0012 207.083 95.1817 205.741 Q97.4271 203.217 98.3067 201.481 Q99.2095 199.722 99.2095 198.032 Q99.2095 195.278 97.265 193.542 Q95.3437 191.805 92.2419 191.805 Q90.0428 191.805 87.5892 192.569 Q85.1586 193.333 82.3808 194.884 L82.3808 190.162 Q85.2049 189.028 87.6586 188.449 Q90.1123 187.87 92.1493 187.87 Q97.5197 187.87 100.714 190.555 Q103.909 193.241 103.909 197.731 Q103.909 199.861 103.098 201.782 Q102.311 203.68 100.205 206.273 Q99.6261 206.944 96.5243 210.162 Q93.4225 213.356 87.7743 219.12 Z" fill="#000000" fill-rule="nonzero" fill-opacity="1" /><path clip-path="url(#clip090)" d="M113.955 188.495 L132.311 188.495 L132.311 192.43 L118.237 192.43 L118.237 200.903 Q119.256 200.555 120.274 200.393 Q121.293 200.208 122.311 200.208 Q128.098 200.208 131.478 203.379 Q134.857 206.551 134.857 211.967 Q134.857 217.546 131.385 220.648 Q127.913 223.727 121.594 223.727 Q119.418 223.727 117.149 223.356 Q114.904 222.986 112.496 222.245 L112.496 217.546 Q114.58 218.68 116.802 219.236 Q119.024 219.791 121.501 219.791 Q125.506 219.791 127.844 217.685 Q130.182 215.579 130.182 211.967 Q130.182 208.356 127.844 206.25 Q125.506 204.143 121.501 204.143 Q119.626 204.143 117.751 204.56 Q115.899 204.977 113.955 205.856 L113.955 188.495 Z" fill="#000000" fill-rule="nonzero" fill-opacity="1" /><polyline clip-path="url(#clip092)" style="stroke:#009af9; stroke-linecap:round; stroke-linejoin:round; stroke-width:4; stroke-opacity:1; fill:none" points="232.609,978.122 245.555,972.313 258.501,908.578 271.447,818.85 284.393,815.183 297.339,878.333 310.285,819.499 323.23,941.581 336.176,1105.1 349.122,1180.42 362.068,1182.18 375.014,1125.16 387.96,1165.85 400.906,1104.84 413.852,884.629 426.797,406.553 439.743,87.9763 452.689,193.768 465.635,272.723 478.581,304.071 491.527,458.053 504.473,520.717 517.419,599.672 530.364,662.011 543.31,703.127 556.256,791.72 569.202,799.671 582.148,885.992 595.094,927.075 608.04,942.587 620.986,943.918 633.932,908.773 646.877,920.65 659.823,961.993 672.769,960.825 685.715,1006.35 698.661,1066.26 711.607,1001.94 724.553,967.218 737.499,849.484 750.444,829.137 763.39,845.914 776.336,862.594 789.282,884.369 802.228,930.937 815.174,935.902 828.12,878.528 841.066,917.21 854.011,957.969 866.957,1042.05 879.903,1090.34 892.849,1119.77 905.795,1183.96 918.741,1213.75 931.687,1210.54 944.633,1251.92 957.578,1275.6 970.524,1361.89 983.47,1445.72 996.416,1414.69 1009.36,1372.51 1022.31,1302.64 1035.25,1302.67 1048.2,1263.11 1061.15,1178.61 1074.09,1092.45 1087.04,1088.49 1099.98,1021.02 1112.93,965.887 1125.87,947.293 1138.82,962.48 1151.77,953.556 1164.71,877.489 1177.66,797.464 1190.6,759.398 1203.55,782.212 1216.5,841.631 1229.44,847.569 1242.39,785.392 1255.33,802.754 1268.28,706.924 1281.23,814.404 1294.17,887.16 1307.12,998.242 1320.06,996.392 1333.01,1016.71 1345.95,1005.32 1358.9,963.324 1371.85,922.565 1384.79,850.425 1397.74,733.859 1410.68,621.22 1423.63,543.076 1436.58,546.711 1449.52,491.349 1462.47,506.698 1475.41,513.643 1488.36,520.88 1501.31,519.257 1514.25,505.855 1527.2,481.094 1540.14,485.118 1553.09,457.664 1566.03,442.996 1578.98,473.306 1591.93,457.21 1604.87,467.01 1617.82,450.298 1630.76,477.589 1643.71,470.969 1656.66,505.335 1669.6,483.528 1682.55,486.157 1695.49,497.352 1708.44,512.929 1721.39,536.846 1734.33,550.313 1747.28,539.507 1760.22,535.45 1773.17,541.973 1786.11,541.584 1799.06,537.625 1812.01,538.436 1824.95,530.81 1837.9,537.397 1850.84,536.943 1863.79,538.598 1876.74,532.238 1889.68,531.686 1902.63,525.001 1915.57,532.854 1928.52,534.769 1941.47,519.841 1954.41,500.468 1967.36,511.014 1980.3,494.367 1993.25,492.744 2006.19,497.222 2019.14,507.704 2032.09,503.194 2045.03,505.303 2057.98,508.581 2070.92,532.595 2083.87,546.094 2096.82,555.148 2109.76,558.621 2122.71,547.912 2135.65,540.383 2148.6,541.681 2161.55,612.36 2174.49,665.419 2187.44,708.125 2200.38,749.014 2213.33,798.989 2226.27,853.865 2239.22,839.716 2252.17,879.339 2265.11,861.88 2278.06,892.385 2291,963.518 "/>
<path clip-path="url(#clip090)" d="M2009.41 198.898 L2280.03 198.898 L2280.03 95.2176 L2009.41 95.2176  Z" fill="#ffffff" fill-rule="evenodd" fill-opacity="1"/>
<polyline clip-path="url(#clip090)" style="stroke:#000000; stroke-linecap:round; stroke-linejoin:round; stroke-width:4; stroke-opacity:1; fill:none" points="2009.41,198.898 2280.03,198.898 2280.03,95.2176 2009.41,95.2176 2009.41,198.898 "/>
<polyline clip-path="url(#clip090)" style="stroke:#009af9; stroke-linecap:round; stroke-linejoin:round; stroke-width:4; stroke-opacity:1; fill:none" points="2033.65,147.058 2179.11,147.058 "/>
<path clip-path="url(#clip090)" d="M2217.19 166.745 Q2215.39 171.375 2213.68 172.787 Q2211.96 174.199 2209.09 174.199 L2205.69 174.199 L2205.69 170.634 L2208.19 170.634 Q2209.95 170.634 2210.92 169.8 Q2211.89 168.967 2213.07 165.865 L2213.84 163.921 L2203.35 138.412 L2207.87 138.412 L2215.97 158.689 L2224.07 138.412 L2228.58 138.412 L2217.19 166.745 Z" fill="#000000" fill-rule="nonzero" fill-opacity="1" /><path clip-path="url(#clip090)" d="M2235.88 160.402 L2243.51 160.402 L2243.51 134.037 L2235.2 135.703 L2235.2 131.444 L2243.47 129.778 L2248.14 129.778 L2248.14 160.402 L2255.78 160.402 L2255.78 164.338 L2235.88 164.338 L2235.88 160.402 Z" fill="#000000" fill-rule="nonzero" fill-opacity="1" /></svg>
