<?xml version="1.0" encoding="utf-8"?>
<svg xmlns="http://www.w3.org/2000/svg" xmlns:xlink="http://www.w3.org/1999/xlink" width="600" height="400" viewBox="0 0 2400 1600">
<defs>
  <clipPath id="clip000">
    <rect x="0" y="0" width="2400" height="1600"/>
  </clipPath>
</defs>
<path clip-path="url(#clip000)" d="M0 1600 L2400 1600 L2400 0 L0 0  Z" fill="#ffffff" fill-rule="evenodd" fill-opacity="1"/>
<defs>
  <clipPath id="clip001">
    <rect x="480" y="0" width="1681" height="1600"/>
  </clipPath>
</defs>
<path clip-path="url(#clip000)" d="M247.459 1423.18 L2352.76 1423.18 L2352.76 47.2441 L247.459 47.2441  Z" fill="#ffffff" fill-rule="evenodd" fill-opacity="1"/>
<defs>
  <clipPath id="clip002">
    <rect x="247" y="47" width="2106" height="1377"/>
  </clipPath>
</defs>
<polyline clip-path="url(#clip002)" style="stroke:#000000; stroke-linecap:round; stroke-linejoin:round; stroke-width:2; stroke-opacity:0.1; fill:none" points="266.509,1423.18 266.509,47.2441 "/>
<polyline clip-path="url(#clip002)" style="stroke:#000000; stroke-linecap:round; stroke-linejoin:round; stroke-width:2; stroke-opacity:0.1; fill:none" points="671.842,1423.18 671.842,47.2441 "/>
<polyline clip-path="url(#clip002)" style="stroke:#000000; stroke-linecap:round; stroke-linejoin:round; stroke-width:2; stroke-opacity:0.1; fill:none" points="1077.17,1423.18 1077.17,47.2441 "/>
<polyline clip-path="url(#clip002)" style="stroke:#000000; stroke-linecap:round; stroke-linejoin:round; stroke-width:2; stroke-opacity:0.1; fill:none" points="1482.51,1423.18 1482.51,47.2441 "/>
<polyline clip-path="url(#clip002)" style="stroke:#000000; stroke-linecap:round; stroke-linejoin:round; stroke-width:2; stroke-opacity:0.1; fill:none" points="1887.84,1423.18 1887.84,47.2441 "/>
<polyline clip-path="url(#clip002)" style="stroke:#000000; stroke-linecap:round; stroke-linejoin:round; stroke-width:2; stroke-opacity:0.1; fill:none" points="2293.17,1423.18 2293.17,47.2441 "/>
<polyline clip-path="url(#clip000)" style="stroke:#000000; stroke-linecap:round; stroke-linejoin:round; stroke-width:4; stroke-opacity:1; fill:none" points="247.459,1423.18 2352.76,1423.18 "/>
<polyline clip-path="url(#clip000)" style="stroke:#000000; stroke-linecap:round; stroke-linejoin:round; stroke-width:4; stroke-opacity:1; fill:none" points="266.509,1423.18 266.509,1404.28 "/>
<polyline clip-path="url(#clip000)" style="stroke:#000000; stroke-linecap:round; stroke-linejoin:round; stroke-width:4; stroke-opacity:1; fill:none" points="671.842,1423.18 671.842,1404.28 "/>
<polyline clip-path="url(#clip000)" style="stroke:#000000; stroke-linecap:round; stroke-linejoin:round; stroke-width:4; stroke-opacity:1; fill:none" points="1077.17,1423.18 1077.17,1404.28 "/>
<polyline clip-path="url(#clip000)" style="stroke:#000000; stroke-linecap:round; stroke-linejoin:round; stroke-width:4; stroke-opacity:1; fill:none" points="1482.51,1423.18 1482.51,1404.28 "/>
<polyline clip-path="url(#clip000)" style="stroke:#000000; stroke-linecap:round; stroke-linejoin:round; stroke-width:4; stroke-opacity:1; fill:none" points="1887.84,1423.18 1887.84,1404.28 "/>
<polyline clip-path="url(#clip000)" style="stroke:#000000; stroke-linecap:round; stroke-linejoin:round; stroke-width:4; stroke-opacity:1; fill:none" points="2293.17,1423.18 2293.17,1404.28 "/>
<path clip-path="url(#clip000)" d="M266.509 1454.1 Q262.898 1454.1 261.07 1457.66 Q259.264 1461.2 259.264 1468.33 Q259.264 1475.44 261.07 1479.01 Q262.898 1482.55 266.509 1482.55 Q270.144 1482.55 271.949 1479.01 Q273.778 1475.44 273.778 1468.33 Q273.778 1461.2 271.949 1457.66 Q270.144 1454.1 266.509 1454.1 M266.509 1450.39 Q272.319 1450.39 275.375 1455 Q278.454 1459.58 278.454 1468.33 Q278.454 1477.06 275.375 1481.67 Q272.319 1486.25 266.509 1486.25 Q260.699 1486.25 257.62 1481.67 Q254.565 1477.06 254.565 1468.33 Q254.565 1459.58 257.62 1455 Q260.699 1450.39 266.509 1450.39 Z" fill="#000000" fill-rule="nonzero" fill-opacity="1" /><path clip-path="url(#clip000)" d="M646.53 1481.64 L654.168 1481.64 L654.168 1455.28 L645.858 1456.95 L645.858 1452.69 L654.122 1451.02 L658.798 1451.02 L658.798 1481.64 L666.437 1481.64 L666.437 1485.58 L646.53 1485.58 L646.53 1481.64 Z" fill="#000000" fill-rule="nonzero" fill-opacity="1" /><path clip-path="url(#clip000)" d="M685.881 1454.1 Q682.27 1454.1 680.441 1457.66 Q678.636 1461.2 678.636 1468.33 Q678.636 1475.44 680.441 1479.01 Q682.27 1482.55 685.881 1482.55 Q689.515 1482.55 691.321 1479.01 Q693.15 1475.44 693.15 1468.33 Q693.15 1461.2 691.321 1457.66 Q689.515 1454.1 685.881 1454.1 M685.881 1450.39 Q691.691 1450.39 694.747 1455 Q697.826 1459.58 697.826 1468.33 Q697.826 1477.06 694.747 1481.67 Q691.691 1486.25 685.881 1486.25 Q680.071 1486.25 676.992 1481.67 Q673.937 1477.06 673.937 1468.33 Q673.937 1459.58 676.992 1455 Q680.071 1450.39 685.881 1450.39 Z" fill="#000000" fill-rule="nonzero" fill-opacity="1" /><path clip-path="url(#clip000)" d="M1055.95 1481.64 L1072.27 1481.64 L1072.27 1485.58 L1050.32 1485.58 L1050.32 1481.64 Q1052.98 1478.89 1057.57 1474.26 Q1062.17 1469.61 1063.36 1468.27 Q1065.6 1465.74 1066.48 1464.01 Q1067.38 1462.25 1067.38 1460.56 Q1067.38 1457.8 1065.44 1456.07 Q1063.52 1454.33 1060.42 1454.33 Q1058.22 1454.33 1055.76 1455.09 Q1053.33 1455.86 1050.55 1457.41 L1050.55 1452.69 Q1053.38 1451.55 1055.83 1450.97 Q1058.29 1450.39 1060.32 1450.39 Q1065.69 1450.39 1068.89 1453.08 Q1072.08 1455.77 1072.08 1460.26 Q1072.08 1462.39 1071.27 1464.31 Q1070.48 1466.2 1068.38 1468.8 Q1067.8 1469.47 1064.7 1472.69 Q1061.6 1475.88 1055.95 1481.64 Z" fill="#000000" fill-rule="nonzero" fill-opacity="1" /><path clip-path="url(#clip000)" d="M1092.08 1454.1 Q1088.47 1454.1 1086.64 1457.66 Q1084.84 1461.2 1084.84 1468.33 Q1084.84 1475.44 1086.64 1479.01 Q1088.47 1482.55 1092.08 1482.55 Q1095.72 1482.55 1097.52 1479.01 Q1099.35 1475.44 1099.35 1468.33 Q1099.35 1461.2 1097.52 1457.66 Q1095.72 1454.1 1092.08 1454.1 M1092.08 1450.39 Q1097.89 1450.39 1100.95 1455 Q1104.03 1459.58 1104.03 1468.33 Q1104.03 1477.06 1100.95 1481.67 Q1097.89 1486.25 1092.08 1486.25 Q1086.27 1486.25 1083.19 1481.67 Q1080.14 1477.06 1080.14 1468.33 Q1080.14 1459.58 1083.19 1455 Q1086.27 1450.39 1092.08 1450.39 Z" fill="#000000" fill-rule="nonzero" fill-opacity="1" /><path clip-path="url(#clip000)" d="M1471.35 1466.95 Q1474.71 1467.66 1476.58 1469.93 Q1478.48 1472.2 1478.48 1475.53 Q1478.48 1480.65 1474.96 1483.45 Q1471.44 1486.25 1464.96 1486.25 Q1462.78 1486.25 1460.47 1485.81 Q1458.18 1485.39 1455.72 1484.54 L1455.72 1480.02 Q1457.67 1481.16 1459.98 1481.74 Q1462.3 1482.32 1464.82 1482.32 Q1469.22 1482.32 1471.51 1480.58 Q1473.83 1478.84 1473.83 1475.53 Q1473.83 1472.48 1471.67 1470.77 Q1469.54 1469.03 1465.72 1469.03 L1461.7 1469.03 L1461.7 1465.19 L1465.91 1465.19 Q1469.36 1465.19 1471.19 1463.82 Q1473.02 1462.43 1473.02 1459.84 Q1473.02 1457.18 1471.12 1455.77 Q1469.24 1454.33 1465.72 1454.33 Q1463.8 1454.33 1461.6 1454.75 Q1459.41 1455.16 1456.77 1456.04 L1456.77 1451.88 Q1459.43 1451.14 1461.74 1450.77 Q1464.08 1450.39 1466.14 1450.39 Q1471.47 1450.39 1474.57 1452.83 Q1477.67 1455.23 1477.67 1459.35 Q1477.67 1462.22 1476.03 1464.21 Q1474.38 1466.18 1471.35 1466.95 Z" fill="#000000" fill-rule="nonzero" fill-opacity="1" /><path clip-path="url(#clip000)" d="M1497.34 1454.1 Q1493.73 1454.1 1491.91 1457.66 Q1490.1 1461.2 1490.1 1468.33 Q1490.1 1475.44 1491.91 1479.01 Q1493.73 1482.55 1497.34 1482.55 Q1500.98 1482.55 1502.78 1479.01 Q1504.61 1475.44 1504.61 1468.33 Q1504.61 1461.2 1502.78 1457.66 Q1500.98 1454.1 1497.34 1454.1 M1497.34 1450.39 Q1503.15 1450.39 1506.21 1455 Q1509.29 1459.58 1509.29 1468.33 Q1509.29 1477.06 1506.21 1481.67 Q1503.15 1486.25 1497.34 1486.25 Q1491.53 1486.25 1488.46 1481.67 Q1485.4 1477.06 1485.4 1468.33 Q1485.4 1459.58 1488.46 1455 Q1491.53 1450.39 1497.34 1450.39 Z" fill="#000000" fill-rule="nonzero" fill-opacity="1" /><path clip-path="url(#clip000)" d="M1876.01 1455.09 L1864.21 1473.54 L1876.01 1473.54 L1876.01 1455.09 M1874.78 1451.02 L1880.66 1451.02 L1880.66 1473.54 L1885.59 1473.54 L1885.59 1477.43 L1880.66 1477.43 L1880.66 1485.58 L1876.01 1485.58 L1876.01 1477.43 L1860.41 1477.43 L1860.41 1472.92 L1874.78 1451.02 Z" fill="#000000" fill-rule="nonzero" fill-opacity="1" /><path clip-path="url(#clip000)" d="M1903.33 1454.1 Q1899.71 1454.1 1897.89 1457.66 Q1896.08 1461.2 1896.08 1468.33 Q1896.08 1475.44 1897.89 1479.01 Q1899.71 1482.55 1903.33 1482.55 Q1906.96 1482.55 1908.77 1479.01 Q1910.59 1475.44 1910.59 1468.33 Q1910.59 1461.2 1908.77 1457.66 Q1906.96 1454.1 1903.33 1454.1 M1903.33 1450.39 Q1909.14 1450.39 1912.19 1455 Q1915.27 1459.58 1915.27 1468.33 Q1915.27 1477.06 1912.19 1481.67 Q1909.14 1486.25 1903.33 1486.25 Q1897.52 1486.25 1894.44 1481.67 Q1891.38 1477.06 1891.38 1468.33 Q1891.38 1459.58 1894.44 1455 Q1897.52 1450.39 1903.33 1450.39 Z" fill="#000000" fill-rule="nonzero" fill-opacity="1" /><path clip-path="url(#clip000)" d="M2267.87 1451.02 L2286.23 1451.02 L2286.23 1454.96 L2272.15 1454.96 L2272.15 1463.43 Q2273.17 1463.08 2274.19 1462.92 Q2275.21 1462.73 2276.23 1462.73 Q2282.01 1462.73 2285.39 1465.9 Q2288.77 1469.08 2288.77 1474.49 Q2288.77 1480.07 2285.3 1483.17 Q2281.83 1486.25 2275.51 1486.25 Q2273.33 1486.25 2271.07 1485.88 Q2268.82 1485.51 2266.41 1484.77 L2266.41 1480.07 Q2268.5 1481.2 2270.72 1481.76 Q2272.94 1482.32 2275.42 1482.32 Q2279.42 1482.32 2281.76 1480.21 Q2284.1 1478.1 2284.1 1474.49 Q2284.1 1470.88 2281.76 1468.77 Q2279.42 1466.67 2275.42 1466.67 Q2273.54 1466.67 2271.67 1467.08 Q2269.82 1467.5 2267.87 1468.38 L2267.87 1451.02 Z" fill="#000000" fill-rule="nonzero" fill-opacity="1" /><path clip-path="url(#clip000)" d="M2307.99 1454.1 Q2304.38 1454.1 2302.55 1457.66 Q2300.74 1461.2 2300.74 1468.33 Q2300.74 1475.44 2302.55 1479.01 Q2304.38 1482.55 2307.99 1482.55 Q2311.62 1482.55 2313.43 1479.01 Q2315.26 1475.44 2315.26 1468.33 Q2315.26 1461.2 2313.43 1457.66 Q2311.62 1454.1 2307.99 1454.1 M2307.99 1450.39 Q2313.8 1450.39 2316.85 1455 Q2319.93 1459.58 2319.93 1468.33 Q2319.93 1477.06 2316.85 1481.67 Q2313.8 1486.25 2307.99 1486.25 Q2302.18 1486.25 2299.1 1481.67 Q2296.04 1477.06 2296.04 1468.33 Q2296.04 1459.58 2299.1 1455 Q2302.18 1450.39 2307.99 1450.39 Z" fill="#000000" fill-rule="nonzero" fill-opacity="1" /><path clip-path="url(#clip000)" d="M1164.39 1525.81 L1164.39 1562.76 L1172.16 1562.76 Q1181.99 1562.76 1186.54 1558.3 Q1191.13 1553.85 1191.13 1544.24 Q1191.13 1534.69 1186.54 1530.26 Q1181.99 1525.81 1172.16 1525.81 L1164.39 1525.81 M1157.96 1520.52 L1171.17 1520.52 Q1184.98 1520.52 1191.44 1526.28 Q1197.91 1532.01 1197.91 1544.24 Q1197.91 1556.52 1191.41 1562.28 Q1184.92 1568.04 1171.17 1568.04 L1157.96 1568.04 L1157.96 1520.52 Z" fill="#000000" fill-rule="nonzero" fill-opacity="1" /><path clip-path="url(#clip000)" d="M1207.9 1532.4 L1213.76 1532.4 L1213.76 1568.04 L1207.9 1568.04 L1207.9 1532.4 M1207.9 1518.52 L1213.76 1518.52 L1213.76 1525.93 L1207.9 1525.93 L1207.9 1518.52 Z" fill="#000000" fill-rule="nonzero" fill-opacity="1" /><path clip-path="url(#clip000)" d="M1248.74 1533.45 L1248.74 1538.98 Q1246.25 1537.71 1243.58 1537.07 Q1240.91 1536.44 1238.04 1536.44 Q1233.68 1536.44 1231.48 1537.77 Q1229.32 1539.11 1229.32 1541.79 Q1229.32 1543.82 1230.88 1545 Q1232.44 1546.15 1237.15 1547.2 L1239.16 1547.64 Q1245.39 1548.98 1248 1551.43 Q1250.65 1553.85 1250.65 1558.21 Q1250.65 1563.17 1246.7 1566.07 Q1242.78 1568.97 1235.91 1568.97 Q1233.04 1568.97 1229.93 1568.39 Q1226.84 1567.85 1223.4 1566.74 L1223.4 1560.69 Q1226.65 1562.38 1229.8 1563.24 Q1232.95 1564.07 1236.04 1564.07 Q1240.17 1564.07 1242.4 1562.66 Q1244.63 1561.23 1244.63 1558.65 Q1244.63 1556.27 1243.01 1554.99 Q1241.42 1553.72 1235.97 1552.54 L1233.94 1552.07 Q1228.49 1550.92 1226.07 1548.56 Q1223.66 1546.18 1223.66 1542.04 Q1223.66 1537.01 1227.22 1534.27 Q1230.78 1531.54 1237.34 1531.54 Q1240.59 1531.54 1243.45 1532.01 Q1246.32 1532.49 1248.74 1533.45 Z" fill="#000000" fill-rule="nonzero" fill-opacity="1" /><path clip-path="url(#clip000)" d="M1265.64 1562.7 L1265.64 1581.6 L1259.75 1581.6 L1259.75 1532.4 L1265.64 1532.4 L1265.64 1537.81 Q1267.48 1534.62 1270.28 1533.1 Q1273.12 1531.54 1277.03 1531.54 Q1283.52 1531.54 1287.57 1536.69 Q1291.64 1541.85 1291.64 1550.25 Q1291.64 1558.65 1287.57 1563.81 Q1283.52 1568.97 1277.03 1568.97 Q1273.12 1568.97 1270.28 1567.44 Q1267.48 1565.88 1265.64 1562.7 M1285.56 1550.25 Q1285.56 1543.79 1282.89 1540.13 Q1280.25 1536.44 1275.6 1536.44 Q1270.95 1536.44 1268.28 1540.13 Q1265.64 1543.79 1265.64 1550.25 Q1265.64 1556.71 1268.28 1560.4 Q1270.95 1564.07 1275.6 1564.07 Q1280.25 1564.07 1282.89 1560.4 Q1285.56 1556.71 1285.56 1550.25 Z" fill="#000000" fill-rule="nonzero" fill-opacity="1" /><path clip-path="url(#clip000)" d="M1317.55 1550.12 Q1310.45 1550.12 1307.71 1551.75 Q1304.98 1553.37 1304.98 1557.29 Q1304.98 1560.4 1307.01 1562.25 Q1309.08 1564.07 1312.62 1564.07 Q1317.49 1564.07 1320.41 1560.63 Q1323.37 1557.16 1323.37 1551.43 L1323.37 1550.12 L1317.55 1550.12 M1329.23 1547.71 L1329.23 1568.04 L1323.37 1568.04 L1323.37 1562.63 Q1321.37 1565.88 1318.38 1567.44 Q1315.39 1568.97 1311.06 1568.97 Q1305.58 1568.97 1302.34 1565.91 Q1299.12 1562.82 1299.12 1557.67 Q1299.12 1551.65 1303.13 1548.6 Q1307.17 1545.54 1315.16 1545.54 L1323.37 1545.54 L1323.37 1544.97 Q1323.37 1540.93 1320.7 1538.73 Q1318.06 1536.5 1313.25 1536.5 Q1310.2 1536.5 1307.3 1537.23 Q1304.4 1537.97 1301.73 1539.43 L1301.73 1534.02 Q1304.95 1532.78 1307.97 1532.17 Q1310.99 1531.54 1313.86 1531.54 Q1321.59 1531.54 1325.41 1535.55 Q1329.23 1539.56 1329.23 1547.71 Z" fill="#000000" fill-rule="nonzero" fill-opacity="1" /><path clip-path="url(#clip000)" d="M1361.95 1537.87 Q1360.96 1537.3 1359.79 1537.04 Q1358.64 1536.76 1357.24 1536.76 Q1352.27 1536.76 1349.6 1540 Q1346.96 1543.22 1346.96 1549.27 L1346.96 1568.04 L1341.07 1568.04 L1341.07 1532.4 L1346.96 1532.4 L1346.96 1537.93 Q1348.8 1534.69 1351.77 1533.13 Q1354.73 1531.54 1358.96 1531.54 Q1359.56 1531.54 1360.3 1531.63 Q1361.03 1531.7 1361.92 1531.85 L1361.95 1537.87 Z" fill="#000000" fill-rule="nonzero" fill-opacity="1" /><path clip-path="url(#clip000)" d="M1368.09 1532.4 L1373.95 1532.4 L1373.95 1568.04 L1368.09 1568.04 L1368.09 1532.4 M1368.09 1518.52 L1373.95 1518.52 L1373.95 1525.93 L1368.09 1525.93 L1368.09 1518.52 Z" fill="#000000" fill-rule="nonzero" fill-opacity="1" /><path clip-path="url(#clip000)" d="M1392 1522.27 L1392 1532.4 L1404.06 1532.4 L1404.06 1536.95 L1392 1536.95 L1392 1556.3 Q1392 1560.66 1393.17 1561.9 Q1394.38 1563.14 1398.04 1563.14 L1404.06 1563.14 L1404.06 1568.04 L1398.04 1568.04 Q1391.26 1568.04 1388.69 1565.53 Q1386.11 1562.98 1386.11 1556.3 L1386.11 1536.95 L1381.81 1536.95 L1381.81 1532.4 L1386.11 1532.4 L1386.11 1522.27 L1392 1522.27 Z" fill="#000000" fill-rule="nonzero" fill-opacity="1" /><path clip-path="url(#clip000)" d="M1426.59 1571.35 Q1424.11 1577.72 1421.76 1579.66 Q1419.4 1581.6 1415.45 1581.6 L1410.78 1581.6 L1410.78 1576.7 L1414.21 1576.7 Q1416.63 1576.7 1417.97 1575.56 Q1419.31 1574.41 1420.93 1570.14 L1421.98 1567.47 L1407.56 1532.4 L1413.77 1532.4 L1424.91 1560.28 L1436.05 1532.4 L1442.25 1532.4 L1426.59 1571.35 Z" fill="#000000" fill-rule="nonzero" fill-opacity="1" /><polyline clip-path="url(#clip002)" style="stroke:#000000; stroke-linecap:round; stroke-linejoin:round; stroke-width:2; stroke-opacity:0.1; fill:none" points="247.459,1410.73 2352.76,1410.73 "/>
<polyline clip-path="url(#clip002)" style="stroke:#000000; stroke-linecap:round; stroke-linejoin:round; stroke-width:2; stroke-opacity:0.1; fill:none" points="247.459,1079.59 2352.76,1079.59 "/>
<polyline clip-path="url(#clip002)" style="stroke:#000000; stroke-linecap:round; stroke-linejoin:round; stroke-width:2; stroke-opacity:0.1; fill:none" points="247.459,748.457 2352.76,748.457 "/>
<polyline clip-path="url(#clip002)" style="stroke:#000000; stroke-linecap:round; stroke-linejoin:round; stroke-width:2; stroke-opacity:0.1; fill:none" points="247.459,417.322 2352.76,417.322 "/>
<polyline clip-path="url(#clip002)" style="stroke:#000000; stroke-linecap:round; stroke-linejoin:round; stroke-width:2; stroke-opacity:0.1; fill:none" points="247.459,86.1857 2352.76,86.1857 "/>
<polyline clip-path="url(#clip000)" style="stroke:#000000; stroke-linecap:round; stroke-linejoin:round; stroke-width:4; stroke-opacity:1; fill:none" points="247.459,1423.18 247.459,47.2441 "/>
<polyline clip-path="url(#clip000)" style="stroke:#000000; stroke-linecap:round; stroke-linejoin:round; stroke-width:4; stroke-opacity:1; fill:none" points="247.459,1410.73 266.356,1410.73 "/>
<polyline clip-path="url(#clip000)" style="stroke:#000000; stroke-linecap:round; stroke-linejoin:round; stroke-width:4; stroke-opacity:1; fill:none" points="247.459,1079.59 266.356,1079.59 "/>
<polyline clip-path="url(#clip000)" style="stroke:#000000; stroke-linecap:round; stroke-linejoin:round; stroke-width:4; stroke-opacity:1; fill:none" points="247.459,748.457 266.356,748.457 "/>
<polyline clip-path="url(#clip000)" style="stroke:#000000; stroke-linecap:round; stroke-linejoin:round; stroke-width:4; stroke-opacity:1; fill:none" points="247.459,417.322 266.356,417.322 "/>
<polyline clip-path="url(#clip000)" style="stroke:#000000; stroke-linecap:round; stroke-linejoin:round; stroke-width:4; stroke-opacity:1; fill:none" points="247.459,86.1857 266.356,86.1857 "/>
<path clip-path="url(#clip000)" d="M154.283 1396.53 Q150.672 1396.53 148.843 1400.09 Q147.038 1403.63 147.038 1410.76 Q147.038 1417.87 148.843 1421.44 Q150.672 1424.98 154.283 1424.98 Q157.917 1424.98 159.723 1421.44 Q161.552 1417.87 161.552 1410.76 Q161.552 1403.63 159.723 1400.09 Q157.917 1396.53 154.283 1396.53 M154.283 1392.82 Q160.093 1392.82 163.149 1397.43 Q166.227 1402.01 166.227 1410.76 Q166.227 1419.49 163.149 1424.1 Q160.093 1428.68 154.283 1428.68 Q148.473 1428.68 145.394 1424.1 Q142.339 1419.49 142.339 1410.76 Q142.339 1402.01 145.394 1397.43 Q148.473 1392.82 154.283 1392.82 Z" fill="#000000" fill-rule="nonzero" fill-opacity="1" /><path clip-path="url(#clip000)" d="M174.445 1422.13 L179.329 1422.13 L179.329 1428.01 L174.445 1428.01 L174.445 1422.13 Z" fill="#000000" fill-rule="nonzero" fill-opacity="1" /><path clip-path="url(#clip000)" d="M199.514 1396.53 Q195.903 1396.53 194.075 1400.09 Q192.269 1403.63 192.269 1410.76 Q192.269 1417.87 194.075 1421.44 Q195.903 1424.98 199.514 1424.98 Q203.149 1424.98 204.954 1421.44 Q206.783 1417.87 206.783 1410.76 Q206.783 1403.63 204.954 1400.09 Q203.149 1396.53 199.514 1396.53 M199.514 1392.82 Q205.324 1392.82 208.38 1397.43 Q211.459 1402.01 211.459 1410.76 Q211.459 1419.49 208.38 1424.1 Q205.324 1428.68 199.514 1428.68 Q193.704 1428.68 190.625 1424.1 Q187.57 1419.49 187.57 1410.76 Q187.57 1402.01 190.625 1397.43 Q193.704 1392.82 199.514 1392.82 Z" fill="#000000" fill-rule="nonzero" fill-opacity="1" /><path clip-path="url(#clip000)" d="M149.306 1092.94 L165.626 1092.94 L165.626 1096.87 L143.681 1096.87 L143.681 1092.94 Q146.343 1090.18 150.927 1085.55 Q155.533 1080.9 156.714 1079.56 Q158.959 1077.04 159.839 1075.3 Q160.741 1073.54 160.741 1071.85 Q160.741 1069.1 158.797 1067.36 Q156.876 1065.62 153.774 1065.62 Q151.575 1065.62 149.121 1066.39 Q146.691 1067.15 143.913 1068.7 L143.913 1063.98 Q146.737 1062.85 149.191 1062.27 Q151.644 1061.69 153.681 1061.69 Q159.052 1061.69 162.246 1064.37 Q165.44 1067.06 165.44 1071.55 Q165.44 1073.68 164.63 1075.6 Q163.843 1077.5 161.737 1080.09 Q161.158 1080.76 158.056 1083.98 Q154.954 1087.17 149.306 1092.94 Z" fill="#000000" fill-rule="nonzero" fill-opacity="1" /><path clip-path="url(#clip000)" d="M175.44 1090.99 L180.325 1090.99 L180.325 1096.87 L175.44 1096.87 L175.44 1090.99 Z" fill="#000000" fill-rule="nonzero" fill-opacity="1" /><path clip-path="url(#clip000)" d="M190.556 1062.31 L208.912 1062.31 L208.912 1066.25 L194.838 1066.25 L194.838 1074.72 Q195.857 1074.37 196.875 1074.21 Q197.894 1074.03 198.912 1074.03 Q204.699 1074.03 208.079 1077.2 Q211.459 1080.37 211.459 1085.79 Q211.459 1091.36 207.987 1094.47 Q204.514 1097.54 198.195 1097.54 Q196.019 1097.54 193.75 1097.17 Q191.505 1096.8 189.098 1096.06 L189.098 1091.36 Q191.181 1092.5 193.403 1093.05 Q195.625 1093.61 198.102 1093.61 Q202.107 1093.61 204.445 1091.5 Q206.783 1089.4 206.783 1085.79 Q206.783 1082.17 204.445 1080.07 Q202.107 1077.96 198.102 1077.96 Q196.227 1077.96 194.352 1078.38 Q192.5 1078.79 190.556 1079.67 L190.556 1062.31 Z" fill="#000000" fill-rule="nonzero" fill-opacity="1" /><path clip-path="url(#clip000)" d="M144.329 731.177 L162.686 731.177 L162.686 735.113 L148.612 735.113 L148.612 743.585 Q149.63 743.238 150.649 743.075 Q151.667 742.89 152.686 742.89 Q158.473 742.89 161.852 746.062 Q165.232 749.233 165.232 754.649 Q165.232 760.228 161.76 763.33 Q158.288 766.409 151.968 766.409 Q149.792 766.409 147.524 766.038 Q145.279 765.668 142.871 764.927 L142.871 760.228 Q144.954 761.362 147.177 761.918 Q149.399 762.474 151.876 762.474 Q155.88 762.474 158.218 760.367 Q160.556 758.261 160.556 754.649 Q160.556 751.038 158.218 748.932 Q155.88 746.825 151.876 746.825 Q150.001 746.825 148.126 747.242 Q146.274 747.659 144.329 748.538 L144.329 731.177 Z" fill="#000000" fill-rule="nonzero" fill-opacity="1" /><path clip-path="url(#clip000)" d="M174.445 759.858 L179.329 759.858 L179.329 765.737 L174.445 765.737 L174.445 759.858 Z" fill="#000000" fill-rule="nonzero" fill-opacity="1" /><path clip-path="url(#clip000)" d="M199.514 734.256 Q195.903 734.256 194.075 737.821 Q192.269 741.363 192.269 748.492 Q192.269 755.599 194.075 759.163 Q195.903 762.705 199.514 762.705 Q203.149 762.705 204.954 759.163 Q206.783 755.599 206.783 748.492 Q206.783 741.363 204.954 737.821 Q203.149 734.256 199.514 734.256 M199.514 730.552 Q205.324 730.552 208.38 735.159 Q211.459 739.742 211.459 748.492 Q211.459 757.219 208.38 761.825 Q205.324 766.409 199.514 766.409 Q193.704 766.409 190.625 761.825 Q187.57 757.219 187.57 748.492 Q187.57 739.742 190.625 735.159 Q193.704 730.552 199.514 730.552 Z" fill="#000000" fill-rule="nonzero" fill-opacity="1" /><path clip-path="url(#clip000)" d="M144.098 400.042 L166.32 400.042 L166.32 402.032 L153.774 434.602 L148.89 434.602 L160.695 403.977 L144.098 403.977 L144.098 400.042 Z" fill="#000000" fill-rule="nonzero" fill-opacity="1" /><path clip-path="url(#clip000)" d="M175.44 428.722 L180.325 428.722 L180.325 434.602 L175.44 434.602 L175.44 428.722 Z" fill="#000000" fill-rule="nonzero" fill-opacity="1" /><path clip-path="url(#clip000)" d="M190.556 400.042 L208.912 400.042 L208.912 403.977 L194.838 403.977 L194.838 412.449 Q195.857 412.102 196.875 411.94 Q197.894 411.754 198.912 411.754 Q204.699 411.754 208.079 414.926 Q211.459 418.097 211.459 423.514 Q211.459 429.092 207.987 432.194 Q204.514 435.273 198.195 435.273 Q196.019 435.273 193.75 434.902 Q191.505 434.532 189.098 433.791 L189.098 429.092 Q191.181 430.227 193.403 430.782 Q195.625 431.338 198.102 431.338 Q202.107 431.338 204.445 429.231 Q206.783 427.125 206.783 423.514 Q206.783 419.903 204.445 417.796 Q202.107 415.69 198.102 415.69 Q196.227 415.69 194.352 416.106 Q192.5 416.523 190.556 417.403 L190.556 400.042 Z" fill="#000000" fill-rule="nonzero" fill-opacity="1" /><path clip-path="url(#clip000)" d="M114.931 99.5305 L122.57 99.5305 L122.57 73.1649 L114.26 74.8316 L114.26 70.5723 L122.524 68.9057 L127.2 68.9057 L127.2 99.5305 L134.839 99.5305 L134.839 103.466 L114.931 103.466 L114.931 99.5305 Z" fill="#000000" fill-rule="nonzero" fill-opacity="1" /><path clip-path="url(#clip000)" d="M154.283 71.9844 Q150.672 71.9844 148.843 75.5492 Q147.038 79.0908 147.038 86.2204 Q147.038 93.3268 148.843 96.8916 Q150.672 100.433 154.283 100.433 Q157.917 100.433 159.723 96.8916 Q161.552 93.3268 161.552 86.2204 Q161.552 79.0908 159.723 75.5492 Q157.917 71.9844 154.283 71.9844 M154.283 68.2807 Q160.093 68.2807 163.149 72.8871 Q166.227 77.4704 166.227 86.2204 Q166.227 94.9472 163.149 99.5537 Q160.093 104.137 154.283 104.137 Q148.473 104.137 145.394 99.5537 Q142.339 94.9472 142.339 86.2204 Q142.339 77.4704 145.394 72.8871 Q148.473 68.2807 154.283 68.2807 Z" fill="#000000" fill-rule="nonzero" fill-opacity="1" /><path clip-path="url(#clip000)" d="M174.445 97.5861 L179.329 97.5861 L179.329 103.466 L174.445 103.466 L174.445 97.5861 Z" fill="#000000" fill-rule="nonzero" fill-opacity="1" /><path clip-path="url(#clip000)" d="M199.514 71.9844 Q195.903 71.9844 194.075 75.5492 Q192.269 79.0908 192.269 86.2204 Q192.269 93.3268 194.075 96.8916 Q195.903 100.433 199.514 100.433 Q203.149 100.433 204.954 96.8916 Q206.783 93.3268 206.783 86.2204 Q206.783 79.0908 204.954 75.5492 Q203.149 71.9844 199.514 71.9844 M199.514 68.2807 Q205.324 68.2807 208.38 72.8871 Q211.459 77.4704 211.459 86.2204 Q211.459 94.9472 208.38 99.5537 Q205.324 104.137 199.514 104.137 Q193.704 104.137 190.625 99.5537 Q187.57 94.9472 187.57 86.2204 Q187.57 77.4704 190.625 72.8871 Q193.704 68.2807 199.514 68.2807 Z" fill="#000000" fill-rule="nonzero" fill-opacity="1" /><path clip-path="url(#clip000)" d="M21.7677 950.755 L58.7206 950.755 L58.7206 942.989 Q58.7206 933.154 54.2646 928.602 Q49.8086 924.019 40.1964 924.019 Q30.6479 924.019 26.2237 928.602 Q21.7677 933.154 21.7677 942.989 L21.7677 950.755 M16.4842 957.184 L16.4842 943.975 Q16.4842 930.162 22.2451 923.701 Q27.9743 917.239 40.1964 917.239 Q52.4822 917.239 58.2432 923.732 Q64.0042 930.225 64.0042 943.975 L64.0042 957.184 L16.4842 957.184 Z" fill="#000000" fill-rule="nonzero" fill-opacity="1" /><path clip-path="url(#clip000)" d="M28.3562 907.245 L28.3562 901.389 L64.0042 901.389 L64.0042 907.245 L28.3562 907.245 M14.479 907.245 L14.479 901.389 L21.895 901.389 L21.895 907.245 L14.479 907.245 Z" fill="#000000" fill-rule="nonzero" fill-opacity="1" /><path clip-path="url(#clip000)" d="M29.4065 866.409 L34.9447 866.409 Q33.6716 868.892 33.035 871.565 Q32.3984 874.239 32.3984 877.104 Q32.3984 881.464 33.7352 883.66 Q35.072 885.825 37.7456 885.825 Q39.7826 885.825 40.9603 884.265 Q42.1061 882.705 43.1565 877.995 L43.6021 875.99 Q44.9389 869.751 47.3897 867.141 Q49.8086 864.499 54.1691 864.499 Q59.1344 864.499 62.0308 868.446 Q64.9272 872.361 64.9272 879.236 Q64.9272 882.101 64.3543 885.22 Q63.8132 888.307 62.6992 891.745 L56.6518 891.745 Q58.3387 888.498 59.198 885.347 Q60.0256 882.196 60.0256 879.109 Q60.0256 874.971 58.6251 872.743 Q57.1929 870.515 54.6147 870.515 Q52.2276 870.515 50.9545 872.138 Q49.6813 873.73 48.5037 879.172 L48.0262 881.209 Q46.8804 886.652 44.5251 889.071 Q42.138 891.49 38.0002 891.49 Q32.9713 891.49 30.2341 887.925 Q27.4968 884.36 27.4968 877.804 Q27.4968 874.557 27.9743 871.693 Q28.4517 868.828 29.4065 866.409 Z" fill="#000000" fill-rule="nonzero" fill-opacity="1" /><path clip-path="url(#clip000)" d="M18.2347 849.381 L28.3562 849.381 L28.3562 837.318 L32.9077 837.318 L32.9077 849.381 L52.2594 849.381 Q56.6199 849.381 57.8613 848.203 Q59.1026 846.994 59.1026 843.333 L59.1026 837.318 L64.0042 837.318 L64.0042 843.333 Q64.0042 850.113 61.4897 852.691 Q58.9434 855.269 52.2594 855.269 L32.9077 855.269 L32.9077 859.566 L28.3562 859.566 L28.3562 855.269 L18.2347 855.269 L18.2347 849.381 Z" fill="#000000" fill-rule="nonzero" fill-opacity="1" /><path clip-path="url(#clip000)" d="M46.0847 813.415 Q46.0847 820.512 47.7079 823.25 Q49.3312 825.987 53.2461 825.987 Q56.3653 825.987 58.2114 823.95 Q60.0256 821.881 60.0256 818.348 Q60.0256 813.478 56.5881 810.55 Q53.1188 807.59 47.3897 807.59 L46.0847 807.59 L46.0847 813.415 M43.6657 801.734 L64.0042 801.734 L64.0042 807.59 L58.5933 807.59 Q61.8398 809.595 63.3994 812.587 Q64.9272 815.579 64.9272 819.908 Q64.9272 825.382 61.8716 828.629 Q58.7843 831.843 53.6281 831.843 Q47.6125 831.843 44.5569 827.833 Q41.5014 823.791 41.5014 815.802 L41.5014 807.59 L40.9285 807.59 Q36.8862 807.59 34.6901 810.264 Q32.4621 812.905 32.4621 817.712 Q32.4621 820.767 33.1941 823.663 Q33.9262 826.56 35.3903 829.233 L29.9795 829.233 Q28.7381 826.019 28.1334 822.995 Q27.4968 819.971 27.4968 817.107 Q27.4968 809.372 31.5072 805.553 Q35.5176 801.734 43.6657 801.734 Z" fill="#000000" fill-rule="nonzero" fill-opacity="1" /><path clip-path="url(#clip000)" d="M42.4881 760.038 L64.0042 760.038 L64.0042 765.895 L42.679 765.895 Q37.6183 765.895 35.1038 767.868 Q32.5894 769.841 32.5894 773.788 Q32.5894 778.531 35.6131 781.268 Q38.6368 784.005 43.8567 784.005 L64.0042 784.005 L64.0042 789.893 L28.3562 789.893 L28.3562 784.005 L33.8944 784.005 Q30.6797 781.904 29.0883 779.072 Q27.4968 776.207 27.4968 772.483 Q27.4968 766.34 31.3163 763.189 Q35.1038 760.038 42.4881 760.038 Z" fill="#000000" fill-rule="nonzero" fill-opacity="1" /><path clip-path="url(#clip000)" d="M29.7248 722.703 L35.1993 722.703 Q33.8307 725.186 33.1623 727.7 Q32.4621 730.183 32.4621 732.729 Q32.4621 738.427 36.0905 741.578 Q39.6872 744.729 46.212 744.729 Q52.7369 744.729 56.3653 741.578 Q59.9619 738.427 59.9619 732.729 Q59.9619 730.183 59.2935 727.7 Q58.5933 725.186 57.2247 722.703 L62.6355 722.703 Q63.7814 725.154 64.3543 727.796 Q64.9272 730.406 64.9272 733.366 Q64.9272 741.419 59.8664 746.161 Q54.8057 750.903 46.212 750.903 Q37.491 750.903 32.4939 746.129 Q27.4968 741.323 27.4968 732.984 Q27.4968 730.279 28.0697 727.7 Q28.6108 725.122 29.7248 722.703 Z" fill="#000000" fill-rule="nonzero" fill-opacity="1" /><path clip-path="url(#clip000)" d="M44.7161 682.026 L47.5806 682.026 L47.5806 708.953 Q53.6281 708.571 56.8109 705.325 Q59.9619 702.047 59.9619 696.222 Q59.9619 692.848 59.1344 689.697 Q58.3069 686.514 56.6518 683.395 L62.1899 683.395 Q63.5267 686.546 64.227 689.856 Q64.9272 693.166 64.9272 696.572 Q64.9272 705.102 59.9619 710.099 Q54.9967 715.065 46.5303 715.065 Q37.7774 715.065 32.6531 710.354 Q27.4968 705.611 27.4968 697.591 Q27.4968 690.397 32.1438 686.228 Q36.7589 682.026 44.7161 682.026 M42.9973 687.883 Q38.1912 687.947 35.3266 690.588 Q32.4621 693.198 32.4621 697.527 Q32.4621 702.429 35.2312 705.389 Q38.0002 708.317 43.0292 708.762 L42.9973 687.883 Z" fill="#000000" fill-rule="nonzero" fill-opacity="1" /><path clip-path="url(#clip000)" d="M14.479 652.235 L14.479 638.74 L19.0304 638.74 L19.0304 646.379 L68.0464 646.379 L68.0464 638.74 L72.5979 638.74 L72.5979 652.235 L14.479 652.235 Z" fill="#000000" fill-rule="nonzero" fill-opacity="1" /><path clip-path="url(#clip000)" d="M29.7248 600.609 L35.1993 600.609 Q33.8307 603.092 33.1623 605.606 Q32.4621 608.089 32.4621 610.635 Q32.4621 616.332 36.0905 619.483 Q39.6872 622.634 46.212 622.634 Q52.7369 622.634 56.3653 619.483 Q59.9619 616.332 59.9619 610.635 Q59.9619 608.089 59.2935 605.606 Q58.5933 603.092 57.2247 600.609 L62.6355 600.609 Q63.7814 603.06 64.3543 605.702 Q64.9272 608.312 64.9272 611.272 Q64.9272 619.324 59.8664 624.067 Q54.8057 628.809 46.212 628.809 Q37.491 628.809 32.4939 624.035 Q27.4968 619.229 27.4968 610.89 Q27.4968 608.184 28.0697 605.606 Q28.6108 603.028 29.7248 600.609 Z" fill="#000000" fill-rule="nonzero" fill-opacity="1" /><path clip-path="url(#clip000)" d="M35.1993 562.669 Q31.2526 560.473 29.3747 557.418 Q27.4968 554.362 27.4968 550.225 Q27.4968 544.655 31.4117 541.631 Q35.2948 538.607 42.4881 538.607 L64.0042 538.607 L64.0042 544.495 L42.679 544.495 Q37.5546 544.495 35.072 546.31 Q32.5894 548.124 32.5894 551.848 Q32.5894 556.399 35.6131 559.041 Q38.6368 561.683 43.8567 561.683 L64.0042 561.683 L64.0042 567.571 L42.679 567.571 Q37.5228 567.571 35.072 569.385 Q32.5894 571.2 32.5894 574.987 Q32.5894 579.475 35.6449 582.117 Q38.6686 584.758 43.8567 584.758 L64.0042 584.758 L64.0042 590.647 L28.3562 590.647 L28.3562 584.758 L33.8944 584.758 Q30.616 582.753 29.0564 579.952 Q27.4968 577.151 27.4968 573.3 Q27.4968 569.417 29.4702 566.712 Q31.4436 563.974 35.1993 562.669 Z" fill="#000000" fill-rule="nonzero" fill-opacity="1" /><path clip-path="url(#clip000)" d="M14.479 513.24 L72.5979 513.24 L72.5979 526.735 L68.0464 526.735 L68.0464 519.128 L19.0304 519.128 L19.0304 526.735 L14.479 526.735 L14.479 513.24 Z" fill="#000000" fill-rule="nonzero" fill-opacity="1" /><polyline clip-path="url(#clip002)" style="stroke:#009af9; stroke-linecap:round; stroke-linejoin:round; stroke-width:4; stroke-opacity:1; fill:none" points="307.043,86.1857 347.576,748.457 388.109,969.215 428.642,1079.59 469.176,1145.82 509.709,1189.97 550.242,1221.51 590.775,1245.16 631.309,1263.56 671.842,1278.27 712.375,1290.32 752.908,1300.35 793.442,1308.84 833.975,1316.12 874.508,1322.43 915.041,1327.95 955.575,1332.81 996.108,1337.14 1036.64,1341.02 1077.17,1344.5 1117.71,1347.66 1158.24,1350.52 1198.77,1353.14 1239.31,1355.54 1279.84,1357.75 1320.37,1359.79 1360.91,1361.67 1401.44,1363.42 1441.97,1365.06 1482.51,1366.58 1523.04,1368 1563.57,1369.34 1604.11,1370.59 1644.64,1371.77 1685.17,1372.89 1725.71,1373.94 1766.24,1374.93 1806.77,1375.87 1847.31,1376.77 1887.84,1377.62 1928.37,1378.42 1968.91,1379.19 2009.44,1379.93 2049.97,1380.63 2090.51,1381.29 2131.04,1381.93 2171.57,1382.55 2212.11,1383.13 2252.64,1383.7 2293.17,1384.24 "/>
<path clip-path="url(#clip000)" d="M1749.18 196.789 L2282.58 196.789 L2282.58 93.1086 L1749.18 93.1086  Z" fill="#ffffff" fill-rule="evenodd" fill-opacity="1"/>
<polyline clip-path="url(#clip000)" style="stroke:#000000; stroke-linecap:round; stroke-linejoin:round; stroke-width:4; stroke-opacity:1; fill:none" points="1749.18,196.789 2282.58,196.789 2282.58,93.1086 1749.18,93.1086 1749.18,196.789 "/>
<polyline clip-path="url(#clip000)" style="stroke:#009af9; stroke-linecap:round; stroke-linejoin:round; stroke-width:4; stroke-opacity:1; fill:none" points="1772.57,144.949 1912.93,144.949 "/>
<path clip-path="url(#clip000)" d="M1940.99 131.511 L1940.99 158.386 L1946.64 158.386 Q1953.8 158.386 1957.11 155.145 Q1960.44 151.905 1960.44 144.914 Q1960.44 137.969 1957.11 134.752 Q1953.8 131.511 1946.64 131.511 L1940.99 131.511 M1936.32 127.669 L1945.92 127.669 Q1955.97 127.669 1960.67 131.858 Q1965.37 136.025 1965.37 144.914 Q1965.37 153.849 1960.65 158.039 Q1955.92 162.229 1945.92 162.229 L1936.32 162.229 L1936.32 127.669 Z" fill="#000000" fill-rule="nonzero" fill-opacity="1" /><path clip-path="url(#clip000)" d="M1972.64 136.303 L1976.9 136.303 L1976.9 162.229 L1972.64 162.229 L1972.64 136.303 M1972.64 126.21 L1976.9 126.21 L1976.9 131.604 L1972.64 131.604 L1972.64 126.21 Z" fill="#000000" fill-rule="nonzero" fill-opacity="1" /><path clip-path="url(#clip000)" d="M2002.34 137.067 L2002.34 141.094 Q2000.53 140.169 1998.59 139.706 Q1996.64 139.243 1994.56 139.243 Q1991.39 139.243 1989.79 140.215 Q1988.22 141.187 1988.22 143.131 Q1988.22 144.613 1989.35 145.469 Q1990.48 146.303 1993.91 147.067 L1995.37 147.391 Q1999.91 148.363 2001.8 150.145 Q2003.73 151.905 2003.73 155.076 Q2003.73 158.687 2000.86 160.793 Q1998.01 162.9 1993.01 162.9 Q1990.92 162.9 1988.66 162.483 Q1986.41 162.09 1983.91 161.28 L1983.91 156.881 Q1986.27 158.108 1988.56 158.733 Q1990.86 159.335 1993.1 159.335 Q1996.11 159.335 1997.73 158.317 Q1999.35 157.275 1999.35 155.4 Q1999.35 153.664 1998.17 152.738 Q1997.01 151.812 1993.05 150.956 L1991.57 150.608 Q1987.61 149.775 1985.86 148.062 Q1984.1 146.326 1984.1 143.317 Q1984.1 139.659 1986.69 137.669 Q1989.28 135.678 1994.05 135.678 Q1996.41 135.678 1998.49 136.025 Q2000.58 136.372 2002.34 137.067 Z" fill="#000000" fill-rule="nonzero" fill-opacity="1" /><path clip-path="url(#clip000)" d="M2014.72 128.942 L2014.72 136.303 L2023.49 136.303 L2023.49 139.613 L2014.72 139.613 L2014.72 153.687 Q2014.72 156.858 2015.58 157.761 Q2016.46 158.664 2019.12 158.664 L2023.49 158.664 L2023.49 162.229 L2019.12 162.229 Q2014.19 162.229 2012.31 160.4 Q2010.44 158.548 2010.44 153.687 L2010.44 139.613 L2007.31 139.613 L2007.31 136.303 L2010.44 136.303 L2010.44 128.942 L2014.72 128.942 Z" fill="#000000" fill-rule="nonzero" fill-opacity="1" /><path clip-path="url(#clip000)" d="M2040.88 149.196 Q2035.72 149.196 2033.73 150.377 Q2031.73 151.557 2031.73 154.405 Q2031.73 156.673 2033.22 158.016 Q2034.72 159.335 2037.29 159.335 Q2040.83 159.335 2042.96 156.835 Q2045.11 154.312 2045.11 150.145 L2045.11 149.196 L2040.88 149.196 M2049.37 147.437 L2049.37 162.229 L2045.11 162.229 L2045.11 158.293 Q2043.66 160.655 2041.48 161.789 Q2039.3 162.9 2036.16 162.9 Q2032.17 162.9 2029.81 160.678 Q2027.48 158.432 2027.48 154.682 Q2027.48 150.307 2030.39 148.085 Q2033.33 145.863 2039.14 145.863 L2045.11 145.863 L2045.11 145.446 Q2045.11 142.507 2043.17 140.909 Q2041.25 139.289 2037.75 139.289 Q2035.53 139.289 2033.42 139.821 Q2031.32 140.354 2029.37 141.419 L2029.37 137.483 Q2031.71 136.581 2033.91 136.141 Q2036.11 135.678 2038.19 135.678 Q2043.82 135.678 2046.6 138.594 Q2049.37 141.511 2049.37 147.437 Z" fill="#000000" fill-rule="nonzero" fill-opacity="1" /><path clip-path="url(#clip000)" d="M2079.7 146.581 L2079.7 162.229 L2075.44 162.229 L2075.44 146.719 Q2075.44 143.039 2074 141.21 Q2072.57 139.382 2069.7 139.382 Q2066.25 139.382 2064.26 141.581 Q2062.27 143.78 2062.27 147.576 L2062.27 162.229 L2057.98 162.229 L2057.98 136.303 L2062.27 136.303 L2062.27 140.331 Q2063.79 137.993 2065.85 136.835 Q2067.94 135.678 2070.65 135.678 Q2075.11 135.678 2077.41 138.456 Q2079.7 141.21 2079.7 146.581 Z" fill="#000000" fill-rule="nonzero" fill-opacity="1" /><path clip-path="url(#clip000)" d="M2106.85 137.298 L2106.85 141.28 Q2105.04 140.284 2103.22 139.798 Q2101.41 139.289 2099.56 139.289 Q2095.41 139.289 2093.12 141.928 Q2090.83 144.544 2090.83 149.289 Q2090.83 154.034 2093.12 156.673 Q2095.41 159.289 2099.56 159.289 Q2101.41 159.289 2103.22 158.803 Q2105.04 158.293 2106.85 157.298 L2106.85 161.233 Q2105.07 162.067 2103.15 162.483 Q2101.25 162.9 2099.1 162.9 Q2093.24 162.9 2089.79 159.219 Q2086.34 155.539 2086.34 149.289 Q2086.34 142.946 2089.81 139.312 Q2093.31 135.678 2099.37 135.678 Q2101.34 135.678 2103.22 136.095 Q2105.09 136.488 2106.85 137.298 Z" fill="#000000" fill-rule="nonzero" fill-opacity="1" /><path clip-path="url(#clip000)" d="M2136.43 148.201 L2136.43 150.284 L2116.85 150.284 Q2117.13 154.682 2119.49 156.997 Q2121.87 159.289 2126.11 159.289 Q2128.56 159.289 2130.85 158.687 Q2133.17 158.085 2135.44 156.881 L2135.44 160.909 Q2133.15 161.881 2130.74 162.391 Q2128.33 162.9 2125.85 162.9 Q2119.65 162.9 2116.02 159.289 Q2112.41 155.678 2112.41 149.52 Q2112.41 143.155 2115.83 139.428 Q2119.28 135.678 2125.11 135.678 Q2130.35 135.678 2133.38 139.057 Q2136.43 142.414 2136.43 148.201 M2132.17 146.951 Q2132.13 143.456 2130.21 141.372 Q2128.31 139.289 2125.16 139.289 Q2121.6 139.289 2119.44 141.303 Q2117.31 143.317 2116.99 146.974 L2132.17 146.951 Z" fill="#000000" fill-rule="nonzero" fill-opacity="1" /><path clip-path="url(#clip000)" d="M2158.1 126.21 L2167.91 126.21 L2167.91 129.52 L2162.36 129.52 L2162.36 165.168 L2167.91 165.168 L2167.91 168.479 L2158.1 168.479 L2158.1 126.21 Z" fill="#000000" fill-rule="nonzero" fill-opacity="1" /><path clip-path="url(#clip000)" d="M2195.65 137.298 L2195.65 141.28 Q2193.84 140.284 2192.01 139.798 Q2190.21 139.289 2188.35 139.289 Q2184.21 139.289 2181.92 141.928 Q2179.63 144.544 2179.63 149.289 Q2179.63 154.034 2181.92 156.673 Q2184.21 159.289 2188.35 159.289 Q2190.21 159.289 2192.01 158.803 Q2193.84 158.293 2195.65 157.298 L2195.65 161.233 Q2193.86 162.067 2191.94 162.483 Q2190.04 162.9 2187.89 162.9 Q2182.03 162.9 2178.59 159.219 Q2175.14 155.539 2175.14 149.289 Q2175.14 142.946 2178.61 139.312 Q2182.1 135.678 2188.17 135.678 Q2190.14 135.678 2192.01 136.095 Q2193.89 136.488 2195.65 137.298 Z" fill="#000000" fill-rule="nonzero" fill-opacity="1" /><path clip-path="url(#clip000)" d="M2223.24 141.28 Q2224.84 138.409 2227.06 137.044 Q2229.28 135.678 2232.29 135.678 Q2236.34 135.678 2238.54 138.525 Q2240.74 141.349 2240.74 146.581 L2240.74 162.229 L2236.46 162.229 L2236.46 146.719 Q2236.46 142.993 2235.14 141.187 Q2233.82 139.382 2231.11 139.382 Q2227.8 139.382 2225.88 141.581 Q2223.96 143.78 2223.96 147.576 L2223.96 162.229 L2219.67 162.229 L2219.67 146.719 Q2219.67 142.969 2218.35 141.187 Q2217.03 139.382 2214.28 139.382 Q2211.02 139.382 2209.09 141.604 Q2207.17 143.803 2207.17 147.576 L2207.17 162.229 L2202.89 162.229 L2202.89 136.303 L2207.17 136.303 L2207.17 140.331 Q2208.63 137.946 2210.67 136.812 Q2212.71 135.678 2215.51 135.678 Q2218.33 135.678 2220.3 137.113 Q2222.29 138.548 2223.24 141.28 Z" fill="#000000" fill-rule="nonzero" fill-opacity="1" /><path clip-path="url(#clip000)" d="M2259.19 126.21 L2259.19 168.479 L2249.37 168.479 L2249.37 165.168 L2254.9 165.168 L2254.9 129.52 L2249.37 129.52 L2249.37 126.21 L2259.19 126.21 Z" fill="#000000" fill-rule="nonzero" fill-opacity="1" /></svg>
