<?xml version="1.0" encoding="utf-8"?>
<svg xmlns="http://www.w3.org/2000/svg" xmlns:xlink="http://www.w3.org/1999/xlink" width="600" height="400" viewBox="0 0 2400 1600">
<defs>
  <clipPath id="clip350">
    <rect x="0" y="0" width="2400" height="1600"/>
  </clipPath>
</defs>
<path clip-path="url(#clip350)" d="M0 1600 L2400 1600 L2400 0 L0 0  Z" fill="#ffffff" fill-rule="evenodd" fill-opacity="1"/>
<defs>
  <clipPath id="clip351">
    <rect x="480" y="0" width="1681" height="1600"/>
  </clipPath>
</defs>
<path clip-path="url(#clip350)" d="M140.696 1486.45 L2352.76 1486.45 L2352.76 47.2441 L140.696 47.2441  Z" fill="#ffffff" fill-rule="evenodd" fill-opacity="1"/>
<defs>
  <clipPath id="clip352">
    <rect x="140" y="47" width="2213" height="1440"/>
  </clipPath>
</defs>
<polyline clip-path="url(#clip352)" style="stroke:#000000; stroke-linecap:round; stroke-linejoin:round; stroke-width:2; stroke-opacity:0.1; fill:none" points="190.176,1486.45 190.176,47.2441 "/>
<polyline clip-path="url(#clip352)" style="stroke:#000000; stroke-linecap:round; stroke-linejoin:round; stroke-width:2; stroke-opacity:0.1; fill:none" points="846.418,1486.45 846.418,47.2441 "/>
<polyline clip-path="url(#clip352)" style="stroke:#000000; stroke-linecap:round; stroke-linejoin:round; stroke-width:2; stroke-opacity:0.1; fill:none" points="1502.66,1486.45 1502.66,47.2441 "/>
<polyline clip-path="url(#clip352)" style="stroke:#000000; stroke-linecap:round; stroke-linejoin:round; stroke-width:2; stroke-opacity:0.1; fill:none" points="2158.9,1486.45 2158.9,47.2441 "/>
<polyline clip-path="url(#clip350)" style="stroke:#000000; stroke-linecap:round; stroke-linejoin:round; stroke-width:4; stroke-opacity:1; fill:none" points="140.696,1486.45 2352.76,1486.45 "/>
<polyline clip-path="url(#clip350)" style="stroke:#000000; stroke-linecap:round; stroke-linejoin:round; stroke-width:4; stroke-opacity:1; fill:none" points="190.176,1486.45 190.176,1467.55 "/>
<polyline clip-path="url(#clip350)" style="stroke:#000000; stroke-linecap:round; stroke-linejoin:round; stroke-width:4; stroke-opacity:1; fill:none" points="846.418,1486.45 846.418,1467.55 "/>
<polyline clip-path="url(#clip350)" style="stroke:#000000; stroke-linecap:round; stroke-linejoin:round; stroke-width:4; stroke-opacity:1; fill:none" points="1502.66,1486.45 1502.66,1467.55 "/>
<polyline clip-path="url(#clip350)" style="stroke:#000000; stroke-linecap:round; stroke-linejoin:round; stroke-width:4; stroke-opacity:1; fill:none" points="2158.9,1486.45 2158.9,1467.55 "/>
<path clip-path="url(#clip350)" d="M190.176 1517.37 Q186.565 1517.37 184.736 1520.93 Q182.931 1524.47 182.931 1531.6 Q182.931 1538.71 184.736 1542.27 Q186.565 1545.82 190.176 1545.82 Q193.81 1545.82 195.616 1542.27 Q197.445 1538.71 197.445 1531.6 Q197.445 1524.47 195.616 1520.93 Q193.81 1517.37 190.176 1517.37 M190.176 1513.66 Q195.986 1513.66 199.042 1518.27 Q202.121 1522.85 202.121 1531.6 Q202.121 1540.33 199.042 1544.94 Q195.986 1549.52 190.176 1549.52 Q184.366 1549.52 181.287 1544.94 Q178.232 1540.33 178.232 1531.6 Q178.232 1522.85 181.287 1518.27 Q184.366 1513.66 190.176 1513.66 Z" fill="#000000" fill-rule="nonzero" fill-opacity="1" /><path clip-path="url(#clip350)" d="M821.117 1514.29 L839.474 1514.29 L839.474 1518.22 L825.4 1518.22 L825.4 1526.7 Q826.418 1526.35 827.437 1526.19 Q828.455 1526 829.474 1526 Q835.261 1526 838.64 1529.17 Q842.02 1532.34 842.02 1537.76 Q842.02 1543.34 838.548 1546.44 Q835.076 1549.52 828.756 1549.52 Q826.58 1549.52 824.312 1549.15 Q822.066 1548.78 819.659 1548.04 L819.659 1543.34 Q821.742 1544.47 823.965 1545.03 Q826.187 1545.58 828.664 1545.58 Q832.668 1545.58 835.006 1543.48 Q837.344 1541.37 837.344 1537.76 Q837.344 1534.15 835.006 1532.04 Q832.668 1529.94 828.664 1529.94 Q826.789 1529.94 824.914 1530.35 Q823.062 1530.77 821.117 1531.65 L821.117 1514.29 Z" fill="#000000" fill-rule="nonzero" fill-opacity="1" /><path clip-path="url(#clip350)" d="M861.233 1517.37 Q857.622 1517.37 855.793 1520.93 Q853.988 1524.47 853.988 1531.6 Q853.988 1538.71 855.793 1542.27 Q857.622 1545.82 861.233 1545.82 Q864.867 1545.82 866.673 1542.27 Q868.501 1538.71 868.501 1531.6 Q868.501 1524.47 866.673 1520.93 Q864.867 1517.37 861.233 1517.37 M861.233 1513.66 Q867.043 1513.66 870.099 1518.27 Q873.177 1522.85 873.177 1531.6 Q873.177 1540.33 870.099 1544.94 Q867.043 1549.52 861.233 1549.52 Q855.423 1549.52 852.344 1544.94 Q849.288 1540.33 849.288 1531.6 Q849.288 1522.85 852.344 1518.27 Q855.423 1513.66 861.233 1513.66 Z" fill="#000000" fill-rule="nonzero" fill-opacity="1" /><path clip-path="url(#clip350)" d="M1462.27 1544.91 L1469.91 1544.91 L1469.91 1518.55 L1461.6 1520.21 L1461.6 1515.95 L1469.86 1514.29 L1474.54 1514.29 L1474.54 1544.91 L1482.17 1544.91 L1482.17 1548.85 L1462.27 1548.85 L1462.27 1544.91 Z" fill="#000000" fill-rule="nonzero" fill-opacity="1" /><path clip-path="url(#clip350)" d="M1501.62 1517.37 Q1498.01 1517.37 1496.18 1520.93 Q1494.37 1524.47 1494.37 1531.6 Q1494.37 1538.71 1496.18 1542.27 Q1498.01 1545.82 1501.62 1545.82 Q1505.25 1545.82 1507.06 1542.27 Q1508.89 1538.71 1508.89 1531.6 Q1508.89 1524.47 1507.06 1520.93 Q1505.25 1517.37 1501.62 1517.37 M1501.62 1513.66 Q1507.43 1513.66 1510.48 1518.27 Q1513.56 1522.85 1513.56 1531.6 Q1513.56 1540.33 1510.48 1544.94 Q1507.43 1549.52 1501.62 1549.52 Q1495.81 1549.52 1492.73 1544.94 Q1489.67 1540.33 1489.67 1531.6 Q1489.67 1522.85 1492.73 1518.27 Q1495.81 1513.66 1501.62 1513.66 Z" fill="#000000" fill-rule="nonzero" fill-opacity="1" /><path clip-path="url(#clip350)" d="M1531.78 1517.37 Q1528.17 1517.37 1526.34 1520.93 Q1524.53 1524.47 1524.53 1531.6 Q1524.53 1538.71 1526.34 1542.27 Q1528.17 1545.82 1531.78 1545.82 Q1535.41 1545.82 1537.22 1542.27 Q1539.05 1538.71 1539.05 1531.6 Q1539.05 1524.47 1537.22 1520.93 Q1535.41 1517.37 1531.78 1517.37 M1531.78 1513.66 Q1537.59 1513.66 1540.65 1518.27 Q1543.72 1522.85 1543.72 1531.6 Q1543.72 1540.33 1540.65 1544.94 Q1537.59 1549.52 1531.78 1549.52 Q1525.97 1549.52 1522.89 1544.94 Q1519.84 1540.33 1519.84 1531.6 Q1519.84 1522.85 1522.89 1518.27 Q1525.97 1513.66 1531.78 1513.66 Z" fill="#000000" fill-rule="nonzero" fill-opacity="1" /><path clip-path="url(#clip350)" d="M2118.51 1544.91 L2126.15 1544.91 L2126.15 1518.55 L2117.84 1520.21 L2117.84 1515.95 L2126.1 1514.29 L2130.78 1514.29 L2130.78 1544.91 L2138.42 1544.91 L2138.42 1548.85 L2118.51 1548.85 L2118.51 1544.91 Z" fill="#000000" fill-rule="nonzero" fill-opacity="1" /><path clip-path="url(#clip350)" d="M2147.91 1514.29 L2166.26 1514.29 L2166.26 1518.22 L2152.19 1518.22 L2152.19 1526.7 Q2153.21 1526.35 2154.23 1526.19 Q2155.24 1526 2156.26 1526 Q2162.05 1526 2165.43 1529.17 Q2168.81 1532.34 2168.81 1537.76 Q2168.81 1543.34 2165.34 1546.44 Q2161.86 1549.52 2155.55 1549.52 Q2153.37 1549.52 2151.1 1549.15 Q2148.86 1548.78 2146.45 1548.04 L2146.45 1543.34 Q2148.53 1544.47 2150.75 1545.03 Q2152.98 1545.58 2155.45 1545.58 Q2159.46 1545.58 2161.8 1543.48 Q2164.13 1541.37 2164.13 1537.76 Q2164.13 1534.15 2161.8 1532.04 Q2159.46 1529.94 2155.45 1529.94 Q2153.58 1529.94 2151.7 1530.35 Q2149.85 1530.77 2147.91 1531.65 L2147.91 1514.29 Z" fill="#000000" fill-rule="nonzero" fill-opacity="1" /><path clip-path="url(#clip350)" d="M2188.02 1517.37 Q2184.41 1517.37 2182.58 1520.93 Q2180.78 1524.47 2180.78 1531.6 Q2180.78 1538.71 2182.58 1542.27 Q2184.41 1545.82 2188.02 1545.82 Q2191.66 1545.82 2193.46 1542.27 Q2195.29 1538.71 2195.29 1531.6 Q2195.29 1524.47 2193.46 1520.93 Q2191.66 1517.37 2188.02 1517.37 M2188.02 1513.66 Q2193.83 1513.66 2196.89 1518.27 Q2199.97 1522.85 2199.97 1531.6 Q2199.97 1540.33 2196.89 1544.94 Q2193.83 1549.52 2188.02 1549.52 Q2182.21 1549.52 2179.13 1544.94 Q2176.08 1540.33 2176.08 1531.6 Q2176.08 1522.85 2179.13 1518.27 Q2182.21 1513.66 2188.02 1513.66 Z" fill="#000000" fill-rule="nonzero" fill-opacity="1" /><polyline clip-path="url(#clip352)" style="stroke:#000000; stroke-linecap:round; stroke-linejoin:round; stroke-width:2; stroke-opacity:0.1; fill:none" points="140.696,1318.26 2352.76,1318.26 "/>
<polyline clip-path="url(#clip352)" style="stroke:#000000; stroke-linecap:round; stroke-linejoin:round; stroke-width:2; stroke-opacity:0.1; fill:none" points="140.696,1110.03 2352.76,1110.03 "/>
<polyline clip-path="url(#clip352)" style="stroke:#000000; stroke-linecap:round; stroke-linejoin:round; stroke-width:2; stroke-opacity:0.1; fill:none" points="140.696,901.796 2352.76,901.796 "/>
<polyline clip-path="url(#clip352)" style="stroke:#000000; stroke-linecap:round; stroke-linejoin:round; stroke-width:2; stroke-opacity:0.1; fill:none" points="140.696,693.562 2352.76,693.562 "/>
<polyline clip-path="url(#clip352)" style="stroke:#000000; stroke-linecap:round; stroke-linejoin:round; stroke-width:2; stroke-opacity:0.1; fill:none" points="140.696,485.329 2352.76,485.329 "/>
<polyline clip-path="url(#clip352)" style="stroke:#000000; stroke-linecap:round; stroke-linejoin:round; stroke-width:2; stroke-opacity:0.1; fill:none" points="140.696,277.096 2352.76,277.096 "/>
<polyline clip-path="url(#clip352)" style="stroke:#000000; stroke-linecap:round; stroke-linejoin:round; stroke-width:2; stroke-opacity:0.1; fill:none" points="140.696,68.8627 2352.76,68.8627 "/>
<polyline clip-path="url(#clip350)" style="stroke:#000000; stroke-linecap:round; stroke-linejoin:round; stroke-width:4; stroke-opacity:1; fill:none" points="140.696,1486.45 140.696,47.2441 "/>
<polyline clip-path="url(#clip350)" style="stroke:#000000; stroke-linecap:round; stroke-linejoin:round; stroke-width:4; stroke-opacity:1; fill:none" points="140.696,1318.26 159.593,1318.26 "/>
<polyline clip-path="url(#clip350)" style="stroke:#000000; stroke-linecap:round; stroke-linejoin:round; stroke-width:4; stroke-opacity:1; fill:none" points="140.696,1110.03 159.593,1110.03 "/>
<polyline clip-path="url(#clip350)" style="stroke:#000000; stroke-linecap:round; stroke-linejoin:round; stroke-width:4; stroke-opacity:1; fill:none" points="140.696,901.796 159.593,901.796 "/>
<polyline clip-path="url(#clip350)" style="stroke:#000000; stroke-linecap:round; stroke-linejoin:round; stroke-width:4; stroke-opacity:1; fill:none" points="140.696,693.562 159.593,693.562 "/>
<polyline clip-path="url(#clip350)" style="stroke:#000000; stroke-linecap:round; stroke-linejoin:round; stroke-width:4; stroke-opacity:1; fill:none" points="140.696,485.329 159.593,485.329 "/>
<polyline clip-path="url(#clip350)" style="stroke:#000000; stroke-linecap:round; stroke-linejoin:round; stroke-width:4; stroke-opacity:1; fill:none" points="140.696,277.096 159.593,277.096 "/>
<polyline clip-path="url(#clip350)" style="stroke:#000000; stroke-linecap:round; stroke-linejoin:round; stroke-width:4; stroke-opacity:1; fill:none" points="140.696,68.8627 159.593,68.8627 "/>
<path clip-path="url(#clip350)" d="M83.7929 1300.98 L102.149 1300.98 L102.149 1304.92 L88.0753 1304.92 L88.0753 1313.39 Q89.0938 1313.04 90.1123 1312.88 Q91.1308 1312.69 92.1493 1312.69 Q97.9363 1312.69 101.316 1315.87 Q104.696 1319.04 104.696 1324.45 Q104.696 1330.03 101.223 1333.13 Q97.7511 1336.21 91.4317 1336.21 Q89.2558 1336.21 86.9873 1335.84 Q84.7419 1335.47 82.3346 1334.73 L82.3346 1330.03 Q84.4179 1331.17 86.6401 1331.72 Q88.8623 1332.28 91.3391 1332.28 Q95.3437 1332.28 97.6817 1330.17 Q100.02 1328.07 100.02 1324.45 Q100.02 1320.84 97.6817 1318.74 Q95.3437 1316.63 91.3391 1316.63 Q89.4641 1316.63 87.5892 1317.05 Q85.7373 1317.46 83.7929 1318.34 L83.7929 1300.98 Z" fill="#000000" fill-rule="nonzero" fill-opacity="1" /><path clip-path="url(#clip350)" d="M53.3995 1123.37 L61.0384 1123.37 L61.0384 1097.01 L52.7282 1098.67 L52.7282 1094.42 L60.9921 1092.75 L65.668 1092.75 L65.668 1123.37 L73.3068 1123.37 L73.3068 1127.31 L53.3995 1127.31 L53.3995 1123.37 Z" fill="#000000" fill-rule="nonzero" fill-opacity="1" /><path clip-path="url(#clip350)" d="M92.7512 1095.83 Q89.1401 1095.83 87.3114 1099.39 Q85.5058 1102.93 85.5058 1110.06 Q85.5058 1117.17 87.3114 1120.73 Q89.1401 1124.28 92.7512 1124.28 Q96.3854 1124.28 98.1909 1120.73 Q100.02 1117.17 100.02 1110.06 Q100.02 1102.93 98.1909 1099.39 Q96.3854 1095.83 92.7512 1095.83 M92.7512 1092.12 Q98.5613 1092.12 101.617 1096.73 Q104.696 1101.31 104.696 1110.06 Q104.696 1118.79 101.617 1123.4 Q98.5613 1127.98 92.7512 1127.98 Q86.941 1127.98 83.8623 1123.4 Q80.8068 1118.79 80.8068 1110.06 Q80.8068 1101.31 83.8623 1096.73 Q86.941 1092.12 92.7512 1092.12 Z" fill="#000000" fill-rule="nonzero" fill-opacity="1" /><path clip-path="url(#clip350)" d="M54.3949 915.14 L62.0337 915.14 L62.0337 888.775 L53.7236 890.441 L53.7236 886.182 L61.9874 884.516 L66.6633 884.516 L66.6633 915.14 L74.3022 915.14 L74.3022 919.076 L54.3949 919.076 L54.3949 915.14 Z" fill="#000000" fill-rule="nonzero" fill-opacity="1" /><path clip-path="url(#clip350)" d="M83.7929 884.516 L102.149 884.516 L102.149 888.451 L88.0753 888.451 L88.0753 896.923 Q89.0938 896.576 90.1123 896.414 Q91.1308 896.228 92.1493 896.228 Q97.9363 896.228 101.316 899.4 Q104.696 902.571 104.696 907.988 Q104.696 913.566 101.223 916.668 Q97.7511 919.747 91.4317 919.747 Q89.2558 919.747 86.9873 919.376 Q84.7419 919.006 82.3346 918.265 L82.3346 913.566 Q84.4179 914.701 86.6401 915.256 Q88.8623 915.812 91.3391 915.812 Q95.3437 915.812 97.6817 913.705 Q100.02 911.599 100.02 907.988 Q100.02 904.377 97.6817 902.27 Q95.3437 900.164 91.3391 900.164 Q89.4641 900.164 87.5892 900.58 Q85.7373 900.997 83.7929 901.877 L83.7929 884.516 Z" fill="#000000" fill-rule="nonzero" fill-opacity="1" /><path clip-path="url(#clip350)" d="M56.6171 706.907 L72.9365 706.907 L72.9365 710.842 L50.9921 710.842 L50.9921 706.907 Q53.6541 704.153 58.2375 699.523 Q62.8439 694.87 64.0245 693.528 Q66.2698 691.004 67.1494 689.268 Q68.0522 687.509 68.0522 685.819 Q68.0522 683.065 66.1078 681.329 Q64.1865 679.592 61.0847 679.592 Q58.8856 679.592 56.4319 680.356 Q54.0014 681.12 51.2236 682.671 L51.2236 677.949 Q54.0477 676.815 56.5014 676.236 Q58.955 675.657 60.9921 675.657 Q66.3624 675.657 69.5568 678.342 Q72.7513 681.028 72.7513 685.518 Q72.7513 687.648 71.9411 689.569 Q71.1541 691.467 69.0476 694.06 Q68.4689 694.731 65.367 697.949 Q62.2652 701.143 56.6171 706.907 Z" fill="#000000" fill-rule="nonzero" fill-opacity="1" /><path clip-path="url(#clip350)" d="M92.7512 679.361 Q89.1401 679.361 87.3114 682.926 Q85.5058 686.467 85.5058 693.597 Q85.5058 700.703 87.3114 704.268 Q89.1401 707.81 92.7512 707.81 Q96.3854 707.81 98.1909 704.268 Q100.02 700.703 100.02 693.597 Q100.02 686.467 98.1909 682.926 Q96.3854 679.361 92.7512 679.361 M92.7512 675.657 Q98.5613 675.657 101.617 680.264 Q104.696 684.847 104.696 693.597 Q104.696 702.324 101.617 706.93 Q98.5613 711.514 92.7512 711.514 Q86.941 711.514 83.8623 706.93 Q80.8068 702.324 80.8068 693.597 Q80.8068 684.847 83.8623 680.264 Q86.941 675.657 92.7512 675.657 Z" fill="#000000" fill-rule="nonzero" fill-opacity="1" /><path clip-path="url(#clip350)" d="M57.6125 498.674 L73.9318 498.674 L73.9318 502.609 L51.9875 502.609 L51.9875 498.674 Q54.6495 495.919 59.2328 491.29 Q63.8393 486.637 65.0198 485.294 Q67.2652 482.771 68.1448 481.035 Q69.0476 479.276 69.0476 477.586 Q69.0476 474.831 67.1032 473.095 Q65.1819 471.359 62.08 471.359 Q59.881 471.359 57.4273 472.123 Q54.9967 472.887 52.219 474.438 L52.219 469.716 Q55.043 468.582 57.4967 468.003 Q59.9504 467.424 61.9874 467.424 Q67.3578 467.424 70.5522 470.109 Q73.7466 472.794 73.7466 477.285 Q73.7466 479.415 72.9365 481.336 Q72.1494 483.234 70.0429 485.827 Q69.4642 486.498 66.3624 489.716 Q63.2606 492.91 57.6125 498.674 Z" fill="#000000" fill-rule="nonzero" fill-opacity="1" /><path clip-path="url(#clip350)" d="M83.7929 468.049 L102.149 468.049 L102.149 471.984 L88.0753 471.984 L88.0753 480.456 Q89.0938 480.109 90.1123 479.947 Q91.1308 479.762 92.1493 479.762 Q97.9363 479.762 101.316 482.933 Q104.696 486.105 104.696 491.521 Q104.696 497.1 101.223 500.202 Q97.7511 503.28 91.4317 503.28 Q89.2558 503.28 86.9873 502.91 Q84.7419 502.54 82.3346 501.799 L82.3346 497.1 Q84.4179 498.234 86.6401 498.79 Q88.8623 499.345 91.3391 499.345 Q95.3437 499.345 97.6817 497.239 Q100.02 495.132 100.02 491.521 Q100.02 487.91 97.6817 485.804 Q95.3437 483.697 91.3391 483.697 Q89.4641 483.697 87.5892 484.114 Q85.7373 484.53 83.7929 485.41 L83.7929 468.049 Z" fill="#000000" fill-rule="nonzero" fill-opacity="1" /><path clip-path="url(#clip350)" d="M66.7559 275.742 Q70.1124 276.459 71.9874 278.728 Q73.8855 280.996 73.8855 284.33 Q73.8855 289.445 70.367 292.246 Q66.8485 295.047 60.3671 295.047 Q58.1912 295.047 55.8764 294.607 Q53.5847 294.191 51.131 293.334 L51.131 288.82 Q53.0754 289.955 55.3903 290.533 Q57.7051 291.112 60.2282 291.112 Q64.6263 291.112 66.918 289.376 Q69.2328 287.64 69.2328 284.33 Q69.2328 281.274 67.08 279.561 Q64.9504 277.825 61.131 277.825 L57.1032 277.825 L57.1032 273.982 L61.3161 273.982 Q64.7652 273.982 66.5939 272.617 Q68.4226 271.228 68.4226 268.635 Q68.4226 265.973 66.5245 264.561 Q64.6495 263.126 61.131 263.126 Q59.2097 263.126 57.0106 263.543 Q54.8115 263.959 52.1727 264.839 L52.1727 260.672 Q54.8347 259.932 57.1495 259.561 Q59.4875 259.191 61.5476 259.191 Q66.8717 259.191 69.9735 261.621 Q73.0753 264.029 73.0753 268.149 Q73.0753 271.02 71.4318 273.01 Q69.7883 274.978 66.7559 275.742 Z" fill="#000000" fill-rule="nonzero" fill-opacity="1" /><path clip-path="url(#clip350)" d="M92.7512 262.895 Q89.1401 262.895 87.3114 266.459 Q85.5058 270.001 85.5058 277.131 Q85.5058 284.237 87.3114 287.802 Q89.1401 291.344 92.7512 291.344 Q96.3854 291.344 98.1909 287.802 Q100.02 284.237 100.02 277.131 Q100.02 270.001 98.1909 266.459 Q96.3854 262.895 92.7512 262.895 M92.7512 259.191 Q98.5613 259.191 101.617 263.797 Q104.696 268.381 104.696 277.131 Q104.696 285.857 101.617 290.464 Q98.5613 295.047 92.7512 295.047 Q86.941 295.047 83.8623 290.464 Q80.8068 285.857 80.8068 277.131 Q80.8068 268.381 83.8623 263.797 Q86.941 259.191 92.7512 259.191 Z" fill="#000000" fill-rule="nonzero" fill-opacity="1" /><path clip-path="url(#clip350)" d="M67.7513 67.5085 Q71.1078 68.2261 72.9827 70.4946 Q74.8809 72.7631 74.8809 76.0965 Q74.8809 81.2122 71.3624 84.0131 Q67.8439 86.814 61.3624 86.814 Q59.1865 86.814 56.8717 86.3742 Q54.5801 85.9575 52.1264 85.101 L52.1264 80.5872 Q54.0708 81.7214 56.3856 82.3001 Q58.7004 82.8788 61.2236 82.8788 Q65.6217 82.8788 67.9133 81.1427 Q70.2281 79.4066 70.2281 76.0965 Q70.2281 73.0409 68.0754 71.328 Q65.9457 69.5919 62.1263 69.5919 L58.0986 69.5919 L58.0986 65.7493 L62.3115 65.7493 Q65.7606 65.7493 67.5893 64.3836 Q69.418 62.9947 69.418 60.4021 Q69.418 57.7401 67.5198 56.328 Q65.6448 54.8929 62.1263 54.8929 Q60.205 54.8929 58.006 55.3095 Q55.8069 55.7262 53.168 56.6058 L53.168 52.4392 Q55.8301 51.6984 58.1449 51.3281 Q60.4828 50.9577 62.543 50.9577 Q67.867 50.9577 70.9689 53.3882 Q74.0707 55.7956 74.0707 59.916 Q74.0707 62.7863 72.4272 64.7771 Q70.7837 66.7447 67.7513 67.5085 Z" fill="#000000" fill-rule="nonzero" fill-opacity="1" /><path clip-path="url(#clip350)" d="M83.7929 51.5827 L102.149 51.5827 L102.149 55.5179 L88.0753 55.5179 L88.0753 63.99 Q89.0938 63.6428 90.1123 63.4808 Q91.1308 63.2956 92.1493 63.2956 Q97.9363 63.2956 101.316 66.4669 Q104.696 69.6382 104.696 75.0548 Q104.696 80.6335 101.223 83.7353 Q97.7511 86.814 91.4317 86.814 Q89.2558 86.814 86.9873 86.4436 Q84.7419 86.0733 82.3346 85.3325 L82.3346 80.6335 Q84.4179 81.7677 86.6401 82.3233 Q88.8623 82.8788 91.3391 82.8788 Q95.3437 82.8788 97.6817 80.7724 Q100.02 78.6659 100.02 75.0548 Q100.02 71.4437 97.6817 69.3372 Q95.3437 67.2308 91.3391 67.2308 Q89.4641 67.2308 87.5892 67.6474 Q85.7373 68.0641 83.7929 68.9437 L83.7929 51.5827 Z" fill="#000000" fill-rule="nonzero" fill-opacity="1" /><polyline clip-path="url(#clip352)" style="stroke:#009af9; stroke-linecap:round; stroke-linejoin:round; stroke-width:4; stroke-opacity:1; fill:none" points="203.301,487.087 216.426,528.109 229.551,601.285 242.676,680.65 255.8,744.733 268.925,829.445 282.05,938.247 295.175,1065.57 308.3,1169.63 321.425,1224.28 334.549,1263.89 347.674,1315.76 360.799,1359.46 373.924,1416.16 387.049,1431.36 400.174,1445.72 413.298,1433.7 426.423,1397.94 439.548,1358.21 452.673,1290.56 465.798,1205.96 478.923,1148.27 492.047,1108.27 505.172,1066.04 518.297,1042.18 531.422,1046.19 544.547,1051.9 557.672,1023.38 570.797,1008.44 583.921,983.617 597.046,972.003 610.171,1008.21 623.296,1036.56 636.421,1049.21 649.546,1045.37 662.67,1022.92 675.795,1045.44 688.92,1082.44 702.045,1116.74 715.17,1126.8 728.295,1102.31 741.419,1068.37 754.544,1041.32 767.669,976.344 780.794,914.493 793.919,856.57 807.044,796.337 820.168,724.927 833.293,663.56 846.418,569.281 859.543,510.736 872.668,416.262 885.793,340.143 898.917,235.228 912.042,153.513 925.167,111.788 938.292,87.9763 951.417,111.114 964.542,148.045 977.667,172.244 990.791,270.614 1003.92,238.721 1017.04,325.432 1030.17,308.959 1043.29,377.057 1056.42,451.362 1069.54,511.115 1082.67,599.25 1095.79,663.844 1108.91,704.929 1122.04,693.846 1135.16,729.396 1148.29,967.924 1161.41,1008.72 1174.54,1207.14 1187.66,1242.04 1200.79,1200.51 1213.91,1158.99 1227.04,1130.37 1240.16,1101.07 1253.29,1075.61 1266.41,1043.48 1279.54,1016.89 1292.66,987.532 1305.79,989.404 1318.91,987.635 1332.04,964.546 1345.16,958.495 1358.29,956.1 1371.41,964.533 1384.54,978.298 1397.66,997.326 1410.79,983.082 1423.91,943.402 1437.04,876.748 1450.16,813.188 1463.29,812.873 1476.41,791.479 1489.54,794.809 1502.66,798.169 1515.78,806.172 1528.91,830.013 1542.03,863.194 1555.16,885.419 1568.28,892.315 1581.41,894.12 1594.53,884.876 1607.66,875.463 1620.78,859.799 1633.91,847.345 1647.03,832.629 1660.16,834.703 1673.28,838.729 1686.41,820.679 1699.53,785.596 1712.66,761.304 1725.78,747.954 1738.91,742.23 1752.03,736.569 1765.16,737.557 1778.28,737.326 1791.41,743.981 1804.53,747.268 1817.66,754.636 1830.78,757 1843.91,760.639 1857.03,761.008 1870.16,766.256 1883.28,767.888 1896.41,775.21 1909.53,773.162 1922.65,769.607 1935.78,771.627 1948.9,782.887 1962.03,772.997 1975.15,772.243 1988.28,784.757 2001.4,794.559 2014.53,799.717 2027.65,811.674 2040.78,819.191 2053.9,826.926 2067.03,822.609 2080.15,817.398 2093.28,806.312 2106.4,799.078 2119.53,797.057 2132.65,806.075 2145.78,811.54 2158.9,802.015 2172.03,779.454 2185.15,753.801 2198.28,731.627 2211.4,725.512 2224.53,722.979 2237.65,737.67 2250.78,784.825 2263.9,837.866 2277.03,867.495 2290.15,821.612 "/>
<path clip-path="url(#clip350)" d="M2005.38 198.898 L2279.02 198.898 L2279.02 95.2176 L2005.38 95.2176  Z" fill="#ffffff" fill-rule="evenodd" fill-opacity="1"/>
<polyline clip-path="url(#clip350)" style="stroke:#000000; stroke-linecap:round; stroke-linejoin:round; stroke-width:4; stroke-opacity:1; fill:none" points="2005.38,198.898 2279.02,198.898 2279.02,95.2176 2005.38,95.2176 2005.38,198.898 "/>
<polyline clip-path="url(#clip350)" style="stroke:#009af9; stroke-linecap:round; stroke-linejoin:round; stroke-width:4; stroke-opacity:1; fill:none" points="2029.96,147.058 2177.43,147.058 "/>
<path clip-path="url(#clip350)" d="M2215.85 166.745 Q2214.05 171.375 2212.34 172.787 Q2210.62 174.199 2207.75 174.199 L2204.35 174.199 L2204.35 170.634 L2206.85 170.634 Q2208.61 170.634 2209.58 169.8 Q2210.55 168.967 2211.73 165.865 L2212.5 163.921 L2202.01 138.412 L2206.53 138.412 L2214.63 158.689 L2222.73 138.412 L2227.24 138.412 L2215.85 166.745 Z" fill="#000000" fill-rule="nonzero" fill-opacity="1" /><path clip-path="url(#clip350)" d="M2234.53 160.402 L2242.17 160.402 L2242.17 134.037 L2233.86 135.703 L2233.86 131.444 L2242.13 129.778 L2246.8 129.778 L2246.8 160.402 L2254.44 160.402 L2254.44 164.338 L2234.53 164.338 L2234.53 160.402 Z" fill="#000000" fill-rule="nonzero" fill-opacity="1" /></svg>
