<?xml version="1.0" encoding="utf-8"?>
<svg xmlns="http://www.w3.org/2000/svg" xmlns:xlink="http://www.w3.org/1999/xlink" width="600" height="400" viewBox="0 0 2400 1600">
<defs>
  <clipPath id="clip720">
    <rect x="0" y="0" width="2400" height="1600"/>
  </clipPath>
</defs>
<path clip-path="url(#clip720)" d="M0 1600 L2400 1600 L2400 0 L0 0  Z" fill="#ffffff" fill-rule="evenodd" fill-opacity="1"/>
<defs>
  <clipPath id="clip721">
    <rect x="480" y="0" width="1681" height="1600"/>
  </clipPath>
</defs>
<path clip-path="url(#clip720)" d="M157.447 1486.45 L2352.76 1486.45 L2352.76 47.2441 L157.447 47.2441  Z" fill="#ffffff" fill-rule="evenodd" fill-opacity="1"/>
<defs>
  <clipPath id="clip722">
    <rect x="157" y="47" width="2196" height="1440"/>
  </clipPath>
</defs>
<polyline clip-path="url(#clip722)" style="stroke:#000000; stroke-linecap:round; stroke-linejoin:round; stroke-width:2; stroke-opacity:0.1; fill:none" points="206.553,1486.45 206.553,47.2441 "/>
<polyline clip-path="url(#clip722)" style="stroke:#000000; stroke-linecap:round; stroke-linejoin:round; stroke-width:2; stroke-opacity:0.1; fill:none" points="857.826,1486.45 857.826,47.2441 "/>
<polyline clip-path="url(#clip722)" style="stroke:#000000; stroke-linecap:round; stroke-linejoin:round; stroke-width:2; stroke-opacity:0.1; fill:none" points="1509.1,1486.45 1509.1,47.2441 "/>
<polyline clip-path="url(#clip722)" style="stroke:#000000; stroke-linecap:round; stroke-linejoin:round; stroke-width:2; stroke-opacity:0.1; fill:none" points="2160.37,1486.45 2160.37,47.2441 "/>
<polyline clip-path="url(#clip720)" style="stroke:#000000; stroke-linecap:round; stroke-linejoin:round; stroke-width:4; stroke-opacity:1; fill:none" points="157.447,1486.45 2352.76,1486.45 "/>
<polyline clip-path="url(#clip720)" style="stroke:#000000; stroke-linecap:round; stroke-linejoin:round; stroke-width:4; stroke-opacity:1; fill:none" points="206.553,1486.45 206.553,1467.55 "/>
<polyline clip-path="url(#clip720)" style="stroke:#000000; stroke-linecap:round; stroke-linejoin:round; stroke-width:4; stroke-opacity:1; fill:none" points="857.826,1486.45 857.826,1467.55 "/>
<polyline clip-path="url(#clip720)" style="stroke:#000000; stroke-linecap:round; stroke-linejoin:round; stroke-width:4; stroke-opacity:1; fill:none" points="1509.1,1486.45 1509.1,1467.55 "/>
<polyline clip-path="url(#clip720)" style="stroke:#000000; stroke-linecap:round; stroke-linejoin:round; stroke-width:4; stroke-opacity:1; fill:none" points="2160.37,1486.45 2160.37,1467.55 "/>
<path clip-path="url(#clip720)" d="M206.553 1517.37 Q202.942 1517.37 201.114 1520.93 Q199.308 1524.47 199.308 1531.6 Q199.308 1538.71 201.114 1542.27 Q202.942 1545.82 206.553 1545.82 Q210.188 1545.82 211.993 1542.27 Q213.822 1538.71 213.822 1531.6 Q213.822 1524.47 211.993 1520.93 Q210.188 1517.37 206.553 1517.37 M206.553 1513.66 Q212.364 1513.66 215.419 1518.27 Q218.498 1522.85 218.498 1531.6 Q218.498 1540.33 215.419 1544.94 Q212.364 1549.52 206.553 1549.52 Q200.743 1549.52 197.665 1544.94 Q194.609 1540.33 194.609 1531.6 Q194.609 1522.85 197.665 1518.27 Q200.743 1513.66 206.553 1513.66 Z" fill="#000000" fill-rule="nonzero" fill-opacity="1" /><path clip-path="url(#clip720)" d="M832.525 1514.29 L850.881 1514.29 L850.881 1518.22 L836.807 1518.22 L836.807 1526.7 Q837.826 1526.35 838.844 1526.19 Q839.863 1526 840.881 1526 Q846.668 1526 850.048 1529.17 Q853.428 1532.34 853.428 1537.76 Q853.428 1543.34 849.955 1546.44 Q846.483 1549.52 840.164 1549.52 Q837.988 1549.52 835.719 1549.15 Q833.474 1548.78 831.067 1548.04 L831.067 1543.34 Q833.15 1544.47 835.372 1545.03 Q837.594 1545.58 840.071 1545.58 Q844.076 1545.58 846.414 1543.48 Q848.752 1541.37 848.752 1537.76 Q848.752 1534.15 846.414 1532.04 Q844.076 1529.94 840.071 1529.94 Q838.196 1529.94 836.321 1530.35 Q834.469 1530.77 832.525 1531.65 L832.525 1514.29 Z" fill="#000000" fill-rule="nonzero" fill-opacity="1" /><path clip-path="url(#clip720)" d="M872.64 1517.37 Q869.029 1517.37 867.201 1520.93 Q865.395 1524.47 865.395 1531.6 Q865.395 1538.71 867.201 1542.27 Q869.029 1545.82 872.64 1545.82 Q876.275 1545.82 878.08 1542.27 Q879.909 1538.71 879.909 1531.6 Q879.909 1524.47 878.08 1520.93 Q876.275 1517.37 872.64 1517.37 M872.64 1513.66 Q878.451 1513.66 881.506 1518.27 Q884.585 1522.85 884.585 1531.6 Q884.585 1540.33 881.506 1544.94 Q878.451 1549.52 872.64 1549.52 Q866.83 1549.52 863.752 1544.94 Q860.696 1540.33 860.696 1531.6 Q860.696 1522.85 863.752 1518.27 Q866.83 1513.66 872.64 1513.66 Z" fill="#000000" fill-rule="nonzero" fill-opacity="1" /><path clip-path="url(#clip720)" d="M1468.7 1544.91 L1476.34 1544.91 L1476.34 1518.55 L1468.03 1520.21 L1468.03 1515.95 L1476.3 1514.29 L1480.97 1514.29 L1480.97 1544.91 L1488.61 1544.91 L1488.61 1548.85 L1468.7 1548.85 L1468.7 1544.91 Z" fill="#000000" fill-rule="nonzero" fill-opacity="1" /><path clip-path="url(#clip720)" d="M1508.06 1517.37 Q1504.45 1517.37 1502.62 1520.93 Q1500.81 1524.47 1500.81 1531.6 Q1500.81 1538.71 1502.62 1542.27 Q1504.45 1545.82 1508.06 1545.82 Q1511.69 1545.82 1513.5 1542.27 Q1515.32 1538.71 1515.32 1531.6 Q1515.32 1524.47 1513.5 1520.93 Q1511.69 1517.37 1508.06 1517.37 M1508.06 1513.66 Q1513.87 1513.66 1516.92 1518.27 Q1520 1522.85 1520 1531.6 Q1520 1540.33 1516.92 1544.94 Q1513.87 1549.52 1508.06 1549.52 Q1502.25 1549.52 1499.17 1544.94 Q1496.11 1540.33 1496.11 1531.6 Q1496.11 1522.85 1499.17 1518.27 Q1502.25 1513.66 1508.06 1513.66 Z" fill="#000000" fill-rule="nonzero" fill-opacity="1" /><path clip-path="url(#clip720)" d="M1538.22 1517.37 Q1534.61 1517.37 1532.78 1520.93 Q1530.97 1524.47 1530.97 1531.6 Q1530.97 1538.71 1532.78 1542.27 Q1534.61 1545.82 1538.22 1545.82 Q1541.85 1545.82 1543.66 1542.27 Q1545.49 1538.71 1545.49 1531.6 Q1545.49 1524.47 1543.66 1520.93 Q1541.85 1517.37 1538.22 1517.37 M1538.22 1513.66 Q1544.03 1513.66 1547.08 1518.27 Q1550.16 1522.85 1550.16 1531.6 Q1550.16 1540.33 1547.08 1544.94 Q1544.03 1549.52 1538.22 1549.52 Q1532.41 1549.52 1529.33 1544.94 Q1526.27 1540.33 1526.27 1531.6 Q1526.27 1522.85 1529.33 1518.27 Q1532.41 1513.66 1538.22 1513.66 Z" fill="#000000" fill-rule="nonzero" fill-opacity="1" /><path clip-path="url(#clip720)" d="M2119.98 1544.91 L2127.62 1544.91 L2127.62 1518.55 L2119.31 1520.21 L2119.31 1515.95 L2127.57 1514.29 L2132.25 1514.29 L2132.25 1544.91 L2139.88 1544.91 L2139.88 1548.85 L2119.98 1548.85 L2119.98 1544.91 Z" fill="#000000" fill-rule="nonzero" fill-opacity="1" /><path clip-path="url(#clip720)" d="M2149.37 1514.29 L2167.73 1514.29 L2167.73 1518.22 L2153.66 1518.22 L2153.66 1526.7 Q2154.68 1526.35 2155.69 1526.19 Q2156.71 1526 2157.73 1526 Q2163.52 1526 2166.9 1529.17 Q2170.28 1532.34 2170.28 1537.76 Q2170.28 1543.34 2166.81 1546.44 Q2163.33 1549.52 2157.01 1549.52 Q2154.84 1549.52 2152.57 1549.15 Q2150.32 1548.78 2147.92 1548.04 L2147.92 1543.34 Q2150 1544.47 2152.22 1545.03 Q2154.44 1545.58 2156.92 1545.58 Q2160.93 1545.58 2163.26 1543.48 Q2165.6 1541.37 2165.6 1537.76 Q2165.6 1534.15 2163.26 1532.04 Q2160.93 1529.94 2156.92 1529.94 Q2155.05 1529.94 2153.17 1530.35 Q2151.32 1530.77 2149.37 1531.65 L2149.37 1514.29 Z" fill="#000000" fill-rule="nonzero" fill-opacity="1" /><path clip-path="url(#clip720)" d="M2189.49 1517.37 Q2185.88 1517.37 2184.05 1520.93 Q2182.24 1524.47 2182.24 1531.6 Q2182.24 1538.71 2184.05 1542.27 Q2185.88 1545.82 2189.49 1545.82 Q2193.12 1545.82 2194.93 1542.27 Q2196.76 1538.71 2196.76 1531.6 Q2196.76 1524.47 2194.93 1520.93 Q2193.12 1517.37 2189.49 1517.37 M2189.49 1513.66 Q2195.3 1513.66 2198.36 1518.27 Q2201.43 1522.85 2201.43 1531.6 Q2201.43 1540.33 2198.36 1544.94 Q2195.3 1549.52 2189.49 1549.52 Q2183.68 1549.52 2180.6 1544.94 Q2177.55 1540.33 2177.55 1531.6 Q2177.55 1522.85 2180.6 1518.27 Q2183.68 1513.66 2189.49 1513.66 Z" fill="#000000" fill-rule="nonzero" fill-opacity="1" /><polyline clip-path="url(#clip722)" style="stroke:#000000; stroke-linecap:round; stroke-linejoin:round; stroke-width:2; stroke-opacity:0.1; fill:none" points="157.447,1141.29 2352.76,1141.29 "/>
<polyline clip-path="url(#clip722)" style="stroke:#000000; stroke-linecap:round; stroke-linejoin:round; stroke-width:2; stroke-opacity:0.1; fill:none" points="157.447,756.912 2352.76,756.912 "/>
<polyline clip-path="url(#clip722)" style="stroke:#000000; stroke-linecap:round; stroke-linejoin:round; stroke-width:2; stroke-opacity:0.1; fill:none" points="157.447,372.533 2352.76,372.533 "/>
<polyline clip-path="url(#clip720)" style="stroke:#000000; stroke-linecap:round; stroke-linejoin:round; stroke-width:4; stroke-opacity:1; fill:none" points="157.447,1486.45 157.447,47.2441 "/>
<polyline clip-path="url(#clip720)" style="stroke:#000000; stroke-linecap:round; stroke-linejoin:round; stroke-width:4; stroke-opacity:1; fill:none" points="157.447,1141.29 176.345,1141.29 "/>
<polyline clip-path="url(#clip720)" style="stroke:#000000; stroke-linecap:round; stroke-linejoin:round; stroke-width:4; stroke-opacity:1; fill:none" points="157.447,756.912 176.345,756.912 "/>
<polyline clip-path="url(#clip720)" style="stroke:#000000; stroke-linecap:round; stroke-linejoin:round; stroke-width:4; stroke-opacity:1; fill:none" points="157.447,372.533 176.345,372.533 "/>
<path clip-path="url(#clip720)" d="M53.4313 1161.08 L61.0702 1161.08 L61.0702 1134.72 L52.7601 1136.38 L52.7601 1132.13 L61.0239 1130.46 L65.6998 1130.46 L65.6998 1161.08 L73.3386 1161.08 L73.3386 1165.02 L53.4313 1165.02 L53.4313 1161.08 Z" fill="#000000" fill-rule="nonzero" fill-opacity="1" /><path clip-path="url(#clip720)" d="M92.783 1133.54 Q89.1719 1133.54 87.3432 1137.1 Q85.5377 1140.64 85.5377 1147.77 Q85.5377 1154.88 87.3432 1158.44 Q89.1719 1161.99 92.783 1161.99 Q96.4172 1161.99 98.2228 1158.44 Q100.051 1154.88 100.051 1147.77 Q100.051 1140.64 98.2228 1137.1 Q96.4172 1133.54 92.783 1133.54 M92.783 1129.83 Q98.5931 1129.83 101.649 1134.44 Q104.727 1139.02 104.727 1147.77 Q104.727 1156.5 101.649 1161.11 Q98.5931 1165.69 92.783 1165.69 Q86.9728 1165.69 83.8941 1161.11 Q80.8386 1156.5 80.8386 1147.77 Q80.8386 1139.02 83.8941 1134.44 Q86.9728 1129.83 92.783 1129.83 Z" fill="#000000" fill-rule="nonzero" fill-opacity="1" /><path clip-path="url(#clip720)" d="M105.273 1134.41 L111.479 1134.41 L111.479 1112.99 L104.727 1114.34 L104.727 1110.88 L111.442 1109.53 L115.241 1109.53 L115.241 1134.41 L121.447 1134.41 L121.447 1137.61 L105.273 1137.61 L105.273 1134.41 Z" fill="#000000" fill-rule="nonzero" fill-opacity="1" /><path clip-path="url(#clip720)" d="M52.3217 776.705 L59.9605 776.705 L59.9605 750.339 L51.6504 752.006 L51.6504 747.746 L59.9142 746.08 L64.5901 746.08 L64.5901 776.705 L72.229 776.705 L72.229 780.64 L52.3217 780.64 L52.3217 776.705 Z" fill="#000000" fill-rule="nonzero" fill-opacity="1" /><path clip-path="url(#clip720)" d="M91.6733 749.158 Q88.0622 749.158 86.2335 752.723 Q84.428 756.265 84.428 763.394 Q84.428 770.501 86.2335 774.066 Q88.0622 777.607 91.6733 777.607 Q95.3076 777.607 97.1131 774.066 Q98.9418 770.501 98.9418 763.394 Q98.9418 756.265 97.1131 752.723 Q95.3076 749.158 91.6733 749.158 M91.6733 745.455 Q97.4835 745.455 100.539 750.061 Q103.618 754.645 103.618 763.394 Q103.618 772.121 100.539 776.728 Q97.4835 781.311 91.6733 781.311 Q85.8632 781.311 82.7845 776.728 Q79.729 772.121 79.729 763.394 Q79.729 754.645 82.7845 750.061 Q85.8632 745.455 91.6733 745.455 Z" fill="#000000" fill-rule="nonzero" fill-opacity="1" /><path clip-path="url(#clip720)" d="M108.188 750.032 L121.447 750.032 L121.447 753.229 L103.618 753.229 L103.618 750.032 Q105.781 747.794 109.505 744.032 Q113.247 740.252 114.206 739.161 Q116.031 737.111 116.746 735.701 Q117.479 734.271 117.479 732.898 Q117.479 730.66 115.899 729.249 Q114.338 727.839 111.818 727.839 Q110.031 727.839 108.038 728.46 Q106.063 729.08 103.806 730.34 L103.806 726.504 Q106.1 725.582 108.094 725.112 Q110.088 724.642 111.743 724.642 Q116.106 724.642 118.702 726.823 Q121.297 729.005 121.297 732.654 Q121.297 734.384 120.639 735.945 Q119.999 737.487 118.288 739.594 Q117.818 740.139 115.297 742.753 Q112.777 745.349 108.188 750.032 Z" fill="#000000" fill-rule="nonzero" fill-opacity="1" /><path clip-path="url(#clip720)" d="M51.6634 392.326 L59.3023 392.326 L59.3023 365.96 L50.9921 367.627 L50.9921 363.367 L59.256 361.701 L63.9319 361.701 L63.9319 392.326 L71.5707 392.326 L71.5707 396.261 L51.6634 396.261 L51.6634 392.326 Z" fill="#000000" fill-rule="nonzero" fill-opacity="1" /><path clip-path="url(#clip720)" d="M91.0151 364.779 Q87.404 364.779 85.5753 368.344 Q83.7697 371.886 83.7697 379.015 Q83.7697 386.122 85.5753 389.687 Q87.404 393.228 91.0151 393.228 Q94.6493 393.228 96.4548 389.687 Q98.2835 386.122 98.2835 379.015 Q98.2835 371.886 96.4548 368.344 Q94.6493 364.779 91.0151 364.779 M91.0151 361.076 Q96.8252 361.076 99.8808 365.682 Q102.959 370.265 102.959 379.015 Q102.959 387.742 99.8808 392.349 Q96.8252 396.932 91.0151 396.932 Q85.2049 396.932 82.1262 392.349 Q79.0707 387.742 79.0707 379.015 Q79.0707 370.265 82.1262 365.682 Q85.2049 361.076 91.0151 361.076 Z" fill="#000000" fill-rule="nonzero" fill-opacity="1" /><path clip-path="url(#clip720)" d="M115.655 353.71 Q118.382 354.293 119.905 356.136 Q121.447 357.979 121.447 360.688 Q121.447 364.844 118.589 367.12 Q115.73 369.396 110.464 369.396 Q108.696 369.396 106.815 369.038 Q104.953 368.7 102.959 368.004 L102.959 364.336 Q104.539 365.258 106.42 365.728 Q108.301 366.198 110.351 366.198 Q113.924 366.198 115.786 364.788 Q117.667 363.377 117.667 360.688 Q117.667 358.205 115.918 356.813 Q114.188 355.403 111.084 355.403 L107.812 355.403 L107.812 352.281 L111.235 352.281 Q114.037 352.281 115.523 351.171 Q117.009 350.043 117.009 347.936 Q117.009 345.773 115.467 344.626 Q113.943 343.46 111.084 343.46 Q109.523 343.46 107.737 343.798 Q105.95 344.137 103.806 344.852 L103.806 341.466 Q105.969 340.864 107.849 340.563 Q109.749 340.263 111.423 340.263 Q115.749 340.263 118.269 342.237 Q120.789 344.193 120.789 347.541 Q120.789 349.873 119.454 351.491 Q118.119 353.089 115.655 353.71 Z" fill="#000000" fill-rule="nonzero" fill-opacity="1" /><polyline clip-path="url(#clip722)" style="stroke:#009af9; stroke-linecap:round; stroke-linejoin:round; stroke-width:4; stroke-opacity:1; fill:none" points="219.579,773.143 232.604,586.993 245.63,497.924 258.655,428.71 271.681,413.343 284.706,421.105 297.732,449.269 310.757,477.071 323.782,508.954 336.808,594.394 349.833,756.389 362.859,1276.41 375.884,1313.1 388.91,1064.14 401.935,876.556 414.961,800.933 427.986,732.31 441.011,727.48 454.037,733.529 467.062,712.249 480.088,710.079 493.113,748.508 506.139,819.516 519.164,985.204 532.19,1387.26 545.215,1445.72 558.24,1154.54 571.266,845.964 584.291,739.44 597.317,651.855 610.342,567.207 623.368,502.782 636.393,495.702 649.419,486.256 662.444,484.052 675.469,464.731 688.495,448.696 701.52,443.74 714.546,480.658 727.571,503.332 740.597,535.662 753.622,567.875 766.648,556.764 779.673,475.207 792.698,474.532 805.724,453.674 818.749,468.904 831.775,442.512 844.8,383.296 857.826,311.992 870.851,263.565 883.877,218.606 896.902,184.53 909.927,161.177 922.953,152.048 935.978,121.138 949.004,101.856 962.029,87.9763 975.055,90.7598 988.08,95.71 1001.11,140.899 1014.13,233.503 1027.16,312.753 1040.18,473.019 1053.21,651.187 1066.23,843.07 1079.26,1191.4 1092.28,998.703 1105.31,755.475 1118.33,625.227 1131.36,504.744 1144.39,492.78 1157.41,578.293 1170.44,537.015 1183.46,582.226 1196.49,585.423 1209.51,517.409 1222.54,450.469 1235.56,436.892 1248.59,430.33 1261.61,446.106 1274.64,486.14 1287.67,551.628 1300.69,711.905 1313.72,1020.76 1326.74,1069.44 1339.77,986.764 1352.79,867.864 1365.82,770.678 1378.84,684.671 1391.87,586.05 1404.89,500.648 1417.92,430.527 1430.95,375.102 1443.97,311.509 1457,276.167 1470.02,289.071 1483.05,292.018 1496.07,306.92 1509.1,325.489 1522.12,334.492 1535.15,348.256 1548.17,372.525 1561.2,393.058 1574.23,395.755 1587.25,393.058 1600.28,377.195 1613.3,361.57 1626.33,345.267 1639.35,330.27 1652.38,310.854 1665.4,300.618 1678.43,291.985 1691.45,278.159 1704.48,261.985 1717.5,250.759 1730.53,240.705 1743.56,237.071 1756.58,234.35 1769.61,235.529 1782.63,236.382 1795.66,238.703 1808.68,237.872 1821.71,242.552 1834.73,244.07 1847.76,243.957 1860.78,243.507 1873.81,247.269 1886.84,247.867 1899.86,251.593 1912.89,253.298 1925.91,258.083 1938.94,262.431 1951.96,269.806 1964.99,269.35 1978.01,269.289 1991.04,269.259 2004.06,271.118 2017.09,269.35 2030.12,270.873 2043.14,268.925 2056.17,265.272 2069.19,253.704 2082.22,243.254 2095.24,231.271 2108.27,223.657 2121.29,220.229 2134.32,223.949 2147.34,231.38 2160.37,255.041 2173.4,278.94 2186.42,306.715 2199.45,337.461 2212.47,380.486 2225.5,428.906 2238.52,493.077 2251.55,563.518 2264.57,646.263 2277.6,725.925 2290.62,1140.21 "/>
<path clip-path="url(#clip720)" d="M2007.62 198.898 L2279.58 198.898 L2279.58 95.2176 L2007.62 95.2176  Z" fill="#ffffff" fill-rule="evenodd" fill-opacity="1"/>
<polyline clip-path="url(#clip720)" style="stroke:#000000; stroke-linecap:round; stroke-linejoin:round; stroke-width:4; stroke-opacity:1; fill:none" points="2007.62,198.898 2279.58,198.898 2279.58,95.2176 2007.62,95.2176 2007.62,198.898 "/>
<polyline clip-path="url(#clip720)" style="stroke:#009af9; stroke-linecap:round; stroke-linejoin:round; stroke-width:4; stroke-opacity:1; fill:none" points="2032.01,147.058 2178.36,147.058 "/>
<path clip-path="url(#clip720)" d="M2216.6 166.745 Q2214.79 171.375 2213.08 172.787 Q2211.37 174.199 2208.5 174.199 L2205.09 174.199 L2205.09 170.634 L2207.59 170.634 Q2209.35 170.634 2210.33 169.8 Q2211.3 168.967 2212.48 165.865 L2213.24 163.921 L2202.76 138.412 L2207.27 138.412 L2215.37 158.689 L2223.47 138.412 L2227.99 138.412 L2216.6 166.745 Z" fill="#000000" fill-rule="nonzero" fill-opacity="1" /><path clip-path="url(#clip720)" d="M2235.28 160.402 L2242.92 160.402 L2242.92 134.037 L2234.61 135.703 L2234.61 131.444 L2242.87 129.778 L2247.55 129.778 L2247.55 160.402 L2255.19 160.402 L2255.19 164.338 L2235.28 164.338 L2235.28 160.402 Z" fill="#000000" fill-rule="nonzero" fill-opacity="1" /></svg>
