<?xml version="1.0" encoding="utf-8"?>
<svg xmlns="http://www.w3.org/2000/svg" xmlns:xlink="http://www.w3.org/1999/xlink" width="600" height="400" viewBox="0 0 2400 1600">
<defs>
  <clipPath id="clip070">
    <rect x="0" y="0" width="2400" height="1600"/>
  </clipPath>
</defs>
<path clip-path="url(#clip070)" d="M0 1600 L2400 1600 L2400 0 L0 0  Z" fill="#ffffff" fill-rule="evenodd" fill-opacity="1"/>
<defs>
  <clipPath id="clip071">
    <rect x="480" y="0" width="1681" height="1600"/>
  </clipPath>
</defs>
<path clip-path="url(#clip070)" d="M186.274 1486.45 L2352.76 1486.45 L2352.76 47.2441 L186.274 47.2441  Z" fill="#ffffff" fill-rule="evenodd" fill-opacity="1"/>
<defs>
  <clipPath id="clip072">
    <rect x="186" y="47" width="2167" height="1440"/>
  </clipPath>
</defs>
<polyline clip-path="url(#clip072)" style="stroke:#000000; stroke-linecap:round; stroke-linejoin:round; stroke-width:2; stroke-opacity:0.1; fill:none" points="227.151,1486.45 227.151,47.2441 "/>
<polyline clip-path="url(#clip072)" style="stroke:#000000; stroke-linecap:round; stroke-linejoin:round; stroke-width:2; stroke-opacity:0.1; fill:none" points="738.114,1486.45 738.114,47.2441 "/>
<polyline clip-path="url(#clip072)" style="stroke:#000000; stroke-linecap:round; stroke-linejoin:round; stroke-width:2; stroke-opacity:0.1; fill:none" points="1249.08,1486.45 1249.08,47.2441 "/>
<polyline clip-path="url(#clip072)" style="stroke:#000000; stroke-linecap:round; stroke-linejoin:round; stroke-width:2; stroke-opacity:0.1; fill:none" points="1760.04,1486.45 1760.04,47.2441 "/>
<polyline clip-path="url(#clip072)" style="stroke:#000000; stroke-linecap:round; stroke-linejoin:round; stroke-width:2; stroke-opacity:0.1; fill:none" points="2271,1486.45 2271,47.2441 "/>
<polyline clip-path="url(#clip070)" style="stroke:#000000; stroke-linecap:round; stroke-linejoin:round; stroke-width:4; stroke-opacity:1; fill:none" points="186.274,1486.45 2352.76,1486.45 "/>
<polyline clip-path="url(#clip070)" style="stroke:#000000; stroke-linecap:round; stroke-linejoin:round; stroke-width:4; stroke-opacity:1; fill:none" points="227.151,1486.45 227.151,1467.55 "/>
<polyline clip-path="url(#clip070)" style="stroke:#000000; stroke-linecap:round; stroke-linejoin:round; stroke-width:4; stroke-opacity:1; fill:none" points="738.114,1486.45 738.114,1467.55 "/>
<polyline clip-path="url(#clip070)" style="stroke:#000000; stroke-linecap:round; stroke-linejoin:round; stroke-width:4; stroke-opacity:1; fill:none" points="1249.08,1486.45 1249.08,1467.55 "/>
<polyline clip-path="url(#clip070)" style="stroke:#000000; stroke-linecap:round; stroke-linejoin:round; stroke-width:4; stroke-opacity:1; fill:none" points="1760.04,1486.45 1760.04,1467.55 "/>
<polyline clip-path="url(#clip070)" style="stroke:#000000; stroke-linecap:round; stroke-linejoin:round; stroke-width:4; stroke-opacity:1; fill:none" points="2271,1486.45 2271,1467.55 "/>
<path clip-path="url(#clip070)" d="M227.151 1517.37 Q223.54 1517.37 221.711 1520.93 Q219.906 1524.47 219.906 1531.6 Q219.906 1538.71 221.711 1542.27 Q223.54 1545.82 227.151 1545.82 Q230.785 1545.82 232.591 1542.27 Q234.419 1538.71 234.419 1531.6 Q234.419 1524.47 232.591 1520.93 Q230.785 1517.37 227.151 1517.37 M227.151 1513.66 Q232.961 1513.66 236.017 1518.27 Q239.095 1522.85 239.095 1531.6 Q239.095 1540.33 236.017 1544.94 Q232.961 1549.52 227.151 1549.52 Q221.341 1549.52 218.262 1544.94 Q215.207 1540.33 215.207 1531.6 Q215.207 1522.85 218.262 1518.27 Q221.341 1513.66 227.151 1513.66 Z" fill="#000000" fill-rule="nonzero" fill-opacity="1" /><path clip-path="url(#clip070)" d="M717.385 1544.91 L733.704 1544.91 L733.704 1548.85 L711.76 1548.85 L711.76 1544.91 Q714.422 1542.16 719.005 1537.53 Q723.611 1532.88 724.792 1531.53 Q727.037 1529.01 727.917 1527.27 Q728.82 1525.51 728.82 1523.82 Q728.82 1521.07 726.875 1519.33 Q724.954 1517.6 721.852 1517.6 Q719.653 1517.6 717.199 1518.36 Q714.769 1519.13 711.991 1520.68 L711.991 1515.95 Q714.815 1514.82 717.269 1514.24 Q719.723 1513.66 721.76 1513.66 Q727.13 1513.66 730.324 1516.35 Q733.519 1519.03 733.519 1523.52 Q733.519 1525.65 732.709 1527.57 Q731.922 1529.47 729.815 1532.07 Q729.236 1532.74 726.135 1535.95 Q723.033 1539.15 717.385 1544.91 Z" fill="#000000" fill-rule="nonzero" fill-opacity="1" /><path clip-path="url(#clip070)" d="M743.565 1514.29 L761.921 1514.29 L761.921 1518.22 L747.847 1518.22 L747.847 1526.7 Q748.866 1526.35 749.885 1526.19 Q750.903 1526 751.922 1526 Q757.709 1526 761.088 1529.17 Q764.468 1532.34 764.468 1537.76 Q764.468 1543.34 760.996 1546.44 Q757.523 1549.52 751.204 1549.52 Q749.028 1549.52 746.76 1549.15 Q744.514 1548.78 742.107 1548.04 L742.107 1543.34 Q744.19 1544.47 746.412 1545.03 Q748.635 1545.58 751.111 1545.58 Q755.116 1545.58 757.454 1543.48 Q759.792 1541.37 759.792 1537.76 Q759.792 1534.15 757.454 1532.04 Q755.116 1529.94 751.111 1529.94 Q749.236 1529.94 747.361 1530.35 Q745.51 1530.77 743.565 1531.65 L743.565 1514.29 Z" fill="#000000" fill-rule="nonzero" fill-opacity="1" /><path clip-path="url(#clip070)" d="M1223.78 1514.29 L1242.13 1514.29 L1242.13 1518.22 L1228.06 1518.22 L1228.06 1526.7 Q1229.08 1526.35 1230.1 1526.19 Q1231.11 1526 1232.13 1526 Q1237.92 1526 1241.3 1529.17 Q1244.68 1532.34 1244.68 1537.76 Q1244.68 1543.34 1241.21 1546.44 Q1237.73 1549.52 1231.41 1549.52 Q1229.24 1549.52 1226.97 1549.15 Q1224.72 1548.78 1222.32 1548.04 L1222.32 1543.34 Q1224.4 1544.47 1226.62 1545.03 Q1228.85 1545.58 1231.32 1545.58 Q1235.33 1545.58 1237.66 1543.48 Q1240 1541.37 1240 1537.76 Q1240 1534.15 1237.66 1532.04 Q1235.33 1529.94 1231.32 1529.94 Q1229.45 1529.94 1227.57 1530.35 Q1225.72 1530.77 1223.78 1531.65 L1223.78 1514.29 Z" fill="#000000" fill-rule="nonzero" fill-opacity="1" /><path clip-path="url(#clip070)" d="M1263.89 1517.37 Q1260.28 1517.37 1258.45 1520.93 Q1256.65 1524.47 1256.65 1531.6 Q1256.65 1538.71 1258.45 1542.27 Q1260.28 1545.82 1263.89 1545.82 Q1267.53 1545.82 1269.33 1542.27 Q1271.16 1538.71 1271.16 1531.6 Q1271.16 1524.47 1269.33 1520.93 Q1267.53 1517.37 1263.89 1517.37 M1263.89 1513.66 Q1269.7 1513.66 1272.76 1518.27 Q1275.84 1522.85 1275.84 1531.6 Q1275.84 1540.33 1272.76 1544.94 Q1269.7 1549.52 1263.89 1549.52 Q1258.08 1549.52 1255 1544.94 Q1251.95 1540.33 1251.95 1531.6 Q1251.95 1522.85 1255 1518.27 Q1258.08 1513.66 1263.89 1513.66 Z" fill="#000000" fill-rule="nonzero" fill-opacity="1" /><path clip-path="url(#clip070)" d="M1733.89 1514.29 L1756.12 1514.29 L1756.12 1516.28 L1743.57 1548.85 L1738.69 1548.85 L1750.49 1518.22 L1733.89 1518.22 L1733.89 1514.29 Z" fill="#000000" fill-rule="nonzero" fill-opacity="1" /><path clip-path="url(#clip070)" d="M1765.28 1514.29 L1783.64 1514.29 L1783.64 1518.22 L1769.56 1518.22 L1769.56 1526.7 Q1770.58 1526.35 1771.6 1526.19 Q1772.62 1526 1773.64 1526 Q1779.43 1526 1782.81 1529.17 Q1786.18 1532.34 1786.18 1537.76 Q1786.18 1543.34 1782.71 1546.44 Q1779.24 1549.52 1772.92 1549.52 Q1770.75 1549.52 1768.48 1549.15 Q1766.23 1548.78 1763.82 1548.04 L1763.82 1543.34 Q1765.91 1544.47 1768.13 1545.03 Q1770.35 1545.58 1772.83 1545.58 Q1776.83 1545.58 1779.17 1543.48 Q1781.51 1541.37 1781.51 1537.76 Q1781.51 1534.15 1779.17 1532.04 Q1776.83 1529.94 1772.83 1529.94 Q1770.95 1529.94 1769.08 1530.35 Q1767.23 1530.77 1765.28 1531.65 L1765.28 1514.29 Z" fill="#000000" fill-rule="nonzero" fill-opacity="1" /><path clip-path="url(#clip070)" d="M2230.61 1544.91 L2238.25 1544.91 L2238.25 1518.55 L2229.94 1520.21 L2229.94 1515.95 L2238.2 1514.29 L2242.88 1514.29 L2242.88 1544.91 L2250.52 1544.91 L2250.52 1548.85 L2230.61 1548.85 L2230.61 1544.91 Z" fill="#000000" fill-rule="nonzero" fill-opacity="1" /><path clip-path="url(#clip070)" d="M2269.96 1517.37 Q2266.35 1517.37 2264.52 1520.93 Q2262.71 1524.47 2262.71 1531.6 Q2262.71 1538.71 2264.52 1542.27 Q2266.35 1545.82 2269.96 1545.82 Q2273.59 1545.82 2275.4 1542.27 Q2277.23 1538.71 2277.23 1531.6 Q2277.23 1524.47 2275.4 1520.93 Q2273.59 1517.37 2269.96 1517.37 M2269.96 1513.66 Q2275.77 1513.66 2278.83 1518.27 Q2281.9 1522.85 2281.9 1531.6 Q2281.9 1540.33 2278.83 1544.94 Q2275.77 1549.52 2269.96 1549.52 Q2264.15 1549.52 2261.07 1544.94 Q2258.02 1540.33 2258.02 1531.6 Q2258.02 1522.85 2261.07 1518.27 Q2264.15 1513.66 2269.96 1513.66 Z" fill="#000000" fill-rule="nonzero" fill-opacity="1" /><path clip-path="url(#clip070)" d="M2300.12 1517.37 Q2296.51 1517.37 2294.68 1520.93 Q2292.88 1524.47 2292.88 1531.6 Q2292.88 1538.71 2294.68 1542.27 Q2296.51 1545.82 2300.12 1545.82 Q2303.76 1545.82 2305.56 1542.27 Q2307.39 1538.71 2307.39 1531.6 Q2307.39 1524.47 2305.56 1520.93 Q2303.76 1517.37 2300.12 1517.37 M2300.12 1513.66 Q2305.93 1513.66 2308.99 1518.27 Q2312.07 1522.85 2312.07 1531.6 Q2312.07 1540.33 2308.99 1544.94 Q2305.93 1549.52 2300.12 1549.52 Q2294.31 1549.52 2291.23 1544.94 Q2288.18 1540.33 2288.18 1531.6 Q2288.18 1522.85 2291.23 1518.27 Q2294.31 1513.66 2300.12 1513.66 Z" fill="#000000" fill-rule="nonzero" fill-opacity="1" /><polyline clip-path="url(#clip072)" style="stroke:#000000; stroke-linecap:round; stroke-linejoin:round; stroke-width:2; stroke-opacity:0.1; fill:none" points="186.274,1445.72 2352.76,1445.72 "/>
<polyline clip-path="url(#clip072)" style="stroke:#000000; stroke-linecap:round; stroke-linejoin:round; stroke-width:2; stroke-opacity:0.1; fill:none" points="186.274,1106.21 2352.76,1106.21 "/>
<polyline clip-path="url(#clip072)" style="stroke:#000000; stroke-linecap:round; stroke-linejoin:round; stroke-width:2; stroke-opacity:0.1; fill:none" points="186.274,766.702 2352.76,766.702 "/>
<polyline clip-path="url(#clip072)" style="stroke:#000000; stroke-linecap:round; stroke-linejoin:round; stroke-width:2; stroke-opacity:0.1; fill:none" points="186.274,427.196 2352.76,427.196 "/>
<polyline clip-path="url(#clip072)" style="stroke:#000000; stroke-linecap:round; stroke-linejoin:round; stroke-width:2; stroke-opacity:0.1; fill:none" points="186.274,87.6893 2352.76,87.6893 "/>
<polyline clip-path="url(#clip070)" style="stroke:#000000; stroke-linecap:round; stroke-linejoin:round; stroke-width:4; stroke-opacity:1; fill:none" points="186.274,1486.45 186.274,47.2441 "/>
<polyline clip-path="url(#clip070)" style="stroke:#000000; stroke-linecap:round; stroke-linejoin:round; stroke-width:4; stroke-opacity:1; fill:none" points="186.274,1445.72 205.172,1445.72 "/>
<polyline clip-path="url(#clip070)" style="stroke:#000000; stroke-linecap:round; stroke-linejoin:round; stroke-width:4; stroke-opacity:1; fill:none" points="186.274,1106.21 205.172,1106.21 "/>
<polyline clip-path="url(#clip070)" style="stroke:#000000; stroke-linecap:round; stroke-linejoin:round; stroke-width:4; stroke-opacity:1; fill:none" points="186.274,766.702 205.172,766.702 "/>
<polyline clip-path="url(#clip070)" style="stroke:#000000; stroke-linecap:round; stroke-linejoin:round; stroke-width:4; stroke-opacity:1; fill:none" points="186.274,427.196 205.172,427.196 "/>
<polyline clip-path="url(#clip070)" style="stroke:#000000; stroke-linecap:round; stroke-linejoin:round; stroke-width:4; stroke-opacity:1; fill:none" points="186.274,87.6893 205.172,87.6893 "/>
<path clip-path="url(#clip070)" d="M62.9365 1431.51 Q59.3254 1431.51 57.4967 1435.08 Q55.6912 1438.62 55.6912 1445.75 Q55.6912 1452.86 57.4967 1456.42 Q59.3254 1459.96 62.9365 1459.96 Q66.5707 1459.96 68.3763 1456.42 Q70.205 1452.86 70.205 1445.75 Q70.205 1438.62 68.3763 1435.08 Q66.5707 1431.51 62.9365 1431.51 M62.9365 1427.81 Q68.7467 1427.81 71.8022 1432.42 Q74.8809 1437 74.8809 1445.75 Q74.8809 1454.48 71.8022 1459.08 Q68.7467 1463.67 62.9365 1463.67 Q57.1264 1463.67 54.0477 1459.08 Q50.9921 1454.48 50.9921 1445.75 Q50.9921 1437 54.0477 1432.42 Q57.1264 1427.81 62.9365 1427.81 Z" fill="#000000" fill-rule="nonzero" fill-opacity="1" /><path clip-path="url(#clip070)" d="M83.0984 1457.12 L87.9827 1457.12 L87.9827 1463 L83.0984 1463 L83.0984 1457.12 Z" fill="#000000" fill-rule="nonzero" fill-opacity="1" /><path clip-path="url(#clip070)" d="M108.168 1431.51 Q104.557 1431.51 102.728 1435.08 Q100.922 1438.62 100.922 1445.75 Q100.922 1452.86 102.728 1456.42 Q104.557 1459.96 108.168 1459.96 Q111.802 1459.96 113.608 1456.42 Q115.436 1452.86 115.436 1445.75 Q115.436 1438.62 113.608 1435.08 Q111.802 1431.51 108.168 1431.51 M108.168 1427.81 Q113.978 1427.81 117.033 1432.42 Q120.112 1437 120.112 1445.75 Q120.112 1454.48 117.033 1459.08 Q113.978 1463.67 108.168 1463.67 Q102.358 1463.67 99.2789 1459.08 Q96.2234 1454.48 96.2234 1445.75 Q96.2234 1437 99.2789 1432.42 Q102.358 1427.81 108.168 1427.81 Z" fill="#000000" fill-rule="nonzero" fill-opacity="1" /><path clip-path="url(#clip070)" d="M138.33 1431.51 Q134.719 1431.51 132.89 1435.08 Q131.084 1438.62 131.084 1445.75 Q131.084 1452.86 132.89 1456.42 Q134.719 1459.96 138.33 1459.96 Q141.964 1459.96 143.769 1456.42 Q145.598 1452.86 145.598 1445.75 Q145.598 1438.62 143.769 1435.08 Q141.964 1431.51 138.33 1431.51 M138.33 1427.81 Q144.14 1427.81 147.195 1432.42 Q150.274 1437 150.274 1445.75 Q150.274 1454.48 147.195 1459.08 Q144.14 1463.67 138.33 1463.67 Q132.519 1463.67 129.441 1459.08 Q126.385 1454.48 126.385 1445.75 Q126.385 1437 129.441 1432.42 Q132.519 1427.81 138.33 1427.81 Z" fill="#000000" fill-rule="nonzero" fill-opacity="1" /><path clip-path="url(#clip070)" d="M63.9319 1092.01 Q60.3208 1092.01 58.4921 1095.57 Q56.6865 1099.11 56.6865 1106.24 Q56.6865 1113.35 58.4921 1116.92 Q60.3208 1120.46 63.9319 1120.46 Q67.5661 1120.46 69.3717 1116.92 Q71.2004 1113.35 71.2004 1106.24 Q71.2004 1099.11 69.3717 1095.57 Q67.5661 1092.01 63.9319 1092.01 M63.9319 1088.3 Q69.742 1088.3 72.7976 1092.91 Q75.8763 1097.49 75.8763 1106.24 Q75.8763 1114.97 72.7976 1119.58 Q69.742 1124.16 63.9319 1124.16 Q58.1217 1124.16 55.043 1119.58 Q51.9875 1114.97 51.9875 1106.24 Q51.9875 1097.49 55.043 1092.91 Q58.1217 1088.3 63.9319 1088.3 Z" fill="#000000" fill-rule="nonzero" fill-opacity="1" /><path clip-path="url(#clip070)" d="M84.0938 1117.61 L88.978 1117.61 L88.978 1123.49 L84.0938 1123.49 L84.0938 1117.61 Z" fill="#000000" fill-rule="nonzero" fill-opacity="1" /><path clip-path="url(#clip070)" d="M103.191 1119.55 L119.51 1119.55 L119.51 1123.49 L97.566 1123.49 L97.566 1119.55 Q100.228 1116.8 104.811 1112.17 Q109.418 1107.52 110.598 1106.17 Q112.844 1103.65 113.723 1101.92 Q114.626 1100.16 114.626 1098.47 Q114.626 1095.71 112.682 1093.98 Q110.76 1092.24 107.658 1092.24 Q105.459 1092.24 103.006 1093 Q100.575 1093.77 97.7974 1095.32 L97.7974 1090.6 Q100.621 1089.46 103.075 1088.88 Q105.529 1088.3 107.566 1088.3 Q112.936 1088.3 116.131 1090.99 Q119.325 1093.67 119.325 1098.17 Q119.325 1100.29 118.515 1102.22 Q117.728 1104.11 115.621 1106.71 Q115.043 1107.38 111.941 1110.6 Q108.839 1113.79 103.191 1119.55 Z" fill="#000000" fill-rule="nonzero" fill-opacity="1" /><path clip-path="url(#clip070)" d="M129.371 1088.93 L147.728 1088.93 L147.728 1092.86 L133.654 1092.86 L133.654 1101.34 Q134.672 1100.99 135.691 1100.83 Q136.709 1100.64 137.728 1100.64 Q143.515 1100.64 146.894 1103.81 Q150.274 1106.98 150.274 1112.4 Q150.274 1117.98 146.802 1121.08 Q143.33 1124.16 137.01 1124.16 Q134.834 1124.16 132.566 1123.79 Q130.32 1123.42 127.913 1122.68 L127.913 1117.98 Q129.996 1119.11 132.219 1119.67 Q134.441 1120.23 136.918 1120.23 Q140.922 1120.23 143.26 1118.12 Q145.598 1116.01 145.598 1112.4 Q145.598 1108.79 143.26 1106.68 Q140.922 1104.58 136.918 1104.58 Q135.043 1104.58 133.168 1104.99 Q131.316 1105.41 129.371 1106.29 L129.371 1088.93 Z" fill="#000000" fill-rule="nonzero" fill-opacity="1" /><path clip-path="url(#clip070)" d="M62.9365 752.501 Q59.3254 752.501 57.4967 756.066 Q55.6912 759.608 55.6912 766.737 Q55.6912 773.844 57.4967 777.408 Q59.3254 780.95 62.9365 780.95 Q66.5707 780.95 68.3763 777.408 Q70.205 773.844 70.205 766.737 Q70.205 759.608 68.3763 756.066 Q66.5707 752.501 62.9365 752.501 M62.9365 748.797 Q68.7467 748.797 71.8022 753.404 Q74.8809 757.987 74.8809 766.737 Q74.8809 775.464 71.8022 780.07 Q68.7467 784.654 62.9365 784.654 Q57.1264 784.654 54.0477 780.07 Q50.9921 775.464 50.9921 766.737 Q50.9921 757.987 54.0477 753.404 Q57.1264 748.797 62.9365 748.797 Z" fill="#000000" fill-rule="nonzero" fill-opacity="1" /><path clip-path="url(#clip070)" d="M83.0984 778.103 L87.9827 778.103 L87.9827 783.982 L83.0984 783.982 L83.0984 778.103 Z" fill="#000000" fill-rule="nonzero" fill-opacity="1" /><path clip-path="url(#clip070)" d="M98.2141 749.422 L116.57 749.422 L116.57 753.358 L102.496 753.358 L102.496 761.83 Q103.515 761.483 104.534 761.321 Q105.552 761.135 106.571 761.135 Q112.358 761.135 115.737 764.307 Q119.117 767.478 119.117 772.895 Q119.117 778.473 115.645 781.575 Q112.172 784.654 105.853 784.654 Q103.677 784.654 101.409 784.283 Q99.1632 783.913 96.7558 783.172 L96.7558 778.473 Q98.8391 779.608 101.061 780.163 Q103.284 780.719 105.76 780.719 Q109.765 780.719 112.103 778.612 Q114.441 776.506 114.441 772.895 Q114.441 769.283 112.103 767.177 Q109.765 765.071 105.76 765.071 Q103.885 765.071 102.01 765.487 Q100.159 765.904 98.2141 766.784 L98.2141 749.422 Z" fill="#000000" fill-rule="nonzero" fill-opacity="1" /><path clip-path="url(#clip070)" d="M138.33 752.501 Q134.719 752.501 132.89 756.066 Q131.084 759.608 131.084 766.737 Q131.084 773.844 132.89 777.408 Q134.719 780.95 138.33 780.95 Q141.964 780.95 143.769 777.408 Q145.598 773.844 145.598 766.737 Q145.598 759.608 143.769 756.066 Q141.964 752.501 138.33 752.501 M138.33 748.797 Q144.14 748.797 147.195 753.404 Q150.274 757.987 150.274 766.737 Q150.274 775.464 147.195 780.07 Q144.14 784.654 138.33 784.654 Q132.519 784.654 129.441 780.07 Q126.385 775.464 126.385 766.737 Q126.385 757.987 129.441 753.404 Q132.519 748.797 138.33 748.797 Z" fill="#000000" fill-rule="nonzero" fill-opacity="1" /><path clip-path="url(#clip070)" d="M63.9319 412.995 Q60.3208 412.995 58.4921 416.559 Q56.6865 420.101 56.6865 427.231 Q56.6865 434.337 58.4921 437.902 Q60.3208 441.444 63.9319 441.444 Q67.5661 441.444 69.3717 437.902 Q71.2004 434.337 71.2004 427.231 Q71.2004 420.101 69.3717 416.559 Q67.5661 412.995 63.9319 412.995 M63.9319 409.291 Q69.742 409.291 72.7976 413.897 Q75.8763 418.481 75.8763 427.231 Q75.8763 435.957 72.7976 440.564 Q69.742 445.147 63.9319 445.147 Q58.1217 445.147 55.043 440.564 Q51.9875 435.957 51.9875 427.231 Q51.9875 418.481 55.043 413.897 Q58.1217 409.291 63.9319 409.291 Z" fill="#000000" fill-rule="nonzero" fill-opacity="1" /><path clip-path="url(#clip070)" d="M84.0938 438.596 L88.978 438.596 L88.978 444.476 L84.0938 444.476 L84.0938 438.596 Z" fill="#000000" fill-rule="nonzero" fill-opacity="1" /><path clip-path="url(#clip070)" d="M97.9826 409.916 L120.205 409.916 L120.205 411.907 L107.658 444.476 L102.774 444.476 L114.58 413.851 L97.9826 413.851 L97.9826 409.916 Z" fill="#000000" fill-rule="nonzero" fill-opacity="1" /><path clip-path="url(#clip070)" d="M129.371 409.916 L147.728 409.916 L147.728 413.851 L133.654 413.851 L133.654 422.323 Q134.672 421.976 135.691 421.814 Q136.709 421.629 137.728 421.629 Q143.515 421.629 146.894 424.8 Q150.274 427.971 150.274 433.388 Q150.274 438.967 146.802 442.069 Q143.33 445.147 137.01 445.147 Q134.834 445.147 132.566 444.777 Q130.32 444.406 127.913 443.666 L127.913 438.967 Q129.996 440.101 132.219 440.656 Q134.441 441.212 136.918 441.212 Q140.922 441.212 143.26 439.106 Q145.598 436.999 145.598 433.388 Q145.598 429.777 143.26 427.67 Q140.922 425.564 136.918 425.564 Q135.043 425.564 133.168 425.981 Q131.316 426.397 129.371 427.277 L129.371 409.916 Z" fill="#000000" fill-rule="nonzero" fill-opacity="1" /><path clip-path="url(#clip070)" d="M53.7467 101.034 L61.3856 101.034 L61.3856 74.6685 L53.0754 76.3352 L53.0754 72.076 L61.3393 70.4093 L66.0152 70.4093 L66.0152 101.034 L73.654 101.034 L73.654 104.969 L53.7467 104.969 L53.7467 101.034 Z" fill="#000000" fill-rule="nonzero" fill-opacity="1" /><path clip-path="url(#clip070)" d="M83.0984 99.0897 L87.9827 99.0897 L87.9827 104.969 L83.0984 104.969 L83.0984 99.0897 Z" fill="#000000" fill-rule="nonzero" fill-opacity="1" /><path clip-path="url(#clip070)" d="M108.168 73.488 Q104.557 73.488 102.728 77.0528 Q100.922 80.5944 100.922 87.724 Q100.922 94.8305 102.728 98.3953 Q104.557 101.937 108.168 101.937 Q111.802 101.937 113.608 98.3953 Q115.436 94.8305 115.436 87.724 Q115.436 80.5944 113.608 77.0528 Q111.802 73.488 108.168 73.488 M108.168 69.7843 Q113.978 69.7843 117.033 74.3908 Q120.112 78.9741 120.112 87.724 Q120.112 96.4508 117.033 101.057 Q113.978 105.641 108.168 105.641 Q102.358 105.641 99.2789 101.057 Q96.2234 96.4508 96.2234 87.724 Q96.2234 78.9741 99.2789 74.3908 Q102.358 69.7843 108.168 69.7843 Z" fill="#000000" fill-rule="nonzero" fill-opacity="1" /><path clip-path="url(#clip070)" d="M138.33 73.488 Q134.719 73.488 132.89 77.0528 Q131.084 80.5944 131.084 87.724 Q131.084 94.8305 132.89 98.3953 Q134.719 101.937 138.33 101.937 Q141.964 101.937 143.769 98.3953 Q145.598 94.8305 145.598 87.724 Q145.598 80.5944 143.769 77.0528 Q141.964 73.488 138.33 73.488 M138.33 69.7843 Q144.14 69.7843 147.195 74.3908 Q150.274 78.9741 150.274 87.724 Q150.274 96.4508 147.195 101.057 Q144.14 105.641 138.33 105.641 Q132.519 105.641 129.441 101.057 Q126.385 96.4508 126.385 87.724 Q126.385 78.9741 129.441 74.3908 Q132.519 69.7843 138.33 69.7843 Z" fill="#000000" fill-rule="nonzero" fill-opacity="1" /><polyline clip-path="url(#clip072)" style="stroke:#009af9; stroke-linecap:round; stroke-linejoin:round; stroke-width:8; stroke-opacity:1; fill:none" points="247.59,1060.04 268.028,970.22 288.467,833.872 308.905,675.937 329.344,599.408 349.782,513.697 370.221,1065.72 390.659,1213.07 411.098,1180.67 431.536,1256.31 451.975,1328.75 472.413,1384.97 492.852,1432.83 513.29,1443.16 533.729,1445.72 554.167,1445.72 574.606,1445.33 595.044,1444.7 615.483,1443.93 635.921,1443.83 656.36,1444.66 676.798,1445.43 697.237,1445.36 717.675,1445.43 738.114,1442.5 758.552,1437.68 778.991,1421.45 799.429,1384.97 819.868,1297.76 840.306,1197.35 860.745,1284.85 881.183,1272.95 901.622,616.755 922.06,948.696 942.499,709.609 962.937,697.11 983.376,1141.23 1003.81,1156.95 1024.25,1167.66 1044.69,1070.7 1065.13,939.545 1085.57,914.641 1106.01,1137.02 1126.45,1231.63 1146.88,1181.92 1167.32,1181.37 1187.76,1197.76 1208.2,1100.03 1228.64,602.884 1249.08,982.082 1269.51,1144.8 1289.95,1058.71 1310.39,1065.75 1330.83,785.021 1351.27,321.993 1371.71,306.592 1392.15,310.419 1412.58,349.703 1433.02,293.295 1453.46,299.29 1473.9,300.47 1494.34,369.951 1514.78,709.896 1535.22,908.136 1555.65,710.98 1576.09,1040.05 1596.53,87.9763 1616.97,1069.58 1637.41,219.095 1657.85,1126.98 1678.29,1260.61 1698.72,1227.35 1719.16,1382.8 1739.6,1357.55 1760.04,1401.55 1780.48,1394.92 1800.92,1391 1821.35,1396.23 1841.79,1375.44 1862.23,1379.9 1882.67,1397.98 1903.11,1398.75 1923.55,1399.54 1943.99,1398.49 1964.42,1393.13 1984.86,1371.67 2005.3,1343.84 2025.74,1291.89 2046.18,1136.48 2066.62,1124.78 2087.06,1169.32 2107.49,1198.27 2127.93,1196.49 2148.37,1199.52 2168.81,1204.56 2189.25,1185.49 2209.69,1176.69 2230.12,1172.19 2250.56,1183.48 2271,1186.67 2291.44,1137.66 "/>
<polyline clip-path="url(#clip072)" style="stroke:#e26f46; stroke-linecap:round; stroke-linejoin:round; stroke-width:8; stroke-opacity:1; fill:none" points="247.59,747.934 268.028,671.646 288.467,565.279 308.905,435.762 329.344,468.847 349.782,572.063 370.221,692.241 390.659,863.04 411.098,1067.76 431.536,1165.81 451.975,1256.1 472.413,1342.47 492.852,1407.45 513.29,1438.49 533.729,1445.72 554.167,1442.68 574.606,1438.44 595.044,1434.64 615.483,1432.44 635.921,1429.15 656.36,1424.67 676.798,1415.25 697.237,1399.2 717.675,1381.06 738.114,1359.5 758.552,1320.46 778.991,1248.37 799.429,1156.41 819.868,1111.3 840.306,1094.25 860.745,968.763 881.183,912.068 901.622,842.502 922.06,715.492 942.499,684.667 962.937,772.127 983.376,816.78 1003.81,862.801 1024.25,894.991 1044.69,870.942 1065.13,878.971 1085.57,909.347 1106.01,940.702 1126.45,984.435 1146.88,1012.37 1167.32,981.815 1187.76,829.848 1208.2,789.279 1228.64,781.506 1249.08,773.151 1269.51,775.156 1289.95,792.939 1310.39,627.225 1330.83,458.014 1351.27,302.456 1371.71,176.578 1392.15,88.1119 1412.58,93.482 1433.02,88.8686 1453.46,99.0999 1473.9,168.093 1494.34,279.25 1514.78,326.915 1535.22,463.745 1555.65,369.271 1576.09,420.204 1596.53,248.244 1616.97,311.911 1637.41,343.948 1657.85,669.327 1678.29,792.824 1698.72,1145.82 1719.16,1268.42 1739.6,1319.97 1760.04,1352 1780.48,1350.87 1800.92,1335.96 1821.35,1318.95 1841.79,1314.5 1862.23,1305.98 1882.67,1303.13 1903.11,1323.27 1923.55,1346.24 1943.99,1338.85 1964.42,1326.92 1984.86,1299.91 2005.3,1219.96 2025.74,1141.68 2046.18,1082.48 2066.62,1044.21 2087.06,1013.33 2107.49,1011.64 2127.93,999.523 2148.37,1004.3 2168.81,987.478 2189.25,980.468 2209.69,978.426 2230.12,968.039 2250.56,969.865 "/>
<polyline clip-path="url(#clip072)" style="stroke:#3da44d; stroke-linecap:round; stroke-linejoin:round; stroke-width:8; stroke-opacity:1; fill:none" points="247.59,555.71 268.028,528.306 288.467,598.525 308.905,647.329 329.344,678.539 349.782,745.656 370.221,856.82 390.659,993.882 411.098,1117.38 431.536,1200.86 451.975,1267.59 472.413,1313.02 492.852,1386.72 513.29,1424.92 533.729,1443.98 554.167,1445.72 574.606,1435.08 595.044,1414.88 615.483,1393.77 635.921,1364.67 656.36,1331.63 676.798,1293.1 697.237,1256.66 717.675,1216.45 738.114,1180.07 758.552,1152.64 778.991,1147.82 799.429,1146.64 819.868,1107.96 840.306,1081.26 860.745,1056.01 881.183,1011.99 901.622,996.131 922.06,1002.35 942.499,994.374 962.937,980.814 983.376,1021.54 1003.81,1023.07 1024.25,1053.49 1044.69,1075.76 1065.13,1054.31 1085.57,1024.31 1106.01,1032.89 1126.45,1010.57 1146.88,918.345 1167.32,851.249 1187.76,804.024 1208.2,764.911 1228.64,739.75 1249.08,691.825 1269.51,623.562 1289.95,538.07 1310.39,450.03 1330.83,347.206 1351.27,277.963 1371.71,200.236 1392.15,173.42 1412.58,147.427 1433.02,170.502 1453.46,227.018 1473.9,257.457 1494.34,346.075 1514.78,299.928 1535.22,390.505 1555.65,329.776 1576.09,389.332 1596.53,452.346 1616.97,503.306 1637.41,583.782 1657.85,617.447 1678.29,643.285 1698.72,941.103 1719.16,1002.85 1739.6,1252.06 1760.04,1288.68 1780.48,1259.14 1800.92,1230.27 1821.35,1205.24 1841.79,1181.15 1862.23,1165.9 1882.67,1150.64 1903.11,1121.57 1923.55,1108.78 1943.99,1127.96 1964.42,1125.8 1984.86,1078.74 2005.3,1045.9 2025.74,1031.69 2046.18,1012.86 2066.62,1003.27 2087.06,1007.24 2107.49,1011.79 2127.93,982.594 2148.37,923.219 2168.81,849.603 2189.25,852.752 2209.69,831.829 "/>
<path clip-path="url(#clip070)" d="M1805.84 302.578 L2280.54 302.578 L2280.54 95.2176 L1805.84 95.2176  Z" fill="#ffffff" fill-rule="evenodd" fill-opacity="1"/>
<polyline clip-path="url(#clip070)" style="stroke:#000000; stroke-linecap:round; stroke-linejoin:round; stroke-width:4; stroke-opacity:1; fill:none" points="1805.84,302.578 2280.54,302.578 2280.54,95.2176 1805.84,95.2176 1805.84,302.578 "/>
<polyline clip-path="url(#clip070)" style="stroke:#009af9; stroke-linecap:round; stroke-linejoin:round; stroke-width:8; stroke-opacity:1; fill:none" points="1829.91,147.058 1974.34,147.058 "/>
<path clip-path="url(#clip070)" d="M2003.09 147.833 L2003.09 160.495 L2010.59 160.495 Q2014.36 160.495 2016.17 158.944 Q2018 157.37 2018 154.152 Q2018 150.912 2016.17 149.384 Q2014.36 147.833 2010.59 147.833 L2003.09 147.833 M2003.09 133.62 L2003.09 144.037 L2010.01 144.037 Q2013.44 144.037 2015.1 142.764 Q2016.79 141.467 2016.79 138.828 Q2016.79 136.213 2015.1 134.916 Q2013.44 133.62 2010.01 133.62 L2003.09 133.62 M1998.41 129.778 L2010.36 129.778 Q2015.71 129.778 2018.6 132 Q2021.49 134.222 2021.49 138.319 Q2021.49 141.49 2020.01 143.365 Q2018.53 145.24 2015.66 145.703 Q2019.11 146.444 2021.01 148.805 Q2022.93 151.143 2022.93 154.662 Q2022.93 159.291 2019.78 161.814 Q2016.63 164.338 2010.82 164.338 L1998.41 164.338 L1998.41 129.778 Z" fill="#000000" fill-rule="nonzero" fill-opacity="1" /><path clip-path="url(#clip070)" d="M2030.75 128.319 L2035.01 128.319 L2035.01 164.338 L2030.75 164.338 L2030.75 128.319 Z" fill="#000000" fill-rule="nonzero" fill-opacity="1" /><path clip-path="url(#clip070)" d="M2053.97 141.398 Q2050.54 141.398 2048.55 144.083 Q2046.56 146.745 2046.56 151.398 Q2046.56 156.051 2048.53 158.736 Q2050.52 161.398 2053.97 161.398 Q2057.37 161.398 2059.36 158.713 Q2061.35 156.027 2061.35 151.398 Q2061.35 146.791 2059.36 144.106 Q2057.37 141.398 2053.97 141.398 M2053.97 137.787 Q2059.52 137.787 2062.7 141.398 Q2065.87 145.009 2065.87 151.398 Q2065.87 157.764 2062.7 161.398 Q2059.52 165.009 2053.97 165.009 Q2048.39 165.009 2045.22 161.398 Q2042.07 157.764 2042.07 151.398 Q2042.07 145.009 2045.22 141.398 Q2048.39 137.787 2053.97 137.787 Z" fill="#000000" fill-rule="nonzero" fill-opacity="1" /><path clip-path="url(#clip070)" d="M2091.58 139.407 L2091.58 143.389 Q2089.78 142.393 2087.95 141.907 Q2086.14 141.398 2084.29 141.398 Q2080.15 141.398 2077.86 144.037 Q2075.57 146.652 2075.57 151.398 Q2075.57 156.143 2077.86 158.782 Q2080.15 161.398 2084.29 161.398 Q2086.14 161.398 2087.95 160.912 Q2089.78 160.402 2091.58 159.407 L2091.58 163.342 Q2089.8 164.176 2087.88 164.592 Q2085.98 165.009 2083.83 165.009 Q2077.97 165.009 2074.52 161.328 Q2071.08 157.648 2071.08 151.398 Q2071.08 145.055 2074.55 141.421 Q2078.04 137.787 2084.11 137.787 Q2086.08 137.787 2087.95 138.203 Q2089.83 138.597 2091.58 139.407 Z" fill="#000000" fill-rule="nonzero" fill-opacity="1" /><path clip-path="url(#clip070)" d="M2098.83 128.319 L2103.11 128.319 L2103.11 149.592 L2115.82 138.412 L2121.26 138.412 L2107.51 150.541 L2121.84 164.338 L2116.28 164.338 L2103.11 151.676 L2103.11 164.338 L2098.83 164.338 L2098.83 128.319 Z" fill="#000000" fill-rule="nonzero" fill-opacity="1" /><path clip-path="url(#clip070)" d="M2142.97 139.176 L2142.97 143.203 Q2141.17 142.277 2139.22 141.815 Q2137.28 141.352 2135.2 141.352 Q2132.02 141.352 2130.43 142.324 Q2128.85 143.296 2128.85 145.24 Q2128.85 146.722 2129.99 147.578 Q2131.12 148.412 2134.55 149.176 L2136.01 149.5 Q2140.54 150.472 2142.44 152.254 Q2144.36 154.014 2144.36 157.185 Q2144.36 160.796 2141.49 162.902 Q2138.64 165.009 2133.64 165.009 Q2131.56 165.009 2129.29 164.592 Q2127.05 164.199 2124.55 163.388 L2124.55 158.99 Q2126.91 160.217 2129.2 160.842 Q2131.49 161.444 2133.74 161.444 Q2136.75 161.444 2138.37 160.426 Q2139.99 159.384 2139.99 157.509 Q2139.99 155.773 2138.81 154.847 Q2137.65 153.921 2133.69 153.064 L2132.21 152.717 Q2128.25 151.884 2126.49 150.171 Q2124.73 148.435 2124.73 145.426 Q2124.73 141.768 2127.32 139.778 Q2129.92 137.787 2134.69 137.787 Q2137.05 137.787 2139.13 138.134 Q2141.21 138.481 2142.97 139.176 Z" fill="#000000" fill-rule="nonzero" fill-opacity="1" /><path clip-path="url(#clip070)" d="M2151.14 138.412 L2155.4 138.412 L2155.4 164.338 L2151.14 164.338 L2151.14 138.412 M2151.14 128.319 L2155.4 128.319 L2155.4 133.713 L2151.14 133.713 L2151.14 128.319 Z" fill="#000000" fill-rule="nonzero" fill-opacity="1" /><path clip-path="url(#clip070)" d="M2162.46 138.412 L2182.7 138.412 L2182.7 142.301 L2166.68 160.935 L2182.7 160.935 L2182.7 164.338 L2161.88 164.338 L2161.88 160.449 L2177.9 141.815 L2162.46 141.815 L2162.46 138.412 Z" fill="#000000" fill-rule="nonzero" fill-opacity="1" /><path clip-path="url(#clip070)" d="M2211.38 150.31 L2211.38 152.393 L2191.79 152.393 Q2192.07 156.791 2194.43 159.106 Q2196.82 161.398 2201.05 161.398 Q2203.51 161.398 2205.8 160.796 Q2208.11 160.194 2210.38 158.99 L2210.38 163.018 Q2208.09 163.99 2205.68 164.5 Q2203.27 165.009 2200.8 165.009 Q2194.59 165.009 2190.96 161.398 Q2187.35 157.787 2187.35 151.629 Q2187.35 145.264 2190.77 141.537 Q2194.22 137.787 2200.06 137.787 Q2205.29 137.787 2208.32 141.166 Q2211.38 144.523 2211.38 150.31 M2207.12 149.06 Q2207.07 145.565 2205.15 143.481 Q2203.25 141.398 2200.1 141.398 Q2196.54 141.398 2194.38 143.412 Q2192.26 145.426 2191.93 149.083 L2207.12 149.06 Z" fill="#000000" fill-rule="nonzero" fill-opacity="1" /><path clip-path="url(#clip070)" d="M2244.04 132.856 Q2240.43 132.856 2238.6 136.421 Q2236.79 139.963 2236.79 147.092 Q2236.79 154.199 2238.6 157.764 Q2240.43 161.305 2244.04 161.305 Q2247.67 161.305 2249.48 157.764 Q2251.31 154.199 2251.31 147.092 Q2251.31 139.963 2249.48 136.421 Q2247.67 132.856 2244.04 132.856 M2244.04 129.153 Q2249.85 129.153 2252.9 133.759 Q2255.98 138.342 2255.98 147.092 Q2255.98 155.819 2252.9 160.426 Q2249.85 165.009 2244.04 165.009 Q2238.23 165.009 2235.15 160.426 Q2232.09 155.819 2232.09 147.092 Q2232.09 138.342 2235.15 133.759 Q2238.23 129.153 2244.04 129.153 Z" fill="#000000" fill-rule="nonzero" fill-opacity="1" /><polyline clip-path="url(#clip070)" style="stroke:#e26f46; stroke-linecap:round; stroke-linejoin:round; stroke-width:8; stroke-opacity:1; fill:none" points="1829.91,198.898 1974.34,198.898 "/>
<path clip-path="url(#clip070)" d="M2003.09 199.673 L2003.09 212.335 L2010.59 212.335 Q2014.36 212.335 2016.17 210.784 Q2018 209.21 2018 205.992 Q2018 202.752 2016.17 201.224 Q2014.36 199.673 2010.59 199.673 L2003.09 199.673 M2003.09 185.46 L2003.09 195.877 L2010.01 195.877 Q2013.44 195.877 2015.1 194.604 Q2016.79 193.307 2016.79 190.668 Q2016.79 188.053 2015.1 186.756 Q2013.44 185.46 2010.01 185.46 L2003.09 185.46 M1998.41 181.618 L2010.36 181.618 Q2015.71 181.618 2018.6 183.84 Q2021.49 186.062 2021.49 190.159 Q2021.49 193.33 2020.01 195.205 Q2018.53 197.08 2015.66 197.543 Q2019.11 198.284 2021.01 200.645 Q2022.93 202.983 2022.93 206.502 Q2022.93 211.131 2019.78 213.654 Q2016.63 216.178 2010.82 216.178 L1998.41 216.178 L1998.41 181.618 Z" fill="#000000" fill-rule="nonzero" fill-opacity="1" /><path clip-path="url(#clip070)" d="M2030.75 180.159 L2035.01 180.159 L2035.01 216.178 L2030.75 216.178 L2030.75 180.159 Z" fill="#000000" fill-rule="nonzero" fill-opacity="1" /><path clip-path="url(#clip070)" d="M2053.97 193.238 Q2050.54 193.238 2048.55 195.923 Q2046.56 198.585 2046.56 203.238 Q2046.56 207.891 2048.53 210.576 Q2050.52 213.238 2053.97 213.238 Q2057.37 213.238 2059.36 210.553 Q2061.35 207.867 2061.35 203.238 Q2061.35 198.631 2059.36 195.946 Q2057.37 193.238 2053.97 193.238 M2053.97 189.627 Q2059.52 189.627 2062.7 193.238 Q2065.87 196.849 2065.87 203.238 Q2065.87 209.604 2062.7 213.238 Q2059.52 216.849 2053.97 216.849 Q2048.39 216.849 2045.22 213.238 Q2042.07 209.604 2042.07 203.238 Q2042.07 196.849 2045.22 193.238 Q2048.39 189.627 2053.97 189.627 Z" fill="#000000" fill-rule="nonzero" fill-opacity="1" /><path clip-path="url(#clip070)" d="M2091.58 191.247 L2091.58 195.229 Q2089.78 194.233 2087.95 193.747 Q2086.14 193.238 2084.29 193.238 Q2080.15 193.238 2077.86 195.877 Q2075.57 198.492 2075.57 203.238 Q2075.57 207.983 2077.86 210.622 Q2080.15 213.238 2084.29 213.238 Q2086.14 213.238 2087.95 212.752 Q2089.78 212.242 2091.58 211.247 L2091.58 215.182 Q2089.8 216.016 2087.88 216.432 Q2085.98 216.849 2083.83 216.849 Q2077.97 216.849 2074.52 213.168 Q2071.08 209.488 2071.08 203.238 Q2071.08 196.895 2074.55 193.261 Q2078.04 189.627 2084.11 189.627 Q2086.08 189.627 2087.95 190.043 Q2089.83 190.437 2091.58 191.247 Z" fill="#000000" fill-rule="nonzero" fill-opacity="1" /><path clip-path="url(#clip070)" d="M2098.83 180.159 L2103.11 180.159 L2103.11 201.432 L2115.82 190.252 L2121.26 190.252 L2107.51 202.381 L2121.84 216.178 L2116.28 216.178 L2103.11 203.516 L2103.11 216.178 L2098.83 216.178 L2098.83 180.159 Z" fill="#000000" fill-rule="nonzero" fill-opacity="1" /><path clip-path="url(#clip070)" d="M2142.97 191.016 L2142.97 195.043 Q2141.17 194.117 2139.22 193.655 Q2137.28 193.192 2135.2 193.192 Q2132.02 193.192 2130.43 194.164 Q2128.85 195.136 2128.85 197.08 Q2128.85 198.562 2129.99 199.418 Q2131.12 200.252 2134.55 201.016 L2136.01 201.34 Q2140.54 202.312 2142.44 204.094 Q2144.36 205.854 2144.36 209.025 Q2144.36 212.636 2141.49 214.742 Q2138.64 216.849 2133.64 216.849 Q2131.56 216.849 2129.29 216.432 Q2127.05 216.039 2124.55 215.228 L2124.55 210.83 Q2126.91 212.057 2129.2 212.682 Q2131.49 213.284 2133.74 213.284 Q2136.75 213.284 2138.37 212.266 Q2139.99 211.224 2139.99 209.349 Q2139.99 207.613 2138.81 206.687 Q2137.65 205.761 2133.69 204.904 L2132.21 204.557 Q2128.25 203.724 2126.49 202.011 Q2124.73 200.275 2124.73 197.266 Q2124.73 193.608 2127.32 191.618 Q2129.92 189.627 2134.69 189.627 Q2137.05 189.627 2139.13 189.974 Q2141.21 190.321 2142.97 191.016 Z" fill="#000000" fill-rule="nonzero" fill-opacity="1" /><path clip-path="url(#clip070)" d="M2151.14 190.252 L2155.4 190.252 L2155.4 216.178 L2151.14 216.178 L2151.14 190.252 M2151.14 180.159 L2155.4 180.159 L2155.4 185.553 L2151.14 185.553 L2151.14 180.159 Z" fill="#000000" fill-rule="nonzero" fill-opacity="1" /><path clip-path="url(#clip070)" d="M2162.46 190.252 L2182.7 190.252 L2182.7 194.141 L2166.68 212.775 L2182.7 212.775 L2182.7 216.178 L2161.88 216.178 L2161.88 212.289 L2177.9 193.655 L2162.46 193.655 L2162.46 190.252 Z" fill="#000000" fill-rule="nonzero" fill-opacity="1" /><path clip-path="url(#clip070)" d="M2211.38 202.15 L2211.38 204.233 L2191.79 204.233 Q2192.07 208.631 2194.43 210.946 Q2196.82 213.238 2201.05 213.238 Q2203.51 213.238 2205.8 212.636 Q2208.11 212.034 2210.38 210.83 L2210.38 214.858 Q2208.09 215.83 2205.68 216.34 Q2203.27 216.849 2200.8 216.849 Q2194.59 216.849 2190.96 213.238 Q2187.35 209.627 2187.35 203.469 Q2187.35 197.104 2190.77 193.377 Q2194.22 189.627 2200.06 189.627 Q2205.29 189.627 2208.32 193.006 Q2211.38 196.363 2211.38 202.15 M2207.12 200.9 Q2207.07 197.405 2205.15 195.321 Q2203.25 193.238 2200.1 193.238 Q2196.54 193.238 2194.38 195.252 Q2192.26 197.266 2191.93 200.923 L2207.12 200.9 Z" fill="#000000" fill-rule="nonzero" fill-opacity="1" /><path clip-path="url(#clip070)" d="M2238.07 212.242 L2254.38 212.242 L2254.38 216.178 L2232.44 216.178 L2232.44 212.242 Q2235.1 209.488 2239.69 204.858 Q2244.29 200.205 2245.47 198.863 Q2247.72 196.34 2248.6 194.604 Q2249.5 192.844 2249.5 191.155 Q2249.5 188.4 2247.56 186.664 Q2245.63 184.928 2242.53 184.928 Q2240.33 184.928 2237.88 185.692 Q2235.45 186.455 2232.67 188.006 L2232.67 183.284 Q2235.5 182.15 2237.95 181.571 Q2240.4 180.993 2242.44 180.993 Q2247.81 180.993 2251 183.678 Q2254.2 186.363 2254.2 190.854 Q2254.2 192.983 2253.39 194.905 Q2252.6 196.803 2250.5 199.395 Q2249.92 200.067 2246.82 203.284 Q2243.71 206.479 2238.07 212.242 Z" fill="#000000" fill-rule="nonzero" fill-opacity="1" /><polyline clip-path="url(#clip070)" style="stroke:#3da44d; stroke-linecap:round; stroke-linejoin:round; stroke-width:8; stroke-opacity:1; fill:none" points="1829.91,250.738 1974.34,250.738 "/>
<path clip-path="url(#clip070)" d="M2003.09 251.513 L2003.09 264.175 L2010.59 264.175 Q2014.36 264.175 2016.17 262.624 Q2018 261.05 2018 257.832 Q2018 254.592 2016.17 253.064 Q2014.36 251.513 2010.59 251.513 L2003.09 251.513 M2003.09 237.3 L2003.09 247.717 L2010.01 247.717 Q2013.44 247.717 2015.1 246.444 Q2016.79 245.147 2016.79 242.508 Q2016.79 239.893 2015.1 238.596 Q2013.44 237.3 2010.01 237.3 L2003.09 237.3 M1998.41 233.458 L2010.36 233.458 Q2015.71 233.458 2018.6 235.68 Q2021.49 237.902 2021.49 241.999 Q2021.49 245.17 2020.01 247.045 Q2018.53 248.92 2015.66 249.383 Q2019.11 250.124 2021.01 252.485 Q2022.93 254.823 2022.93 258.342 Q2022.93 262.971 2019.78 265.494 Q2016.63 268.018 2010.82 268.018 L1998.41 268.018 L1998.41 233.458 Z" fill="#000000" fill-rule="nonzero" fill-opacity="1" /><path clip-path="url(#clip070)" d="M2030.75 231.999 L2035.01 231.999 L2035.01 268.018 L2030.75 268.018 L2030.75 231.999 Z" fill="#000000" fill-rule="nonzero" fill-opacity="1" /><path clip-path="url(#clip070)" d="M2053.97 245.078 Q2050.54 245.078 2048.55 247.763 Q2046.56 250.425 2046.56 255.078 Q2046.56 259.731 2048.53 262.416 Q2050.52 265.078 2053.97 265.078 Q2057.37 265.078 2059.36 262.393 Q2061.35 259.707 2061.35 255.078 Q2061.35 250.471 2059.36 247.786 Q2057.37 245.078 2053.97 245.078 M2053.97 241.467 Q2059.52 241.467 2062.7 245.078 Q2065.87 248.689 2065.87 255.078 Q2065.87 261.444 2062.7 265.078 Q2059.52 268.689 2053.97 268.689 Q2048.39 268.689 2045.22 265.078 Q2042.07 261.444 2042.07 255.078 Q2042.07 248.689 2045.22 245.078 Q2048.39 241.467 2053.97 241.467 Z" fill="#000000" fill-rule="nonzero" fill-opacity="1" /><path clip-path="url(#clip070)" d="M2091.58 243.087 L2091.58 247.069 Q2089.78 246.073 2087.95 245.587 Q2086.14 245.078 2084.29 245.078 Q2080.15 245.078 2077.86 247.717 Q2075.57 250.332 2075.57 255.078 Q2075.57 259.823 2077.86 262.462 Q2080.15 265.078 2084.29 265.078 Q2086.14 265.078 2087.95 264.592 Q2089.78 264.082 2091.58 263.087 L2091.58 267.022 Q2089.8 267.856 2087.88 268.272 Q2085.98 268.689 2083.83 268.689 Q2077.97 268.689 2074.52 265.008 Q2071.08 261.328 2071.08 255.078 Q2071.08 248.735 2074.55 245.101 Q2078.04 241.467 2084.11 241.467 Q2086.08 241.467 2087.95 241.883 Q2089.83 242.277 2091.58 243.087 Z" fill="#000000" fill-rule="nonzero" fill-opacity="1" /><path clip-path="url(#clip070)" d="M2098.83 231.999 L2103.11 231.999 L2103.11 253.272 L2115.82 242.092 L2121.26 242.092 L2107.51 254.221 L2121.84 268.018 L2116.28 268.018 L2103.11 255.356 L2103.11 268.018 L2098.83 268.018 L2098.83 231.999 Z" fill="#000000" fill-rule="nonzero" fill-opacity="1" /><path clip-path="url(#clip070)" d="M2142.97 242.856 L2142.97 246.883 Q2141.17 245.957 2139.22 245.495 Q2137.28 245.032 2135.2 245.032 Q2132.02 245.032 2130.43 246.004 Q2128.85 246.976 2128.85 248.92 Q2128.85 250.402 2129.99 251.258 Q2131.12 252.092 2134.55 252.856 L2136.01 253.18 Q2140.54 254.152 2142.44 255.934 Q2144.36 257.694 2144.36 260.865 Q2144.36 264.476 2141.49 266.582 Q2138.64 268.689 2133.64 268.689 Q2131.56 268.689 2129.29 268.272 Q2127.05 267.879 2124.55 267.068 L2124.55 262.67 Q2126.91 263.897 2129.2 264.522 Q2131.49 265.124 2133.74 265.124 Q2136.75 265.124 2138.37 264.106 Q2139.99 263.064 2139.99 261.189 Q2139.99 259.453 2138.81 258.527 Q2137.65 257.601 2133.69 256.744 L2132.21 256.397 Q2128.25 255.564 2126.49 253.851 Q2124.73 252.115 2124.73 249.106 Q2124.73 245.448 2127.32 243.458 Q2129.92 241.467 2134.69 241.467 Q2137.05 241.467 2139.13 241.814 Q2141.21 242.161 2142.97 242.856 Z" fill="#000000" fill-rule="nonzero" fill-opacity="1" /><path clip-path="url(#clip070)" d="M2151.14 242.092 L2155.4 242.092 L2155.4 268.018 L2151.14 268.018 L2151.14 242.092 M2151.14 231.999 L2155.4 231.999 L2155.4 237.393 L2151.14 237.393 L2151.14 231.999 Z" fill="#000000" fill-rule="nonzero" fill-opacity="1" /><path clip-path="url(#clip070)" d="M2162.46 242.092 L2182.7 242.092 L2182.7 245.981 L2166.68 264.615 L2182.7 264.615 L2182.7 268.018 L2161.88 268.018 L2161.88 264.129 L2177.9 245.495 L2162.46 245.495 L2162.46 242.092 Z" fill="#000000" fill-rule="nonzero" fill-opacity="1" /><path clip-path="url(#clip070)" d="M2211.38 253.99 L2211.38 256.073 L2191.79 256.073 Q2192.07 260.471 2194.43 262.786 Q2196.82 265.078 2201.05 265.078 Q2203.51 265.078 2205.8 264.476 Q2208.11 263.874 2210.38 262.67 L2210.38 266.698 Q2208.09 267.67 2205.68 268.18 Q2203.27 268.689 2200.8 268.689 Q2194.59 268.689 2190.96 265.078 Q2187.35 261.467 2187.35 255.309 Q2187.35 248.944 2190.77 245.217 Q2194.22 241.467 2200.06 241.467 Q2205.29 241.467 2208.32 244.846 Q2211.38 248.203 2211.38 253.99 M2207.12 252.74 Q2207.07 249.245 2205.15 247.161 Q2203.25 245.078 2200.1 245.078 Q2196.54 245.078 2194.38 247.092 Q2192.26 249.106 2191.93 252.763 L2207.12 252.74 Z" fill="#000000" fill-rule="nonzero" fill-opacity="1" /><path clip-path="url(#clip070)" d="M2246.88 237.532 L2235.08 255.981 L2246.88 255.981 L2246.88 237.532 M2245.66 233.458 L2251.54 233.458 L2251.54 255.981 L2256.47 255.981 L2256.47 259.869 L2251.54 259.869 L2251.54 268.018 L2246.88 268.018 L2246.88 259.869 L2231.28 259.869 L2231.28 255.356 L2245.66 233.458 Z" fill="#000000" fill-rule="nonzero" fill-opacity="1" /></svg>
