<?xml version="1.0" encoding="utf-8"?>
<svg xmlns="http://www.w3.org/2000/svg" xmlns:xlink="http://www.w3.org/1999/xlink" width="600" height="400" viewBox="0 0 2400 1600">
<defs>
  <clipPath id="clip160">
    <rect x="0" y="0" width="2400" height="1600"/>
  </clipPath>
</defs>
<path clip-path="url(#clip160)" d="M0 1600 L2400 1600 L2400 0 L0 0  Z" fill="#ffffff" fill-rule="evenodd" fill-opacity="1"/>
<defs>
  <clipPath id="clip161">
    <rect x="480" y="0" width="1681" height="1600"/>
  </clipPath>
</defs>
<path clip-path="url(#clip160)" d="M234.125 1423.18 L2352.76 1423.18 L2352.76 47.2441 L234.125 47.2441  Z" fill="#ffffff" fill-rule="evenodd" fill-opacity="1"/>
<defs>
  <clipPath id="clip162">
    <rect x="234" y="47" width="2120" height="1377"/>
  </clipPath>
</defs>
<polyline clip-path="url(#clip162)" style="stroke:#000000; stroke-linecap:round; stroke-linejoin:round; stroke-width:2; stroke-opacity:0.1; fill:none" points="253.297,1423.18 253.297,47.2441 "/>
<polyline clip-path="url(#clip162)" style="stroke:#000000; stroke-linecap:round; stroke-linejoin:round; stroke-width:2; stroke-opacity:0.1; fill:none" points="661.196,1423.18 661.196,47.2441 "/>
<polyline clip-path="url(#clip162)" style="stroke:#000000; stroke-linecap:round; stroke-linejoin:round; stroke-width:2; stroke-opacity:0.1; fill:none" points="1069.1,1423.18 1069.1,47.2441 "/>
<polyline clip-path="url(#clip162)" style="stroke:#000000; stroke-linecap:round; stroke-linejoin:round; stroke-width:2; stroke-opacity:0.1; fill:none" points="1477,1423.18 1477,47.2441 "/>
<polyline clip-path="url(#clip162)" style="stroke:#000000; stroke-linecap:round; stroke-linejoin:round; stroke-width:2; stroke-opacity:0.1; fill:none" points="1884.9,1423.18 1884.9,47.2441 "/>
<polyline clip-path="url(#clip162)" style="stroke:#000000; stroke-linecap:round; stroke-linejoin:round; stroke-width:2; stroke-opacity:0.1; fill:none" points="2292.79,1423.18 2292.79,47.2441 "/>
<polyline clip-path="url(#clip160)" style="stroke:#000000; stroke-linecap:round; stroke-linejoin:round; stroke-width:4; stroke-opacity:1; fill:none" points="234.125,1423.18 2352.76,1423.18 "/>
<polyline clip-path="url(#clip160)" style="stroke:#000000; stroke-linecap:round; stroke-linejoin:round; stroke-width:4; stroke-opacity:1; fill:none" points="253.297,1423.18 253.297,1404.28 "/>
<polyline clip-path="url(#clip160)" style="stroke:#000000; stroke-linecap:round; stroke-linejoin:round; stroke-width:4; stroke-opacity:1; fill:none" points="661.196,1423.18 661.196,1404.28 "/>
<polyline clip-path="url(#clip160)" style="stroke:#000000; stroke-linecap:round; stroke-linejoin:round; stroke-width:4; stroke-opacity:1; fill:none" points="1069.1,1423.18 1069.1,1404.28 "/>
<polyline clip-path="url(#clip160)" style="stroke:#000000; stroke-linecap:round; stroke-linejoin:round; stroke-width:4; stroke-opacity:1; fill:none" points="1477,1423.18 1477,1404.28 "/>
<polyline clip-path="url(#clip160)" style="stroke:#000000; stroke-linecap:round; stroke-linejoin:round; stroke-width:4; stroke-opacity:1; fill:none" points="1884.9,1423.18 1884.9,1404.28 "/>
<polyline clip-path="url(#clip160)" style="stroke:#000000; stroke-linecap:round; stroke-linejoin:round; stroke-width:4; stroke-opacity:1; fill:none" points="2292.79,1423.18 2292.79,1404.28 "/>
<path clip-path="url(#clip160)" d="M253.297 1454.1 Q249.686 1454.1 247.857 1457.66 Q246.051 1461.2 246.051 1468.33 Q246.051 1475.44 247.857 1479.01 Q249.686 1482.55 253.297 1482.55 Q256.931 1482.55 258.737 1479.01 Q260.565 1475.44 260.565 1468.33 Q260.565 1461.2 258.737 1457.66 Q256.931 1454.1 253.297 1454.1 M253.297 1450.39 Q259.107 1450.39 262.162 1455 Q265.241 1459.58 265.241 1468.33 Q265.241 1477.06 262.162 1481.67 Q259.107 1486.25 253.297 1486.25 Q247.487 1486.25 244.408 1481.67 Q241.352 1477.06 241.352 1468.33 Q241.352 1459.58 244.408 1455 Q247.487 1450.39 253.297 1450.39 Z" fill="#000000" fill-rule="nonzero" fill-opacity="1" /><path clip-path="url(#clip160)" d="M635.884 1481.64 L643.523 1481.64 L643.523 1455.28 L635.213 1456.95 L635.213 1452.69 L643.477 1451.02 L648.152 1451.02 L648.152 1481.64 L655.791 1481.64 L655.791 1485.58 L635.884 1485.58 L635.884 1481.64 Z" fill="#000000" fill-rule="nonzero" fill-opacity="1" /><path clip-path="url(#clip160)" d="M675.236 1454.1 Q671.625 1454.1 669.796 1457.66 Q667.99 1461.2 667.99 1468.33 Q667.99 1475.44 669.796 1479.01 Q671.625 1482.55 675.236 1482.55 Q678.87 1482.55 680.675 1479.01 Q682.504 1475.44 682.504 1468.33 Q682.504 1461.2 680.675 1457.66 Q678.87 1454.1 675.236 1454.1 M675.236 1450.39 Q681.046 1450.39 684.101 1455 Q687.18 1459.58 687.18 1468.33 Q687.18 1477.06 684.101 1481.67 Q681.046 1486.25 675.236 1486.25 Q669.425 1486.25 666.347 1481.67 Q663.291 1477.06 663.291 1468.33 Q663.291 1459.58 666.347 1455 Q669.425 1450.39 675.236 1450.39 Z" fill="#000000" fill-rule="nonzero" fill-opacity="1" /><path clip-path="url(#clip160)" d="M1047.87 1481.64 L1064.19 1481.64 L1064.19 1485.58 L1042.24 1485.58 L1042.24 1481.64 Q1044.91 1478.89 1049.49 1474.26 Q1054.1 1469.61 1055.28 1468.27 Q1057.52 1465.74 1058.4 1464.01 Q1059.3 1462.25 1059.3 1460.56 Q1059.3 1457.8 1057.36 1456.07 Q1055.44 1454.33 1052.34 1454.33 Q1050.14 1454.33 1047.68 1455.09 Q1045.25 1455.86 1042.48 1457.41 L1042.48 1452.69 Q1045.3 1451.55 1047.75 1450.97 Q1050.21 1450.39 1052.24 1450.39 Q1057.61 1450.39 1060.81 1453.08 Q1064 1455.77 1064 1460.26 Q1064 1462.39 1063.19 1464.31 Q1062.41 1466.2 1060.3 1468.8 Q1059.72 1469.47 1056.62 1472.69 Q1053.52 1475.88 1047.87 1481.64 Z" fill="#000000" fill-rule="nonzero" fill-opacity="1" /><path clip-path="url(#clip160)" d="M1084 1454.1 Q1080.39 1454.1 1078.56 1457.66 Q1076.76 1461.2 1076.76 1468.33 Q1076.76 1475.44 1078.56 1479.01 Q1080.39 1482.55 1084 1482.55 Q1087.64 1482.55 1089.44 1479.01 Q1091.27 1475.44 1091.27 1468.33 Q1091.27 1461.2 1089.44 1457.66 Q1087.64 1454.1 1084 1454.1 M1084 1450.39 Q1089.81 1450.39 1092.87 1455 Q1095.95 1459.58 1095.95 1468.33 Q1095.95 1477.06 1092.87 1481.67 Q1089.81 1486.25 1084 1486.25 Q1078.19 1486.25 1075.11 1481.67 Q1072.06 1477.06 1072.06 1468.33 Q1072.06 1459.58 1075.11 1455 Q1078.19 1450.39 1084 1450.39 Z" fill="#000000" fill-rule="nonzero" fill-opacity="1" /><path clip-path="url(#clip160)" d="M1465.84 1466.95 Q1469.19 1467.66 1471.07 1469.93 Q1472.97 1472.2 1472.97 1475.53 Q1472.97 1480.65 1469.45 1483.45 Q1465.93 1486.25 1459.45 1486.25 Q1457.27 1486.25 1454.96 1485.81 Q1452.67 1485.39 1450.21 1484.54 L1450.21 1480.02 Q1452.16 1481.16 1454.47 1481.74 Q1456.79 1482.32 1459.31 1482.32 Q1463.71 1482.32 1466 1480.58 Q1468.31 1478.84 1468.31 1475.53 Q1468.31 1472.48 1466.16 1470.77 Q1464.03 1469.03 1460.21 1469.03 L1456.19 1469.03 L1456.19 1465.19 L1460.4 1465.19 Q1463.85 1465.19 1465.68 1463.82 Q1467.5 1462.43 1467.5 1459.84 Q1467.5 1457.18 1465.61 1455.77 Q1463.73 1454.33 1460.21 1454.33 Q1458.29 1454.33 1456.09 1454.75 Q1453.89 1455.16 1451.25 1456.04 L1451.25 1451.88 Q1453.92 1451.14 1456.23 1450.77 Q1458.57 1450.39 1460.63 1450.39 Q1465.95 1450.39 1469.06 1452.83 Q1472.16 1455.23 1472.16 1459.35 Q1472.16 1462.22 1470.51 1464.21 Q1468.87 1466.18 1465.84 1466.95 Z" fill="#000000" fill-rule="nonzero" fill-opacity="1" /><path clip-path="url(#clip160)" d="M1491.83 1454.1 Q1488.22 1454.1 1486.39 1457.66 Q1484.59 1461.2 1484.59 1468.33 Q1484.59 1475.44 1486.39 1479.01 Q1488.22 1482.55 1491.83 1482.55 Q1495.47 1482.55 1497.27 1479.01 Q1499.1 1475.44 1499.1 1468.33 Q1499.1 1461.2 1497.27 1457.66 Q1495.47 1454.1 1491.83 1454.1 M1491.83 1450.39 Q1497.64 1450.39 1500.7 1455 Q1503.78 1459.58 1503.78 1468.33 Q1503.78 1477.06 1500.7 1481.67 Q1497.64 1486.25 1491.83 1486.25 Q1486.02 1486.25 1482.94 1481.67 Q1479.89 1477.06 1479.89 1468.33 Q1479.89 1459.58 1482.94 1455 Q1486.02 1450.39 1491.83 1450.39 Z" fill="#000000" fill-rule="nonzero" fill-opacity="1" /><path clip-path="url(#clip160)" d="M1873.07 1455.09 L1861.26 1473.54 L1873.07 1473.54 L1873.07 1455.09 M1871.84 1451.02 L1877.72 1451.02 L1877.72 1473.54 L1882.65 1473.54 L1882.65 1477.43 L1877.72 1477.43 L1877.72 1485.58 L1873.07 1485.58 L1873.07 1477.43 L1857.46 1477.43 L1857.46 1472.92 L1871.84 1451.02 Z" fill="#000000" fill-rule="nonzero" fill-opacity="1" /><path clip-path="url(#clip160)" d="M1900.38 1454.1 Q1896.77 1454.1 1894.94 1457.66 Q1893.14 1461.2 1893.14 1468.33 Q1893.14 1475.44 1894.94 1479.01 Q1896.77 1482.55 1900.38 1482.55 Q1904.02 1482.55 1905.82 1479.01 Q1907.65 1475.44 1907.65 1468.33 Q1907.65 1461.2 1905.82 1457.66 Q1904.02 1454.1 1900.38 1454.1 M1900.38 1450.39 Q1906.19 1450.39 1909.25 1455 Q1912.33 1459.58 1912.33 1468.33 Q1912.33 1477.06 1909.25 1481.67 Q1906.19 1486.25 1900.38 1486.25 Q1894.57 1486.25 1891.49 1481.67 Q1888.44 1477.06 1888.44 1468.33 Q1888.44 1459.58 1891.49 1455 Q1894.57 1450.39 1900.38 1450.39 Z" fill="#000000" fill-rule="nonzero" fill-opacity="1" /><path clip-path="url(#clip160)" d="M2267.49 1451.02 L2285.85 1451.02 L2285.85 1454.96 L2271.78 1454.96 L2271.78 1463.43 Q2272.79 1463.08 2273.81 1462.92 Q2274.83 1462.73 2275.85 1462.73 Q2281.64 1462.73 2285.02 1465.9 Q2288.4 1469.08 2288.4 1474.49 Q2288.4 1480.07 2284.92 1483.17 Q2281.45 1486.25 2275.13 1486.25 Q2272.96 1486.25 2270.69 1485.88 Q2268.44 1485.51 2266.04 1484.77 L2266.04 1480.07 Q2268.12 1481.2 2270.34 1481.76 Q2272.56 1482.32 2275.04 1482.32 Q2279.04 1482.32 2281.38 1480.21 Q2283.72 1478.1 2283.72 1474.49 Q2283.72 1470.88 2281.38 1468.77 Q2279.04 1466.67 2275.04 1466.67 Q2273.17 1466.67 2271.29 1467.08 Q2269.44 1467.5 2267.49 1468.38 L2267.49 1451.02 Z" fill="#000000" fill-rule="nonzero" fill-opacity="1" /><path clip-path="url(#clip160)" d="M2307.61 1454.1 Q2304 1454.1 2302.17 1457.66 Q2300.36 1461.2 2300.36 1468.33 Q2300.36 1475.44 2302.17 1479.01 Q2304 1482.55 2307.61 1482.55 Q2311.24 1482.55 2313.05 1479.01 Q2314.88 1475.44 2314.88 1468.33 Q2314.88 1461.2 2313.05 1457.66 Q2311.24 1454.1 2307.61 1454.1 M2307.61 1450.39 Q2313.42 1450.39 2316.48 1455 Q2319.55 1459.58 2319.55 1468.33 Q2319.55 1477.06 2316.48 1481.67 Q2313.42 1486.25 2307.61 1486.25 Q2301.8 1486.25 2298.72 1481.67 Q2295.67 1477.06 2295.67 1468.33 Q2295.67 1459.58 2298.72 1455 Q2301.8 1450.39 2307.61 1450.39 Z" fill="#000000" fill-rule="nonzero" fill-opacity="1" /><path clip-path="url(#clip160)" d="M1157.72 1525.81 L1157.72 1562.76 L1165.49 1562.76 Q1175.32 1562.76 1179.88 1558.3 Q1184.46 1553.85 1184.46 1544.24 Q1184.46 1534.69 1179.88 1530.26 Q1175.32 1525.81 1165.49 1525.81 L1157.72 1525.81 M1151.29 1520.52 L1164.5 1520.52 Q1178.32 1520.52 1184.78 1526.28 Q1191.24 1532.01 1191.24 1544.24 Q1191.24 1556.52 1184.75 1562.28 Q1178.25 1568.04 1164.5 1568.04 L1151.29 1568.04 L1151.29 1520.52 Z" fill="#000000" fill-rule="nonzero" fill-opacity="1" /><path clip-path="url(#clip160)" d="M1201.23 1532.4 L1207.09 1532.4 L1207.09 1568.04 L1201.23 1568.04 L1201.23 1532.4 M1201.23 1518.52 L1207.09 1518.52 L1207.09 1525.93 L1201.23 1525.93 L1201.23 1518.52 Z" fill="#000000" fill-rule="nonzero" fill-opacity="1" /><path clip-path="url(#clip160)" d="M1242.07 1533.45 L1242.07 1538.98 Q1239.59 1537.71 1236.91 1537.07 Q1234.24 1536.44 1231.38 1536.44 Q1227.01 1536.44 1224.82 1537.77 Q1222.65 1539.11 1222.65 1541.79 Q1222.65 1543.82 1224.21 1545 Q1225.77 1546.15 1230.48 1547.2 L1232.49 1547.64 Q1238.73 1548.98 1241.34 1551.43 Q1243.98 1553.85 1243.98 1558.21 Q1243.98 1563.17 1240.03 1566.07 Q1236.12 1568.97 1229.24 1568.97 Q1226.38 1568.97 1223.26 1568.39 Q1220.17 1567.85 1216.73 1566.74 L1216.73 1560.69 Q1219.98 1562.38 1223.13 1563.24 Q1226.28 1564.07 1229.37 1564.07 Q1233.51 1564.07 1235.74 1562.66 Q1237.96 1561.23 1237.96 1558.65 Q1237.96 1556.27 1236.34 1554.99 Q1234.75 1553.72 1229.31 1552.54 L1227.27 1552.07 Q1221.83 1550.92 1219.41 1548.56 Q1216.99 1546.18 1216.99 1542.04 Q1216.99 1537.01 1220.55 1534.27 Q1224.12 1531.54 1230.67 1531.54 Q1233.92 1531.54 1236.79 1532.01 Q1239.65 1532.49 1242.07 1533.45 Z" fill="#000000" fill-rule="nonzero" fill-opacity="1" /><path clip-path="url(#clip160)" d="M1258.97 1562.7 L1258.97 1581.6 L1253.08 1581.6 L1253.08 1532.4 L1258.97 1532.4 L1258.97 1537.81 Q1260.82 1534.62 1263.62 1533.1 Q1266.45 1531.54 1270.36 1531.54 Q1276.86 1531.54 1280.9 1536.69 Q1284.97 1541.85 1284.97 1550.25 Q1284.97 1558.65 1280.9 1563.81 Q1276.86 1568.97 1270.36 1568.97 Q1266.45 1568.97 1263.62 1567.44 Q1260.82 1565.88 1258.97 1562.7 M1278.9 1550.25 Q1278.9 1543.79 1276.22 1540.13 Q1273.58 1536.44 1268.93 1536.44 Q1264.29 1536.44 1261.61 1540.13 Q1258.97 1543.79 1258.97 1550.25 Q1258.97 1556.71 1261.61 1560.4 Q1264.29 1564.07 1268.93 1564.07 Q1273.58 1564.07 1276.22 1560.4 Q1278.9 1556.71 1278.9 1550.25 Z" fill="#000000" fill-rule="nonzero" fill-opacity="1" /><path clip-path="url(#clip160)" d="M1310.88 1550.12 Q1303.78 1550.12 1301.05 1551.75 Q1298.31 1553.37 1298.31 1557.29 Q1298.31 1560.4 1300.35 1562.25 Q1302.42 1564.07 1305.95 1564.07 Q1310.82 1564.07 1313.75 1560.63 Q1316.71 1557.16 1316.71 1551.43 L1316.71 1550.12 L1310.88 1550.12 M1322.56 1547.71 L1322.56 1568.04 L1316.71 1568.04 L1316.71 1562.63 Q1314.7 1565.88 1311.71 1567.44 Q1308.72 1568.97 1304.39 1568.97 Q1298.92 1568.97 1295.67 1565.91 Q1292.45 1562.82 1292.45 1557.67 Q1292.45 1551.65 1296.46 1548.6 Q1300.51 1545.54 1308.5 1545.54 L1316.71 1545.54 L1316.71 1544.97 Q1316.71 1540.93 1314.03 1538.73 Q1311.39 1536.5 1306.59 1536.5 Q1303.53 1536.5 1300.63 1537.23 Q1297.74 1537.97 1295.06 1539.43 L1295.06 1534.02 Q1298.28 1532.78 1301.3 1532.17 Q1304.33 1531.54 1307.19 1531.54 Q1314.92 1531.54 1318.74 1535.55 Q1322.56 1539.56 1322.56 1547.71 Z" fill="#000000" fill-rule="nonzero" fill-opacity="1" /><path clip-path="url(#clip160)" d="M1355.28 1537.87 Q1354.3 1537.3 1353.12 1537.04 Q1351.97 1536.76 1350.57 1536.76 Q1345.61 1536.76 1342.93 1540 Q1340.29 1543.22 1340.29 1549.27 L1340.29 1568.04 L1334.4 1568.04 L1334.4 1532.4 L1340.29 1532.4 L1340.29 1537.93 Q1342.14 1534.69 1345.1 1533.13 Q1348.06 1531.54 1352.29 1531.54 Q1352.9 1531.54 1353.63 1531.63 Q1354.36 1531.7 1355.25 1531.85 L1355.28 1537.87 Z" fill="#000000" fill-rule="nonzero" fill-opacity="1" /><path clip-path="url(#clip160)" d="M1361.43 1532.4 L1367.28 1532.4 L1367.28 1568.04 L1361.43 1568.04 L1361.43 1532.4 M1361.43 1518.52 L1367.28 1518.52 L1367.28 1525.93 L1361.43 1525.93 L1361.43 1518.52 Z" fill="#000000" fill-rule="nonzero" fill-opacity="1" /><path clip-path="url(#clip160)" d="M1385.33 1522.27 L1385.33 1532.4 L1397.39 1532.4 L1397.39 1536.95 L1385.33 1536.95 L1385.33 1556.3 Q1385.33 1560.66 1386.51 1561.9 Q1387.72 1563.14 1391.38 1563.14 L1397.39 1563.14 L1397.39 1568.04 L1391.38 1568.04 Q1384.6 1568.04 1382.02 1565.53 Q1379.44 1562.98 1379.44 1556.3 L1379.44 1536.95 L1375.14 1536.95 L1375.14 1532.4 L1379.44 1532.4 L1379.44 1522.27 L1385.33 1522.27 Z" fill="#000000" fill-rule="nonzero" fill-opacity="1" /><path clip-path="url(#clip160)" d="M1419.93 1571.35 Q1417.44 1577.72 1415.09 1579.66 Q1412.73 1581.6 1408.79 1581.6 L1404.11 1581.6 L1404.11 1576.7 L1407.55 1576.7 Q1409.96 1576.7 1411.3 1575.56 Q1412.64 1574.41 1414.26 1570.14 L1415.31 1567.47 L1400.89 1532.4 L1407.1 1532.4 L1418.24 1560.28 L1429.38 1532.4 L1435.59 1532.4 L1419.93 1571.35 Z" fill="#000000" fill-rule="nonzero" fill-opacity="1" /><polyline clip-path="url(#clip162)" style="stroke:#000000; stroke-linecap:round; stroke-linejoin:round; stroke-width:2; stroke-opacity:0.1; fill:none" points="234.125,1410.73 2352.76,1410.73 "/>
<polyline clip-path="url(#clip162)" style="stroke:#000000; stroke-linecap:round; stroke-linejoin:round; stroke-width:2; stroke-opacity:0.1; fill:none" points="234.125,1079.59 2352.76,1079.59 "/>
<polyline clip-path="url(#clip162)" style="stroke:#000000; stroke-linecap:round; stroke-linejoin:round; stroke-width:2; stroke-opacity:0.1; fill:none" points="234.125,748.457 2352.76,748.457 "/>
<polyline clip-path="url(#clip162)" style="stroke:#000000; stroke-linecap:round; stroke-linejoin:round; stroke-width:2; stroke-opacity:0.1; fill:none" points="234.125,417.322 2352.76,417.322 "/>
<polyline clip-path="url(#clip162)" style="stroke:#000000; stroke-linecap:round; stroke-linejoin:round; stroke-width:2; stroke-opacity:0.1; fill:none" points="234.125,86.1857 2352.76,86.1857 "/>
<polyline clip-path="url(#clip160)" style="stroke:#000000; stroke-linecap:round; stroke-linejoin:round; stroke-width:4; stroke-opacity:1; fill:none" points="234.125,1423.18 234.125,47.2441 "/>
<polyline clip-path="url(#clip160)" style="stroke:#000000; stroke-linecap:round; stroke-linejoin:round; stroke-width:4; stroke-opacity:1; fill:none" points="234.125,1410.73 253.023,1410.73 "/>
<polyline clip-path="url(#clip160)" style="stroke:#000000; stroke-linecap:round; stroke-linejoin:round; stroke-width:4; stroke-opacity:1; fill:none" points="234.125,1079.59 253.023,1079.59 "/>
<polyline clip-path="url(#clip160)" style="stroke:#000000; stroke-linecap:round; stroke-linejoin:round; stroke-width:4; stroke-opacity:1; fill:none" points="234.125,748.457 253.023,748.457 "/>
<polyline clip-path="url(#clip160)" style="stroke:#000000; stroke-linecap:round; stroke-linejoin:round; stroke-width:4; stroke-opacity:1; fill:none" points="234.125,417.322 253.023,417.322 "/>
<polyline clip-path="url(#clip160)" style="stroke:#000000; stroke-linecap:round; stroke-linejoin:round; stroke-width:4; stroke-opacity:1; fill:none" points="234.125,86.1857 253.023,86.1857 "/>
<path clip-path="url(#clip160)" d="M186.181 1396.53 Q182.57 1396.53 180.741 1400.09 Q178.936 1403.63 178.936 1410.76 Q178.936 1417.87 180.741 1421.44 Q182.57 1424.98 186.181 1424.98 Q189.815 1424.98 191.621 1421.44 Q193.45 1417.87 193.45 1410.76 Q193.45 1403.63 191.621 1400.09 Q189.815 1396.53 186.181 1396.53 M186.181 1392.82 Q191.991 1392.82 195.047 1397.43 Q198.125 1402.01 198.125 1410.76 Q198.125 1419.49 195.047 1424.1 Q191.991 1428.68 186.181 1428.68 Q180.371 1428.68 177.292 1424.1 Q174.237 1419.49 174.237 1410.76 Q174.237 1402.01 177.292 1397.43 Q180.371 1392.82 186.181 1392.82 Z" fill="#000000" fill-rule="nonzero" fill-opacity="1" /><path clip-path="url(#clip160)" d="M146.066 1062.31 L164.422 1062.31 L164.422 1066.25 L150.348 1066.25 L150.348 1074.72 Q151.366 1074.37 152.385 1074.21 Q153.403 1074.03 154.422 1074.03 Q160.209 1074.03 163.589 1077.2 Q166.968 1080.37 166.968 1085.79 Q166.968 1091.36 163.496 1094.47 Q160.024 1097.54 153.704 1097.54 Q151.528 1097.54 149.26 1097.17 Q147.015 1096.8 144.607 1096.06 L144.607 1091.36 Q146.691 1092.5 148.913 1093.05 Q151.135 1093.61 153.612 1093.61 Q157.616 1093.61 159.954 1091.5 Q162.292 1089.4 162.292 1085.79 Q162.292 1082.17 159.954 1080.07 Q157.616 1077.96 153.612 1077.96 Q151.737 1077.96 149.862 1078.38 Q148.01 1078.79 146.066 1079.67 L146.066 1062.31 Z" fill="#000000" fill-rule="nonzero" fill-opacity="1" /><path clip-path="url(#clip160)" d="M186.181 1065.39 Q182.57 1065.39 180.741 1068.96 Q178.936 1072.5 178.936 1079.63 Q178.936 1086.73 180.741 1090.3 Q182.57 1093.84 186.181 1093.84 Q189.815 1093.84 191.621 1090.3 Q193.45 1086.73 193.45 1079.63 Q193.45 1072.5 191.621 1068.96 Q189.815 1065.39 186.181 1065.39 M186.181 1061.69 Q191.991 1061.69 195.047 1066.29 Q198.125 1070.88 198.125 1079.63 Q198.125 1088.35 195.047 1092.96 Q191.991 1097.54 186.181 1097.54 Q180.371 1097.54 177.292 1092.96 Q174.237 1088.35 174.237 1079.63 Q174.237 1070.88 177.292 1066.29 Q180.371 1061.69 186.181 1061.69 Z" fill="#000000" fill-rule="nonzero" fill-opacity="1" /><path clip-path="url(#clip160)" d="M116.668 761.802 L124.306 761.802 L124.306 735.437 L115.996 737.103 L115.996 732.844 L124.26 731.177 L128.936 731.177 L128.936 761.802 L136.575 761.802 L136.575 765.737 L116.668 765.737 L116.668 761.802 Z" fill="#000000" fill-rule="nonzero" fill-opacity="1" /><path clip-path="url(#clip160)" d="M156.019 734.256 Q152.408 734.256 150.579 737.821 Q148.774 741.363 148.774 748.492 Q148.774 755.599 150.579 759.163 Q152.408 762.705 156.019 762.705 Q159.653 762.705 161.459 759.163 Q163.288 755.599 163.288 748.492 Q163.288 741.363 161.459 737.821 Q159.653 734.256 156.019 734.256 M156.019 730.552 Q161.829 730.552 164.885 735.159 Q167.964 739.742 167.964 748.492 Q167.964 757.219 164.885 761.825 Q161.829 766.409 156.019 766.409 Q150.209 766.409 147.13 761.825 Q144.075 757.219 144.075 748.492 Q144.075 739.742 147.13 735.159 Q150.209 730.552 156.019 730.552 Z" fill="#000000" fill-rule="nonzero" fill-opacity="1" /><path clip-path="url(#clip160)" d="M186.181 734.256 Q182.57 734.256 180.741 737.821 Q178.936 741.363 178.936 748.492 Q178.936 755.599 180.741 759.163 Q182.57 762.705 186.181 762.705 Q189.815 762.705 191.621 759.163 Q193.45 755.599 193.45 748.492 Q193.45 741.363 191.621 737.821 Q189.815 734.256 186.181 734.256 M186.181 730.552 Q191.991 730.552 195.047 735.159 Q198.125 739.742 198.125 748.492 Q198.125 757.219 195.047 761.825 Q191.991 766.409 186.181 766.409 Q180.371 766.409 177.292 761.825 Q174.237 757.219 174.237 748.492 Q174.237 739.742 177.292 735.159 Q180.371 730.552 186.181 730.552 Z" fill="#000000" fill-rule="nonzero" fill-opacity="1" /><path clip-path="url(#clip160)" d="M116.668 430.666 L124.306 430.666 L124.306 404.301 L115.996 405.967 L115.996 401.708 L124.26 400.042 L128.936 400.042 L128.936 430.666 L136.575 430.666 L136.575 434.602 L116.668 434.602 L116.668 430.666 Z" fill="#000000" fill-rule="nonzero" fill-opacity="1" /><path clip-path="url(#clip160)" d="M146.066 400.042 L164.422 400.042 L164.422 403.977 L150.348 403.977 L150.348 412.449 Q151.366 412.102 152.385 411.94 Q153.403 411.754 154.422 411.754 Q160.209 411.754 163.589 414.926 Q166.968 418.097 166.968 423.514 Q166.968 429.092 163.496 432.194 Q160.024 435.273 153.704 435.273 Q151.528 435.273 149.26 434.902 Q147.015 434.532 144.607 433.791 L144.607 429.092 Q146.691 430.227 148.913 430.782 Q151.135 431.338 153.612 431.338 Q157.616 431.338 159.954 429.231 Q162.292 427.125 162.292 423.514 Q162.292 419.903 159.954 417.796 Q157.616 415.69 153.612 415.69 Q151.737 415.69 149.862 416.106 Q148.01 416.523 146.066 417.403 L146.066 400.042 Z" fill="#000000" fill-rule="nonzero" fill-opacity="1" /><path clip-path="url(#clip160)" d="M186.181 403.12 Q182.57 403.12 180.741 406.685 Q178.936 410.227 178.936 417.356 Q178.936 424.463 180.741 428.027 Q182.57 431.569 186.181 431.569 Q189.815 431.569 191.621 428.027 Q193.45 424.463 193.45 417.356 Q193.45 410.227 191.621 406.685 Q189.815 403.12 186.181 403.12 M186.181 399.417 Q191.991 399.417 195.047 404.023 Q198.125 408.606 198.125 417.356 Q198.125 426.083 195.047 430.69 Q191.991 435.273 186.181 435.273 Q180.371 435.273 177.292 430.69 Q174.237 426.083 174.237 417.356 Q174.237 408.606 177.292 404.023 Q180.371 399.417 186.181 399.417 Z" fill="#000000" fill-rule="nonzero" fill-opacity="1" /><path clip-path="url(#clip160)" d="M119.885 99.5305 L136.204 99.5305 L136.204 103.466 L114.26 103.466 L114.26 99.5305 Q116.922 96.7759 121.505 92.1463 Q126.112 87.4935 127.292 86.151 Q129.538 83.6278 130.417 81.8917 Q131.32 80.1325 131.32 78.4427 Q131.32 75.688 129.376 73.9519 Q127.455 72.2158 124.353 72.2158 Q122.154 72.2158 119.7 72.9797 Q117.269 73.7436 114.492 75.2945 L114.492 70.5723 Q117.316 69.4381 119.769 68.8594 Q122.223 68.2807 124.26 68.2807 Q129.63 68.2807 132.825 70.9658 Q136.019 73.651 136.019 78.1417 Q136.019 80.2714 135.209 82.1926 Q134.422 84.0908 132.316 86.6834 Q131.737 87.3546 128.635 90.5722 Q125.533 93.7667 119.885 99.5305 Z" fill="#000000" fill-rule="nonzero" fill-opacity="1" /><path clip-path="url(#clip160)" d="M156.019 71.9844 Q152.408 71.9844 150.579 75.5492 Q148.774 79.0908 148.774 86.2204 Q148.774 93.3268 150.579 96.8916 Q152.408 100.433 156.019 100.433 Q159.653 100.433 161.459 96.8916 Q163.288 93.3268 163.288 86.2204 Q163.288 79.0908 161.459 75.5492 Q159.653 71.9844 156.019 71.9844 M156.019 68.2807 Q161.829 68.2807 164.885 72.8871 Q167.964 77.4704 167.964 86.2204 Q167.964 94.9472 164.885 99.5537 Q161.829 104.137 156.019 104.137 Q150.209 104.137 147.13 99.5537 Q144.075 94.9472 144.075 86.2204 Q144.075 77.4704 147.13 72.8871 Q150.209 68.2807 156.019 68.2807 Z" fill="#000000" fill-rule="nonzero" fill-opacity="1" /><path clip-path="url(#clip160)" d="M186.181 71.9844 Q182.57 71.9844 180.741 75.5492 Q178.936 79.0908 178.936 86.2204 Q178.936 93.3268 180.741 96.8916 Q182.57 100.433 186.181 100.433 Q189.815 100.433 191.621 96.8916 Q193.45 93.3268 193.45 86.2204 Q193.45 79.0908 191.621 75.5492 Q189.815 71.9844 186.181 71.9844 M186.181 68.2807 Q191.991 68.2807 195.047 72.8871 Q198.125 77.4704 198.125 86.2204 Q198.125 94.9472 195.047 99.5537 Q191.991 104.137 186.181 104.137 Q180.371 104.137 177.292 99.5537 Q174.237 94.9472 174.237 86.2204 Q174.237 77.4704 177.292 72.8871 Q180.371 68.2807 186.181 68.2807 Z" fill="#000000" fill-rule="nonzero" fill-opacity="1" /><path clip-path="url(#clip160)" d="M21.7677 950.755 L58.7206 950.755 L58.7206 942.989 Q58.7206 933.154 54.2646 928.602 Q49.8086 924.019 40.1964 924.019 Q30.6479 924.019 26.2237 928.602 Q21.7677 933.154 21.7677 942.989 L21.7677 950.755 M16.4842 957.184 L16.4842 943.975 Q16.4842 930.162 22.2451 923.701 Q27.9743 917.239 40.1964 917.239 Q52.4822 917.239 58.2432 923.732 Q64.0042 930.225 64.0042 943.975 L64.0042 957.184 L16.4842 957.184 Z" fill="#000000" fill-rule="nonzero" fill-opacity="1" /><path clip-path="url(#clip160)" d="M28.3562 907.245 L28.3562 901.389 L64.0042 901.389 L64.0042 907.245 L28.3562 907.245 M14.479 907.245 L14.479 901.389 L21.895 901.389 L21.895 907.245 L14.479 907.245 Z" fill="#000000" fill-rule="nonzero" fill-opacity="1" /><path clip-path="url(#clip160)" d="M29.4065 866.409 L34.9447 866.409 Q33.6716 868.892 33.035 871.565 Q32.3984 874.239 32.3984 877.104 Q32.3984 881.464 33.7352 883.66 Q35.072 885.825 37.7456 885.825 Q39.7826 885.825 40.9603 884.265 Q42.1061 882.705 43.1565 877.995 L43.6021 875.99 Q44.9389 869.751 47.3897 867.141 Q49.8086 864.499 54.1691 864.499 Q59.1344 864.499 62.0308 868.446 Q64.9272 872.361 64.9272 879.236 Q64.9272 882.101 64.3543 885.22 Q63.8132 888.307 62.6992 891.745 L56.6518 891.745 Q58.3387 888.498 59.198 885.347 Q60.0256 882.196 60.0256 879.109 Q60.0256 874.971 58.6251 872.743 Q57.1929 870.515 54.6147 870.515 Q52.2276 870.515 50.9545 872.138 Q49.6813 873.73 48.5037 879.172 L48.0262 881.209 Q46.8804 886.652 44.5251 889.071 Q42.138 891.49 38.0002 891.49 Q32.9713 891.49 30.2341 887.925 Q27.4968 884.36 27.4968 877.804 Q27.4968 874.557 27.9743 871.693 Q28.4517 868.828 29.4065 866.409 Z" fill="#000000" fill-rule="nonzero" fill-opacity="1" /><path clip-path="url(#clip160)" d="M18.2347 849.381 L28.3562 849.381 L28.3562 837.318 L32.9077 837.318 L32.9077 849.381 L52.2594 849.381 Q56.6199 849.381 57.8613 848.203 Q59.1026 846.994 59.1026 843.333 L59.1026 837.318 L64.0042 837.318 L64.0042 843.333 Q64.0042 850.113 61.4897 852.691 Q58.9434 855.269 52.2594 855.269 L32.9077 855.269 L32.9077 859.566 L28.3562 859.566 L28.3562 855.269 L18.2347 855.269 L18.2347 849.381 Z" fill="#000000" fill-rule="nonzero" fill-opacity="1" /><path clip-path="url(#clip160)" d="M46.0847 813.415 Q46.0847 820.512 47.7079 823.25 Q49.3312 825.987 53.2461 825.987 Q56.3653 825.987 58.2114 823.95 Q60.0256 821.881 60.0256 818.348 Q60.0256 813.478 56.5881 810.55 Q53.1188 807.59 47.3897 807.59 L46.0847 807.59 L46.0847 813.415 M43.6657 801.734 L64.0042 801.734 L64.0042 807.59 L58.5933 807.59 Q61.8398 809.595 63.3994 812.587 Q64.9272 815.579 64.9272 819.908 Q64.9272 825.382 61.8716 828.629 Q58.7843 831.843 53.6281 831.843 Q47.6125 831.843 44.5569 827.833 Q41.5014 823.791 41.5014 815.802 L41.5014 807.59 L40.9285 807.59 Q36.8862 807.59 34.6901 810.264 Q32.4621 812.905 32.4621 817.712 Q32.4621 820.767 33.1941 823.663 Q33.9262 826.56 35.3903 829.233 L29.9795 829.233 Q28.7381 826.019 28.1334 822.995 Q27.4968 819.971 27.4968 817.107 Q27.4968 809.372 31.5072 805.553 Q35.5176 801.734 43.6657 801.734 Z" fill="#000000" fill-rule="nonzero" fill-opacity="1" /><path clip-path="url(#clip160)" d="M42.4881 760.038 L64.0042 760.038 L64.0042 765.895 L42.679 765.895 Q37.6183 765.895 35.1038 767.868 Q32.5894 769.841 32.5894 773.788 Q32.5894 778.531 35.6131 781.268 Q38.6368 784.005 43.8567 784.005 L64.0042 784.005 L64.0042 789.893 L28.3562 789.893 L28.3562 784.005 L33.8944 784.005 Q30.6797 781.904 29.0883 779.072 Q27.4968 776.207 27.4968 772.483 Q27.4968 766.34 31.3163 763.189 Q35.1038 760.038 42.4881 760.038 Z" fill="#000000" fill-rule="nonzero" fill-opacity="1" /><path clip-path="url(#clip160)" d="M29.7248 722.703 L35.1993 722.703 Q33.8307 725.186 33.1623 727.7 Q32.4621 730.183 32.4621 732.729 Q32.4621 738.427 36.0905 741.578 Q39.6872 744.729 46.212 744.729 Q52.7369 744.729 56.3653 741.578 Q59.9619 738.427 59.9619 732.729 Q59.9619 730.183 59.2935 727.7 Q58.5933 725.186 57.2247 722.703 L62.6355 722.703 Q63.7814 725.154 64.3543 727.796 Q64.9272 730.406 64.9272 733.366 Q64.9272 741.419 59.8664 746.161 Q54.8057 750.903 46.212 750.903 Q37.491 750.903 32.4939 746.129 Q27.4968 741.323 27.4968 732.984 Q27.4968 730.279 28.0697 727.7 Q28.6108 725.122 29.7248 722.703 Z" fill="#000000" fill-rule="nonzero" fill-opacity="1" /><path clip-path="url(#clip160)" d="M44.7161 682.026 L47.5806 682.026 L47.5806 708.953 Q53.6281 708.571 56.8109 705.325 Q59.9619 702.047 59.9619 696.222 Q59.9619 692.848 59.1344 689.697 Q58.3069 686.514 56.6518 683.395 L62.1899 683.395 Q63.5267 686.546 64.227 689.856 Q64.9272 693.166 64.9272 696.572 Q64.9272 705.102 59.9619 710.099 Q54.9967 715.065 46.5303 715.065 Q37.7774 715.065 32.6531 710.354 Q27.4968 705.611 27.4968 697.591 Q27.4968 690.397 32.1438 686.228 Q36.7589 682.026 44.7161 682.026 M42.9973 687.883 Q38.1912 687.947 35.3266 690.588 Q32.4621 693.198 32.4621 697.527 Q32.4621 702.429 35.2312 705.389 Q38.0002 708.317 43.0292 708.762 L42.9973 687.883 Z" fill="#000000" fill-rule="nonzero" fill-opacity="1" /><path clip-path="url(#clip160)" d="M14.479 652.235 L14.479 638.74 L19.0304 638.74 L19.0304 646.379 L68.0464 646.379 L68.0464 638.74 L72.5979 638.74 L72.5979 652.235 L14.479 652.235 Z" fill="#000000" fill-rule="nonzero" fill-opacity="1" /><path clip-path="url(#clip160)" d="M29.7248 600.609 L35.1993 600.609 Q33.8307 603.092 33.1623 605.606 Q32.4621 608.089 32.4621 610.635 Q32.4621 616.332 36.0905 619.483 Q39.6872 622.634 46.212 622.634 Q52.7369 622.634 56.3653 619.483 Q59.9619 616.332 59.9619 610.635 Q59.9619 608.089 59.2935 605.606 Q58.5933 603.092 57.2247 600.609 L62.6355 600.609 Q63.7814 603.06 64.3543 605.702 Q64.9272 608.312 64.9272 611.272 Q64.9272 619.324 59.8664 624.067 Q54.8057 628.809 46.212 628.809 Q37.491 628.809 32.4939 624.035 Q27.4968 619.229 27.4968 610.89 Q27.4968 608.184 28.0697 605.606 Q28.6108 603.028 29.7248 600.609 Z" fill="#000000" fill-rule="nonzero" fill-opacity="1" /><path clip-path="url(#clip160)" d="M35.1993 562.669 Q31.2526 560.473 29.3747 557.418 Q27.4968 554.362 27.4968 550.225 Q27.4968 544.655 31.4117 541.631 Q35.2948 538.607 42.4881 538.607 L64.0042 538.607 L64.0042 544.495 L42.679 544.495 Q37.5546 544.495 35.072 546.31 Q32.5894 548.124 32.5894 551.848 Q32.5894 556.399 35.6131 559.041 Q38.6368 561.683 43.8567 561.683 L64.0042 561.683 L64.0042 567.571 L42.679 567.571 Q37.5228 567.571 35.072 569.385 Q32.5894 571.2 32.5894 574.987 Q32.5894 579.475 35.6449 582.117 Q38.6686 584.758 43.8567 584.758 L64.0042 584.758 L64.0042 590.647 L28.3562 590.647 L28.3562 584.758 L33.8944 584.758 Q30.616 582.753 29.0564 579.952 Q27.4968 577.151 27.4968 573.3 Q27.4968 569.417 29.4702 566.712 Q31.4436 563.974 35.1993 562.669 Z" fill="#000000" fill-rule="nonzero" fill-opacity="1" /><path clip-path="url(#clip160)" d="M14.479 513.24 L72.5979 513.24 L72.5979 526.735 L68.0464 526.735 L68.0464 519.128 L19.0304 519.128 L19.0304 526.735 L14.479 526.735 L14.479 513.24 Z" fill="#000000" fill-rule="nonzero" fill-opacity="1" /><polyline clip-path="url(#clip162)" style="stroke:#009af9; stroke-linecap:round; stroke-linejoin:round; stroke-width:4; stroke-opacity:1; fill:none" points="294.087,86.1857 334.877,748.457 375.667,969.215 416.457,1079.59 457.247,1145.82 498.036,1189.97 538.826,1221.51 579.616,1245.16 620.406,1263.56 661.196,1278.27 701.986,1290.32 742.776,1300.35 783.566,1308.84 824.356,1316.12 865.146,1322.43 905.936,1327.95 946.726,1332.81 987.516,1337.14 1028.31,1341.02 1069.1,1344.5 1109.89,1347.66 1150.68,1350.52 1191.47,1353.14 1232.26,1355.54 1273.05,1357.75 1313.84,1359.79 1354.63,1361.67 1395.42,1363.42 1436.21,1365.06 1477,1366.58 1517.79,1368 1558.58,1369.34 1599.37,1370.59 1640.16,1371.77 1680.95,1372.89 1721.74,1373.94 1762.53,1374.93 1803.32,1375.87 1844.11,1376.77 1884.9,1377.62 1925.69,1378.42 1966.47,1379.19 2007.26,1379.93 2048.05,1380.63 2088.84,1381.29 2129.63,1381.93 2170.42,1382.55 2211.21,1383.13 2252,1383.7 2292.79,1384.24 "/>
<path clip-path="url(#clip160)" d="M1747.4 196.789 L2282.13 196.789 L2282.13 93.1086 L1747.4 93.1086  Z" fill="#ffffff" fill-rule="evenodd" fill-opacity="1"/>
<polyline clip-path="url(#clip160)" style="stroke:#000000; stroke-linecap:round; stroke-linejoin:round; stroke-width:4; stroke-opacity:1; fill:none" points="1747.4,196.789 2282.13,196.789 2282.13,93.1086 1747.4,93.1086 1747.4,196.789 "/>
<polyline clip-path="url(#clip160)" style="stroke:#009af9; stroke-linecap:round; stroke-linejoin:round; stroke-width:4; stroke-opacity:1; fill:none" points="1770.94,144.949 1912.19,144.949 "/>
<path clip-path="url(#clip160)" d="M1940.4 131.511 L1940.4 158.386 L1946.05 158.386 Q1953.2 158.386 1956.51 155.145 Q1959.85 151.905 1959.85 144.914 Q1959.85 137.969 1956.51 134.752 Q1953.2 131.511 1946.05 131.511 L1940.4 131.511 M1935.73 127.669 L1945.33 127.669 Q1955.38 127.669 1960.08 131.858 Q1964.78 136.025 1964.78 144.914 Q1964.78 153.849 1960.05 158.039 Q1955.33 162.229 1945.33 162.229 L1935.73 162.229 L1935.73 127.669 Z" fill="#000000" fill-rule="nonzero" fill-opacity="1" /><path clip-path="url(#clip160)" d="M1972.05 136.303 L1976.3 136.303 L1976.3 162.229 L1972.05 162.229 L1972.05 136.303 M1972.05 126.21 L1976.3 126.21 L1976.3 131.604 L1972.05 131.604 L1972.05 126.21 Z" fill="#000000" fill-rule="nonzero" fill-opacity="1" /><path clip-path="url(#clip160)" d="M2001.74 137.067 L2001.74 141.094 Q1999.94 140.169 1997.99 139.706 Q1996.05 139.243 1993.97 139.243 Q1990.8 139.243 1989.2 140.215 Q1987.62 141.187 1987.62 143.131 Q1987.62 144.613 1988.76 145.469 Q1989.89 146.303 1993.32 147.067 L1994.78 147.391 Q1999.31 148.363 2001.21 150.145 Q2003.13 151.905 2003.13 155.076 Q2003.13 158.687 2000.26 160.793 Q1997.42 162.9 1992.42 162.9 Q1990.33 162.9 1988.06 162.483 Q1985.82 162.09 1983.32 161.28 L1983.32 156.881 Q1985.68 158.108 1987.97 158.733 Q1990.26 159.335 1992.51 159.335 Q1995.52 159.335 1997.14 158.317 Q1998.76 157.275 1998.76 155.4 Q1998.76 153.664 1997.58 152.738 Q1996.42 151.812 1992.46 150.956 L1990.98 150.608 Q1987.02 149.775 1985.26 148.062 Q1983.5 146.326 1983.5 143.317 Q1983.5 139.659 1986.1 137.669 Q1988.69 135.678 1993.46 135.678 Q1995.82 135.678 1997.9 136.025 Q1999.98 136.372 2001.74 137.067 Z" fill="#000000" fill-rule="nonzero" fill-opacity="1" /><path clip-path="url(#clip160)" d="M2014.13 128.942 L2014.13 136.303 L2022.9 136.303 L2022.9 139.613 L2014.13 139.613 L2014.13 153.687 Q2014.13 156.858 2014.98 157.761 Q2015.86 158.664 2018.53 158.664 L2022.9 158.664 L2022.9 162.229 L2018.53 162.229 Q2013.6 162.229 2011.72 160.4 Q2009.85 158.548 2009.85 153.687 L2009.85 139.613 L2006.72 139.613 L2006.72 136.303 L2009.85 136.303 L2009.85 128.942 L2014.13 128.942 Z" fill="#000000" fill-rule="nonzero" fill-opacity="1" /><path clip-path="url(#clip160)" d="M2040.29 149.196 Q2035.12 149.196 2033.13 150.377 Q2031.14 151.557 2031.14 154.405 Q2031.14 156.673 2032.62 158.016 Q2034.13 159.335 2036.7 159.335 Q2040.24 159.335 2042.37 156.835 Q2044.52 154.312 2044.52 150.145 L2044.52 149.196 L2040.29 149.196 M2048.78 147.437 L2048.78 162.229 L2044.52 162.229 L2044.52 158.293 Q2043.06 160.655 2040.89 161.789 Q2038.71 162.9 2035.56 162.9 Q2031.58 162.9 2029.22 160.678 Q2026.88 158.432 2026.88 154.682 Q2026.88 150.307 2029.8 148.085 Q2032.74 145.863 2038.55 145.863 L2044.52 145.863 L2044.52 145.446 Q2044.52 142.507 2042.58 140.909 Q2040.66 139.289 2037.16 139.289 Q2034.94 139.289 2032.83 139.821 Q2030.73 140.354 2028.78 141.419 L2028.78 137.483 Q2031.12 136.581 2033.32 136.141 Q2035.52 135.678 2037.6 135.678 Q2043.23 135.678 2046 138.594 Q2048.78 141.511 2048.78 147.437 Z" fill="#000000" fill-rule="nonzero" fill-opacity="1" /><path clip-path="url(#clip160)" d="M2079.1 146.581 L2079.1 162.229 L2074.85 162.229 L2074.85 146.719 Q2074.85 143.039 2073.41 141.21 Q2071.98 139.382 2069.1 139.382 Q2065.66 139.382 2063.67 141.581 Q2061.67 143.78 2061.67 147.576 L2061.67 162.229 L2057.39 162.229 L2057.39 136.303 L2061.67 136.303 L2061.67 140.331 Q2063.2 137.993 2065.26 136.835 Q2067.35 135.678 2070.05 135.678 Q2074.52 135.678 2076.81 138.456 Q2079.1 141.21 2079.1 146.581 Z" fill="#000000" fill-rule="nonzero" fill-opacity="1" /><path clip-path="url(#clip160)" d="M2106.26 137.298 L2106.26 141.28 Q2104.45 140.284 2102.62 139.798 Q2100.82 139.289 2098.97 139.289 Q2094.82 139.289 2092.53 141.928 Q2090.24 144.544 2090.24 149.289 Q2090.24 154.034 2092.53 156.673 Q2094.82 159.289 2098.97 159.289 Q2100.82 159.289 2102.62 158.803 Q2104.45 158.293 2106.26 157.298 L2106.26 161.233 Q2104.48 162.067 2102.55 162.483 Q2100.66 162.9 2098.5 162.9 Q2092.65 162.9 2089.2 159.219 Q2085.75 155.539 2085.75 149.289 Q2085.75 142.946 2089.22 139.312 Q2092.72 135.678 2098.78 135.678 Q2100.75 135.678 2102.62 136.095 Q2104.5 136.488 2106.26 137.298 Z" fill="#000000" fill-rule="nonzero" fill-opacity="1" /><path clip-path="url(#clip160)" d="M2135.84 148.201 L2135.84 150.284 L2116.26 150.284 Q2116.54 154.682 2118.9 156.997 Q2121.28 159.289 2125.52 159.289 Q2127.97 159.289 2130.26 158.687 Q2132.58 158.085 2134.85 156.881 L2134.85 160.909 Q2132.55 161.881 2130.15 162.391 Q2127.74 162.9 2125.26 162.9 Q2119.06 162.9 2115.42 159.289 Q2111.81 155.678 2111.81 149.52 Q2111.81 143.155 2115.24 139.428 Q2118.69 135.678 2124.52 135.678 Q2129.75 135.678 2132.79 139.057 Q2135.84 142.414 2135.84 148.201 M2131.58 146.951 Q2131.54 143.456 2129.61 141.372 Q2127.72 139.289 2124.57 139.289 Q2121 139.289 2118.85 141.303 Q2116.72 143.317 2116.4 146.974 L2131.58 146.951 Z" fill="#000000" fill-rule="nonzero" fill-opacity="1" /><path clip-path="url(#clip160)" d="M2157.51 126.21 L2167.32 126.21 L2167.32 129.52 L2161.77 129.52 L2161.77 165.168 L2167.32 165.168 L2167.32 168.479 L2157.51 168.479 L2157.51 126.21 Z" fill="#000000" fill-rule="nonzero" fill-opacity="1" /><path clip-path="url(#clip160)" d="M2195.05 137.298 L2195.05 141.28 Q2193.25 140.284 2191.42 139.798 Q2189.61 139.289 2187.76 139.289 Q2183.62 139.289 2181.33 141.928 Q2179.03 144.544 2179.03 149.289 Q2179.03 154.034 2181.33 156.673 Q2183.62 159.289 2187.76 159.289 Q2189.61 159.289 2191.42 158.803 Q2193.25 158.293 2195.05 157.298 L2195.05 161.233 Q2193.27 162.067 2191.35 162.483 Q2189.45 162.9 2187.3 162.9 Q2181.44 162.9 2177.99 159.219 Q2174.54 155.539 2174.54 149.289 Q2174.54 142.946 2178.02 139.312 Q2181.51 135.678 2187.58 135.678 Q2189.54 135.678 2191.42 136.095 Q2193.29 136.488 2195.05 137.298 Z" fill="#000000" fill-rule="nonzero" fill-opacity="1" /><path clip-path="url(#clip160)" d="M2222.65 141.28 Q2224.24 138.409 2226.47 137.044 Q2228.69 135.678 2231.7 135.678 Q2235.75 135.678 2237.95 138.525 Q2240.15 141.349 2240.15 146.581 L2240.15 162.229 L2235.86 162.229 L2235.86 146.719 Q2235.86 142.993 2234.54 141.187 Q2233.22 139.382 2230.52 139.382 Q2227.21 139.382 2225.28 141.581 Q2223.36 143.78 2223.36 147.576 L2223.36 162.229 L2219.08 162.229 L2219.08 146.719 Q2219.08 142.969 2217.76 141.187 Q2216.44 139.382 2213.69 139.382 Q2210.42 139.382 2208.5 141.604 Q2206.58 143.803 2206.58 147.576 L2206.58 162.229 L2202.3 162.229 L2202.3 136.303 L2206.58 136.303 L2206.58 140.331 Q2208.04 137.946 2210.08 136.812 Q2212.11 135.678 2214.91 135.678 Q2217.74 135.678 2219.71 137.113 Q2221.7 138.548 2222.65 141.28 Z" fill="#000000" fill-rule="nonzero" fill-opacity="1" /><path clip-path="url(#clip160)" d="M2258.59 126.21 L2258.59 168.479 L2248.78 168.479 L2248.78 165.168 L2254.31 165.168 L2254.31 129.52 L2248.78 129.52 L2248.78 126.21 L2258.59 126.21 Z" fill="#000000" fill-rule="nonzero" fill-opacity="1" /></svg>
