<?xml version="1.0" encoding="UTF-8"?>
<!DOCTYPE svg PUBLIC "-//W3C//DTD SVG 1.1//EN"
 "http://www.w3.org/Graphics/SVG/1.1/DTD/svg11.dtd">
<svg xmlns="http://www.w3.org/2000/svg" version="1.1"
     width="150mm" height="150mm"
     viewBox="0 0 8 8" preserveAspectRatio="none"
     shape-rendering="crispEdges" stroke="none">
<rect width=".95" height=".95" x="0" y="0" fill="#FFFFFF" />
<rect width=".95" height=".95" x="1" y="0" fill="#000000" />
<rect width=".95" height=".95" x="2" y="0" fill="#FFFFFF" />
<rect width=".95" height=".95" x="3" y="0" fill="#FFFFFF" />
<rect width=".95" height=".95" x="4" y="0" fill="#FFFFFF" />
<rect width=".95" height=".95" x="5" y="0" fill="#FFFFFF" />
<rect width=".95" height=".95" x="6" y="0" fill="#FFFFFF" />
<rect width=".95" height=".95" x="7" y="0" fill="#FFFFFF" />
<rect width=".95" height=".95" x="0" y="1" fill="#FFFFFF" />
<rect width=".95" height=".95" x="1" y="1" fill="#000000" />
<rect width=".95" height=".95" x="2" y="1" fill="#FFFFFF" />
<rect width=".95" height=".95" x="3" y="1" fill="#FFFFFF" />
<rect width=".95" height=".95" x="4" y="1" fill="#FFFFFF" />
<rect width=".95" height=".95" x="5" y="1" fill="#FFFFFF" />
<rect width=".95" height=".95" x="6" y="1" fill="#FFFFFF" />
<rect width=".95" height=".95" x="7" y="1" fill="#FFFFFF" />
<rect width=".95" height=".95" x="0" y="2" fill="#FFFFFF" />
<rect width=".95" height=".95" x="1" y="2" fill="#000000" />
<rect width=".95" height=".95" x="2" y="2" fill="#FFFFFF" />
<rect width=".95" height=".95" x="3" y="2" fill="#FFFFFF" />
<rect width=".95" height=".95" x="4" y="2" fill="#FFFFFF" />
<rect width=".95" height=".95" x="5" y="2" fill="#FFFFFF" />
<rect width=".95" height=".95" x="6" y="2" fill="#FFFFFF" />
<rect width=".95" height=".95" x="7" y="2" fill="#FFFFFF" />
<rect width=".95" height=".95" x="0" y="3" fill="#FFFFFF" />
<rect width=".95" height=".95" x="1" y="3" fill="#FFFFFF" />
<rect width=".95" height=".95" x="2" y="3" fill="#FFFFFF" />
<rect width=".95" height=".95" x="3" y="3" fill="#FFFFFF" />
<rect width=".95" height=".95" x="4" y="3" fill="#FFFFFF" />
<rect width=".95" height=".95" x="5" y="3" fill="#FFFFFF" />
<rect width=".95" height=".95" x="6" y="3" fill="#FFFFFF" />
<rect width=".95" height=".95" x="7" y="3" fill="#FFFFFF" />
<rect width=".95" height=".95" x="0" y="4" fill="#FFFFFF" />
<rect width=".95" height=".95" x="1" y="4" fill="#FFFFFF" />
<rect width=".95" height=".95" x="2" y="4" fill="#FFFFFF" />
<rect width=".95" height=".95" x="3" y="4" fill="#FFFFFF" />
<rect width=".95" height=".95" x="4" y="4" fill="#FFFFFF" />
<rect width=".95" height=".95" x="5" y="4" fill="#FFFFFF" />
<rect width=".95" height=".95" x="6" y="4" fill="#FFFFFF" />
<rect width=".95" height=".95" x="7" y="4" fill="#FFFFFF" />
<rect width=".95" height=".95" x="0" y="5" fill="#FFFFFF" />
<rect width=".95" height=".95" x="1" y="5" fill="#000000" />
<rect width=".95" height=".95" x="2" y="5" fill="#FFFFFF" />
<rect width=".95" height=".95" x="3" y="5" fill="#FFFFFF" />
<rect width=".95" height=".95" x="4" y="5" fill="#FFFFFF" />
<rect width=".95" height=".95" x="5" y="5" fill="#FFFFFF" />
<rect width=".95" height=".95" x="6" y="5" fill="#FFFFFF" />
<rect width=".95" height=".95" x="7" y="5" fill="#FFFFFF" />
<rect width=".95" height=".95" x="0" y="6" fill="#FFFFFF" />
<rect width=".95" height=".95" x="1" y="6" fill="#000000" />
<rect width=".95" height=".95" x="2" y="6" fill="#FFFFFF" />
<rect width=".95" height=".95" x="3" y="6" fill="#FFFFFF" />
<rect width=".95" height=".95" x="4" y="6" fill="#FFFFFF" />
<rect width=".95" height=".95" x="5" y="6" fill="#FFFFFF" />
<rect width=".95" height=".95" x="6" y="6" fill="#FFFFFF" />
<rect width=".95" height=".95" x="7" y="6" fill="#FFFFFF" />
<rect width=".95" height=".95" x="0" y="7" fill="#FFFFFF" />
<rect width=".95" height=".95" x="1" y="7" fill="#000000" />
<rect width=".95" height=".95" x="2" y="7" fill="#FFFFFF" />
<rect width=".95" height=".95" x="3" y="7" fill="#FFFFFF" />
<rect width=".95" height=".95" x="4" y="7" fill="#FFFFFF" />
<rect width=".95" height=".95" x="5" y="7" fill="#FFFFFF" />
<rect width=".95" height=".95" x="6" y="7" fill="#FFFFFF" />
<rect width=".95" height=".95" x="7" y="7" fill="#FFFFFF" />
</svg>